<?xml version="1.0" encoding="UTF-8" standalone="no"?>
<!-- Created with Inkscape (http://www.inkscape.org/) -->

<svg
   xmlns:dc="http://purl.org/dc/elements/1.1/"
   xmlns:cc="http://creativecommons.org/ns#"
   xmlns:rdf="http://www.w3.org/1999/02/22-rdf-syntax-ns#"
   xmlns:svg="http://www.w3.org/2000/svg"
   xmlns="http://www.w3.org/2000/svg"
   xmlns:xlink="http://www.w3.org/1999/xlink"
   xmlns:sodipodi="http://sodipodi.sourceforge.net/DTD/sodipodi-0.dtd"
   xmlns:inkscape="http://www.inkscape.org/namespaces/inkscape"
   width="421.78586"
   height="547.18793"
   id="svg2"
   version="1.1"
   inkscape:version="0.48.4 r9939"
   sodipodi:docname="AvatarVautour01.svg">
  <defs
     id="defs4">
    <linearGradient
       id="linearGradient5012">
      <stop
         style="stop-color:#d9bb7a;stop-opacity:1;"
         offset="0"
         id="stop5014" />
      <stop
         style="stop-color:#95532b;stop-opacity:1;"
         offset="1"
         id="stop5016" />
    </linearGradient>
    <linearGradient
       id="linearGradient4927">
      <stop
         style="stop-color:#ffffff;stop-opacity:1;"
         offset="0"
         id="stop4929" />
      <stop
         style="stop-color:#ffffff;stop-opacity:0;"
         offset="1"
         id="stop4931" />
    </linearGradient>
    <linearGradient
       id="linearGradient4848">
      <stop
         style="stop-color:#33fd33;stop-opacity:1;"
         offset="0"
         id="stop4850" />
      <stop
         style="stop-color:#017601;stop-opacity:1;"
         offset="1"
         id="stop4852" />
    </linearGradient>
    <linearGradient
       id="linearGradient4782">
      <stop
         style="stop-color:#fdd99b;stop-opacity:1;"
         offset="0"
         id="stop4784" />
      <stop
         style="stop-color:#b6832a;stop-opacity:1;"
         offset="1"
         id="stop4786" />
    </linearGradient>
    <linearGradient
       id="linearGradient4742">
      <stop
         style="stop-color:#336699;stop-opacity:1;"
         offset="0"
         id="stop4744" />
      <stop
         style="stop-color:#1f3d5c;stop-opacity:1;"
         offset="1"
         id="stop4746" />
    </linearGradient>
    <linearGradient
       id="linearGradient4734">
      <stop
         style="stop-color:#888888;stop-opacity:1;"
         offset="0"
         id="stop4736" />
      <stop
         style="stop-color:#535353;stop-opacity:1;"
         offset="1"
         id="stop4738" />
    </linearGradient>
    <linearGradient
       id="linearGradient4722">
      <stop
         style="stop-color:#ffffff;stop-opacity:1;"
         offset="0"
         id="stop4724" />
      <stop
         id="stop4730"
         offset="0.27439791"
         style="stop-color:#ffffff;stop-opacity:1;" />
      <stop
         style="stop-color:#9fc5eb;stop-opacity:1;"
         offset="0.47595704"
         id="stop4732" />
      <stop
         style="stop-color:#2a7fd3;stop-opacity:1;"
         offset="1"
         id="stop4726" />
    </linearGradient>
    <linearGradient
       id="linearGradient4714">
      <stop
         style="stop-color:#6699cc;stop-opacity:1;"
         offset="0"
         id="stop4716" />
      <stop
         style="stop-color:#ffffff;stop-opacity:1;"
         offset="1"
         id="stop4718" />
    </linearGradient>
    <linearGradient
       id="linearGradient4677">
      <stop
         style="stop-color:#cccccf;stop-opacity:1;"
         offset="0"
         id="stop4679" />
      <stop
         style="stop-color:#5d5d63;stop-opacity:1;"
         offset="1"
         id="stop4681" />
    </linearGradient>
    <linearGradient
       id="linearGradient4654">
      <stop
         style="stop-color:#ffff99;stop-opacity:1;"
         offset="0"
         id="stop4656" />
      <stop
         style="stop-color:#ff827d;stop-opacity:1;"
         offset="1"
         id="stop4658" />
    </linearGradient>
    <linearGradient
       id="linearGradient4646">
      <stop
         style="stop-color:#ffff00;stop-opacity:1;"
         offset="0"
         id="stop4648" />
      <stop
         style="stop-color:#ffffc9;stop-opacity:1;"
         offset="1"
         id="stop4650" />
    </linearGradient>
    <linearGradient
       id="linearGradient4630">
      <stop
         style="stop-color:#c9c9cc;stop-opacity:1;"
         offset="0"
         id="stop4632" />
      <stop
         style="stop-color:#59595f;stop-opacity:1;"
         offset="1"
         id="stop4634" />
    </linearGradient>
    <linearGradient
       id="linearGradient4604">
      <stop
         style="stop-color:#980101;stop-opacity:1;"
         offset="0"
         id="stop4606" />
      <stop
         style="stop-color:#000000;stop-opacity:1;"
         offset="1"
         id="stop4608" />
    </linearGradient>
    <linearGradient
       id="linearGradient4596">
      <stop
         style="stop-color:#535353;stop-opacity:1;"
         offset="0"
         id="stop4598" />
      <stop
         style="stop-color:#888888;stop-opacity:1;"
         offset="1"
         id="stop4600" />
    </linearGradient>
    <linearGradient
       id="linearGradient4588">
      <stop
         style="stop-color:#003366;stop-opacity:1;"
         offset="0"
         id="stop4590" />
      <stop
         style="stop-color:#000000;stop-opacity:1;"
         offset="1"
         id="stop4592" />
    </linearGradient>
    <linearGradient
       id="linearGradient4578">
      <stop
         style="stop-color:#980101;stop-opacity:1;"
         offset="0"
         id="stop4580" />
      <stop
         style="stop-color:#000000;stop-opacity:1;"
         offset="1"
         id="stop4582" />
    </linearGradient>
    <linearGradient
       id="linearGradient4554">
      <stop
         style="stop-color:#ff540d;stop-opacity:1;"
         offset="0"
         id="stop4556" />
      <stop
         style="stop-color:#ffdd1b;stop-opacity:1;"
         offset="1"
         id="stop4558" />
    </linearGradient>
    <linearGradient
       inkscape:collect="always"
       xlink:href="#linearGradient4554"
       id="linearGradient4560"
       x1="386.86096"
       y1="412.10925"
       x2="431.06787"
       y2="444.93921"
       gradientUnits="userSpaceOnUse"
       gradientTransform="translate(-0.35714286,0)"
       spreadMethod="reflect" />
    <linearGradient
       inkscape:collect="always"
       xlink:href="#linearGradient4554"
       id="linearGradient4576"
       x1="431.21875"
       y1="400.59882"
       x2="515.58545"
       y2="400.59882"
       gradientUnits="userSpaceOnUse" />
    <linearGradient
       inkscape:collect="always"
       xlink:href="#linearGradient4578"
       id="linearGradient4584"
       x1="309.44879"
       y1="387.8884"
       x2="305.34058"
       y2="373.78125"
       gradientUnits="userSpaceOnUse" />
    <linearGradient
       inkscape:collect="always"
       xlink:href="#linearGradient4578"
       id="linearGradient4586"
       x1="405.9895"
       y1="356.25705"
       x2="402.80527"
       y2="318.84891"
       gradientUnits="userSpaceOnUse" />
    <linearGradient
       inkscape:collect="always"
       xlink:href="#linearGradient4588"
       id="linearGradient4594"
       x1="385.91965"
       y1="521.30096"
       x2="428.71875"
       y2="502.01523"
       gradientUnits="userSpaceOnUse"
       spreadMethod="reflect" />
    <linearGradient
       inkscape:collect="always"
       xlink:href="#linearGradient4596"
       id="linearGradient4602"
       x1="431.0625"
       y1="439.58038"
       x2="441.83035"
       y2="454.75894"
       gradientUnits="userSpaceOnUse" />
    <linearGradient
       inkscape:collect="always"
       xlink:href="#linearGradient4604"
       id="linearGradient4610"
       x1="446.83035"
       y1="414.86832"
       x2="490.15753"
       y2="399.86829"
       gradientUnits="userSpaceOnUse" />
    <filter
       inkscape:collect="always"
       id="filter4626"
       color-interpolation-filters="sRGB">
      <feGaussianBlur
         inkscape:collect="always"
         stdDeviation="11.390757"
         id="feGaussianBlur4628" />
    </filter>
    <linearGradient
       inkscape:collect="always"
       xlink:href="#linearGradient4630"
       id="linearGradient4636"
       x1="376.06699"
       y1="378.58484"
       x2="389.2991"
       y2="420.72769"
       gradientUnits="userSpaceOnUse" />
    <linearGradient
       inkscape:collect="always"
       xlink:href="#linearGradient4554"
       id="linearGradient4644"
       x1="275.3118"
       y1="436.41052"
       x2="260.71921"
       y2="424.54123"
       gradientUnits="userSpaceOnUse" />
    <linearGradient
       inkscape:collect="always"
       xlink:href="#linearGradient4646"
       id="linearGradient4652"
       x1="275.74048"
       y1="509.12598"
       x2="251.59894"
       y2="502.96353"
       gradientUnits="userSpaceOnUse" />
    <linearGradient
       inkscape:collect="always"
       xlink:href="#linearGradient4654"
       id="linearGradient4660"
       x1="294.51785"
       y1="381.37943"
       x2="296.45535"
       y2="368.87943"
       gradientUnits="userSpaceOnUse" />
    <linearGradient
       inkscape:collect="always"
       xlink:href="#linearGradient4654"
       id="linearGradient4662"
       x1="401.48215"
       y1="330.0491"
       x2="384.01785"
       y2="318.2634"
       gradientUnits="userSpaceOnUse" />
    <linearGradient
       inkscape:collect="always"
       xlink:href="#linearGradient4677"
       id="linearGradient4683"
       x1="444.45892"
       y1="306.21622"
       x2="432.09802"
       y2="308.48904"
       gradientUnits="userSpaceOnUse" />
    <linearGradient
       inkscape:collect="always"
       xlink:href="#linearGradient4677"
       id="linearGradient4710"
       x1="272.45615"
       y1="383.26562"
       x2="278.06995"
       y2="381.11905"
       gradientUnits="userSpaceOnUse" />
    <linearGradient
       inkscape:collect="always"
       xlink:href="#linearGradient4714"
       id="linearGradient4720"
       x1="237.27512"
       y1="269.97858"
       x2="288.23438"
       y2="257.83786"
       gradientUnits="userSpaceOnUse"
       spreadMethod="reflect" />
    <radialGradient
       inkscape:collect="always"
       xlink:href="#linearGradient4722"
       id="radialGradient4728"
       cx="268.21252"
       cy="243.16318"
       fx="268.21252"
       fy="243.16318"
       r="45.204327"
       gradientTransform="matrix(1.2160137,-0.04074982,0.13915394,1.6382595,-84.461959,-139.34692)"
       gradientUnits="userSpaceOnUse" />
    <linearGradient
       inkscape:collect="always"
       xlink:href="#linearGradient4734"
       id="linearGradient4740"
       x1="348.63013"
       y1="260.38168"
       x2="371.26785"
       y2="265.73886"
       gradientUnits="userSpaceOnUse" />
    <linearGradient
       inkscape:collect="always"
       xlink:href="#linearGradient4742"
       id="linearGradient4748"
       x1="431.85501"
       y1="536.05463"
       x2="429.90894"
       y2="519.13458"
       gradientUnits="userSpaceOnUse" />
    <radialGradient
       inkscape:collect="always"
       xlink:href="#linearGradient4722"
       id="radialGradient4756"
       cx="544.13623"
       cy="586.46765"
       fx="544.13623"
       fy="586.46765"
       r="18.515625"
       gradientTransform="matrix(0.537383,0.17153492,-0.34022293,1.0658472,454.06474,-137.66899)"
       gradientUnits="userSpaceOnUse" />
    <radialGradient
       inkscape:collect="always"
       xlink:href="#linearGradient4722"
       id="radialGradient4764"
       cx="546.22766"
       cy="601.20294"
       fx="546.22766"
       fy="601.20294"
       r="8.0625"
       gradientTransform="matrix(0.9626092,0.27089396,-0.46983839,1.6695491,303.42282,-551.87102)"
       gradientUnits="userSpaceOnUse" />
    <radialGradient
       inkscape:collect="always"
       xlink:href="#linearGradient4722"
       id="radialGradient4772"
       cx="432.25986"
       cy="586.69708"
       fx="432.25986"
       fy="586.69708"
       r="17.279654"
       gradientTransform="matrix(0.4949425,0.30516328,-0.64699535,1.0493579,598.92253,-161.82399)"
       gradientUnits="userSpaceOnUse" />
    <linearGradient
       inkscape:collect="always"
       xlink:href="#linearGradient4782"
       id="linearGradient4836"
       x1="489.39731"
       y1="386.26154"
       x2="485.6131"
       y2="379.38654"
       gradientUnits="userSpaceOnUse" />
    <linearGradient
       inkscape:collect="always"
       xlink:href="#linearGradient4782"
       id="linearGradient4838"
       x1="490.37805"
       y1="411.23645"
       x2="485.2366"
       y2="417.04001"
       gradientUnits="userSpaceOnUse" />
    <linearGradient
       inkscape:collect="always"
       xlink:href="#linearGradient4782"
       id="linearGradient4840"
       x1="474.88394"
       y1="414.59521"
       x2="476.81696"
       y2="420.3988"
       gradientUnits="userSpaceOnUse" />
    <linearGradient
       inkscape:collect="always"
       xlink:href="#linearGradient4782"
       id="linearGradient4842"
       x1="476.87054"
       y1="396.32681"
       x2="471.77603"
       y2="393.20181"
       gradientUnits="userSpaceOnUse" />
    <linearGradient
       inkscape:collect="always"
       xlink:href="#linearGradient4782"
       id="linearGradient4844"
       x1="464.15625"
       y1="406.28183"
       x2="460.0188"
       y2="404.49612"
       gradientUnits="userSpaceOnUse" />
    <linearGradient
       inkscape:collect="always"
       xlink:href="#linearGradient4782"
       id="linearGradient4846"
       x1="459.59821"
       y1="416.38898"
       x2="460.4241"
       y2="420.04968"
       gradientUnits="userSpaceOnUse" />
    <radialGradient
       inkscape:collect="always"
       xlink:href="#linearGradient4848"
       id="radialGradient4856"
       cx="429.52283"
       cy="545.30438"
       fx="429.52283"
       fy="545.30438"
       r="19.40127"
       gradientTransform="matrix(0.60363126,0.15292087,-0.22226314,0.87734902,291.45048,-1.4155467)"
       gradientUnits="userSpaceOnUse" />
    <radialGradient
       inkscape:collect="always"
       xlink:href="#linearGradient4848"
       id="radialGradient4864"
       cx="460.65164"
       cy="540.0108"
       fx="460.65164"
       fy="540.0108"
       r="23.793438"
       gradientTransform="matrix(0.85405319,0.36231242,-0.54686447,1.2890845,362.54336,-324.96808)"
       gradientUnits="userSpaceOnUse" />
    <radialGradient
       inkscape:collect="always"
       xlink:href="#linearGradient4848"
       id="radialGradient4872"
       cx="405.09909"
       cy="548.63531"
       fx="405.09909"
       fy="548.63531"
       r="17.776503"
       gradientTransform="matrix(0.37998779,-0.22948823,0.33392353,0.5529123,68.343031,336.03773)"
       gradientUnits="userSpaceOnUse" />
    <linearGradient
       inkscape:collect="always"
       xlink:href="#linearGradient4927"
       id="linearGradient4933"
       x1="384.59375"
       y1="269.84821"
       x2="398.88394"
       y2="284.13394"
       gradientUnits="userSpaceOnUse" />
    <linearGradient
       inkscape:collect="always"
       xlink:href="#linearGradient4927"
       id="linearGradient4935"
       x1="290.58481"
       y1="340.78793"
       x2="291.22321"
       y2="354.35938"
       gradientUnits="userSpaceOnUse" />
    <linearGradient
       inkscape:collect="always"
       xlink:href="#linearGradient4927"
       id="linearGradient4950"
       x1="420.54855"
       y1="358.7301"
       x2="435.16464"
       y2="371.60953"
       gradientUnits="userSpaceOnUse" />
    <linearGradient
       inkscape:collect="always"
       xlink:href="#linearGradient4630"
       id="linearGradient4958"
       x1="397.40143"
       y1="562.57812"
       x2="424.31696"
       y2="581.50671"
       gradientUnits="userSpaceOnUse" />
    <radialGradient
       inkscape:collect="always"
       xlink:href="#linearGradient4722"
       id="radialGradient4966"
       cx="490.20627"
       cy="488.4433"
       fx="490.20627"
       fy="488.4433"
       r="16.15625"
       gradientTransform="matrix(0.59387916,-0.55458718,0.33015273,0.35354374,37.778749,586.99129)"
       gradientUnits="userSpaceOnUse" />
    <linearGradient
       inkscape:collect="always"
       xlink:href="#linearGradient4654"
       id="linearGradient4970"
       gradientUnits="userSpaceOnUse"
       x1="401.48215"
       y1="330.0491"
       x2="384.01785"
       y2="318.2634" />
    <linearGradient
       inkscape:collect="always"
       xlink:href="#linearGradient4654"
       id="linearGradient4974"
       gradientUnits="userSpaceOnUse"
       x1="401.48215"
       y1="330.0491"
       x2="384.01785"
       y2="318.2634" />
    <linearGradient
       inkscape:collect="always"
       xlink:href="#linearGradient4654"
       id="linearGradient4982"
       gradientUnits="userSpaceOnUse"
       x1="294.51785"
       y1="381.37943"
       x2="296.45535"
       y2="368.87943" />
    <linearGradient
       inkscape:collect="always"
       xlink:href="#linearGradient4927"
       id="linearGradient4994"
       x1="283.60312"
       y1="383.73126"
       x2="296.89975"
       y2="381.45844"
       gradientUnits="userSpaceOnUse" />
    <linearGradient
       inkscape:collect="always"
       xlink:href="#linearGradient4927"
       id="linearGradient5002"
       x1="431.38217"
       y1="315.75854"
       x2="414.94205"
       y2="326.36514"
       gradientUnits="userSpaceOnUse" />
    <linearGradient
       inkscape:collect="always"
       xlink:href="#linearGradient5012"
       id="linearGradient5018"
       x1="325.05356"
       y1="258.55569"
       x2="324.46875"
       y2="301.76999"
       gradientUnits="userSpaceOnUse" />
  </defs>
  <sodipodi:namedview
     id="base"
     pagecolor="#ffffff"
     bordercolor="#666666"
     borderopacity="1.0"
     inkscape:pageopacity="0.0"
     inkscape:pageshadow="2"
     inkscape:zoom="0.98994949"
     inkscape:cx="25.967933"
     inkscape:cy="233.28948"
     inkscape:document-units="px"
     inkscape:current-layer="layer1"
     showgrid="false"
     inkscape:window-width="1871"
     inkscape:window-height="1056"
     inkscape:window-x="49"
     inkscape:window-y="24"
     inkscape:window-maximized="1"
     showguides="true"
     inkscape:guide-bbox="true"
     fit-margin-top="0"
     fit-margin-left="0"
     fit-margin-right="0"
     fit-margin-bottom="0" />
  <metadata
     id="metadata7">
    <rdf:RDF>
      <cc:Work
         rdf:about="">
        <dc:format>image/svg+xml</dc:format>
        <dc:type
           rdf:resource="http://purl.org/dc/dcmitype/StillImage" />
        <dc:title></dc:title>
      </cc:Work>
    </rdf:RDF>
  </metadata>
  <g
     inkscape:label="Calque 1"
     inkscape:groupmode="layer"
     id="layer1"
     transform="translate(-172.81145,-160.99102)">
    <rect
       style="fill:#980101;stroke:#ffffff;stroke-width:10;stroke-linecap:round;stroke-linejoin:round;stroke-miterlimit:4;stroke-opacity:1;stroke-dasharray:none"
       id="rect4379"
       width="350"
       height="350"
       x="210"
       y="235.93361"
       ry="0.80976921" />
    <path
       sodipodi:nodetypes="ccccccccccccccccccccccccccccccccccccccccccccccccccccccccccccccccccccccccccccccccccccccccccccccccccccccccccccccccccccccccccccccccccccccccccccccccccccccccccccccccccccccc"
       inkscape:connector-curvature="0"
       id="path4612"
       d="m 467.33677,188.32884 -3.96875,5 c -15.13922,25.6079 -41.01002,41.61941 -65.0625,58 -5.2305,3.89397 -10.3481,7.95186 -15.3125,12.1875 -1.77591,-1.88501 -7.06504,-5.07061 -8.46875,-6.09375 -10.74274,-7.38259 -23.66097,-10.98882 -36.71875,-10.34375 -7.39117,0.26455 -14.6474,1.61712 -21.75,3.5625 -0.34857,-1.05728 -0.70975,-2.11563 -1.09375,-3.15625 -7.35277,-20.47463 -25.20334,-41.58286 -47.28125,-40.84375 -20.75971,0.89925 -33.52488,20.84123 -36.71875,40.40625 -1.3105,7.54348 -1.59965,15.5443 -0.84375,23.59375 l -0.46875,0.1875 c -4.95424,2.36999 -13.08268,3.74246 -14.375,10.03125 4.05677,10.43765 6.55247,21.91916 9.9375,32.78125 2.54791,3.48509 15.30116,4.18698 20.625,4.875 1.93471,0.39169 3.01697,0.0936 3.53125,-0.5625 0.85699,0.9926 1.71027,1.99273 2.625,2.9375 l -0.21875,1.40625 c -0.31976,2.12109 -0.93576,4.52432 -0.71875,6.3125 -5.23181,-0.42646 -10.53894,0.0501 -15.625,1.46875 -5.70064,0.57119 3.66297,2.57965 5.8125,4.1875 3.32481,1.6944 6.1773,4.23515 8,7.46875 -4.88685,-0.80324 -9.85234,-0.10731 -14.75,0.25 3.9476,2.65537 10.71156,4.06077 11.71875,9.5 -9.97123,0.88935 -20.21322,5.2837 -30.0625,1.3125 -5.49273,-1.47683 -10.73277,-3.57507 -16,-5.75 2.68715,10.65756 11.80085,18.66711 20.65625,23.625 -4.6773,0.24801 -9.32699,-0.36943 -13.96875,-0.84375 5.09884,5.52522 10.80024,10.73027 18,13.15625 -7.28917,1.66714 -10.23304,5.52361 -0.8125,4.96875 8.69354,0.58996 19.63317,1.19509 23.75,10.3125 2.38863,4.67214 5.59265,10.87182 5.6875,15.34375 -11.63571,2.22418 -21.09316,10.18215 -28.625,19 2.53994,-0.49589 10.00833,-3.06825 9.5,-2.1875 -7.23777,5.38594 -13.08057,13.23571 -14.125,22.40625 2.20175,-0.32545 7.54292,-8.9496 6.40625,-4 -0.87064,7.84112 2.04986,15.2644 5.46875,22.15625 0.79268,-1.86707 -0.12695,-12.99871 2,-8.25 3.2395,6.10614 8.92523,12.10702 16.03125,13.4375 -7.52813,16.11888 -13.94044,32.7304 -18.46875,49.9375 -2.9243,9.87407 -2.63653,20.93441 3.46875,29.5625 15.68509,23.94509 38.80849,41.40658 61.3125,58.625 0.98773,1.01347 1.91492,1.75231 2.75,2.28125 1.79076,1.77636 2.98863,1.52314 3.90625,0.28125 0.97503,-0.82839 1.6913,-2.54805 2.15625,-5.25 1.32362,-3.18817 2.6219,-6.39448 3.90625,-9.59375 2.89458,-7.08562 5.60875,-14.23525 8.25,-21.40625 0.24742,-0.66662 0.50423,-1.33278 0.75,-2 0.70787,-1.93738 1.43048,-3.87013 2.125,-5.8125 2.40891,-6.68714 4.69172,-13.40117 6.9375,-20.15625 0.38902,-1.14767 0.80032,-2.28877 1.1875,-3.4375 1.69647,-4.53693 3.63696,-9.03574 5.84375,-13.40625 0.006,-0.0126 0.0249,-0.0187 0.0312,-0.0312 0.5473,-1.08295 1.10588,-2.15466 1.6875,-3.21875 0.007,-0.0125 0.0244,-0.0188 0.0312,-0.0312 0.57767,-1.05588 1.1686,-2.12235 1.78125,-3.15625 0.0118,-0.0199 0.0194,-0.0426 0.0312,-0.0625 0.24053,-0.40528 0.50397,-0.78596 0.75,-1.1875 0.39021,-0.63587 0.78318,-1.28033 1.1875,-1.90625 0.65021,-1.00757 1.31246,-2.02121 2,-3 0.0132,-0.0188 0.018,-0.0437 0.0312,-0.0625 0.68825,-0.97817 1.39825,-1.92901 2.125,-2.875 0.0139,-0.018 0.0174,-0.0445 0.0312,-0.0625 0.44927,-0.58379 0.94194,-1.14829 1.40625,-1.71875 0.3039,-0.3728 0.59572,-0.75806 0.90625,-1.125 0.76373,-0.90402 1.53962,-1.79078 2.34375,-2.65625 0.02,-0.0215 0.0425,-0.041 0.0625,-0.0625 0.81005,-0.86972 1.64788,-1.70397 2.5,-2.53125 0.88622,-0.85966 1.78482,-1.68854 2.71875,-2.5 0.16194,-0.14076 0.33663,-0.26705 0.5,-0.40625 0.7553,-0.64337 1.52553,-1.29634 2.3125,-1.90625 0.4683,-0.36256 0.92676,-0.71274 1.40625,-1.0625 0.0117,-0.009 0.0195,-0.0227 0.0312,-0.0312 0.48004,-0.34963 0.97736,-0.69486 1.46875,-1.03125 0.0117,-0.008 0.0195,-0.0232 0.0312,-0.0312 1.00721,-0.68844 2.03799,-1.33854 3.09375,-1.96875 4.19752,-3.41645 8.30059,-6.93979 12.34375,-10.53125 1.84924,-1.64444 3.67828,-3.29418 5.5,-4.96875 2.16242,-1.9872 4.30966,-4.00499 6.4375,-6.03125 1.68033,-1.59922 3.33851,-3.19272 5,-4.8125 2.21319,-2.15978 4.40913,-4.33937 6.59375,-6.53125 0.39472,-0.39548 0.79361,-0.79112 1.1875,-1.1875 0.14133,2.70016 0.11266,5.39049 0.0312,8.09375 -0.57915,5.63939 -2.19578,11.12795 -4.34375,16.4375 -0.74699,3.38039 -1.40581,6.58939 -5.15625,7.40625 -6.0705,2.77411 -8.70412,10.85491 -5.15625,16.28125 -0.0322,0.0121 -0.0614,0.0179 -0.0937,0.0312 -6.55607,6.50901 -15.96018,13.52353 -15.75,23.59375 0.58725,2.16195 1.84123,3.55298 3.4375,4.4375 0.58335,0.57675 1.15401,1.31219 1.71875,2.09375 l -0.5,1.125 c -5.70811,11.72718 -8.73992,28.11958 1.65625,38.25 3.29237,3.5173 6.96866,6.63502 10.90625,9.375 -0.0181,0.40637 -0.0444,0.81238 -0.0625,1.21875 -0.6798,5.13031 0.10416,14.18319 7.21875,13.4375 4.57403,-0.61763 8.80774,-2.54934 13,-4.4375 0.48787,0.17325 0.97866,0.33474 1.46875,0.5 -0.90653,2.04668 -1.70877,4.10945 -2.34375,6.15625 -1.63872,6.09123 -2.51718,15.64214 4.15625,18.875 -0.87743,15.21606 3.71621,31.14753 15.40625,41.34375 12.48614,11.24518 31.33177,7.74328 45.96875,3.125 21.98008,-6.20101 39.04229,-21.98257 54.84375,-37.9375 0.83681,3.02054 4.45167,6.08732 6.65625,8.03125 3.6853,2.91537 8.09496,3.24174 12.125,1.90625 0.76018,2.67318 6.20042,0.47657 8.28125,-1 13.58884,-9.96744 15.78843,-29.40359 12.90625,-44.90625 -2.22158,-10.80416 -9.17609,-24.79691 -22.0625,-24.40625 -1.83113,0.42628 -2.45815,1.09834 -2.40625,1.84375 -0.60951,-0.0388 -1.22041,-0.0577 -1.84375,0 -12.06472,1.77465 -17.26753,15.52941 -18.84375,26.1875 -0.57691,6.24789 -1.5473,13.29253 0.96875,19.125 -0.93983,1.02814 -1.9164,1.97473 -3,2.71875 -15.25019,16.08748 -34.41347,28.15118 -53.875,38.5625 -13.33403,4.87516 -30.47701,0.31153 -38.625,-11.375 -3.55536,-7.51058 -3.66222,-15.91101 -3.9375,-24.09375 2.22858,-0.024 5.60783,-3.12997 7.1875,-4.71875 3.44584,-3.75198 7.45884,-7.776 8.71875,-12.78125 17.74899,0.14379 36.21612,-3.91616 49.25,-16.59375 18.44489,-15.70618 37.56001,-32.03485 49.0625,-53.6875 6.34364,-11.30102 2.72906,-28.44178 -10.28125,-33.0625 -8.45584,-2.78956 -17.2351,-5.459 -26.03125,-7.3125 0.47764,-0.76819 0.51406,-1.83447 -0.1875,-3.25 -1.75896,-5.60563 -8.06786,-8.01211 -13.53125,-7.46875 -11.27139,0.93197 -24.18612,10.91975 -21.875,23.28125 0.66212,1.94201 1.70643,3.48313 3,4.65625 -0.0508,0.005 -0.10549,-0.005 -0.15625,0 -1.0058,0.0323 -1.97652,0.13648 -2.90625,0.3125 -1.70306,-8.72852 -2.72382,-17.58193 -3.84375,-26.40625 0.63749,-2.47 0.43731,-4.96373 -1.3125,-7.3125 -2.40773,-2.48029 -6.27942,-2.70005 -9.53125,-2.5 -4.44863,0.77895 -9.96009,1.03383 -13.875,3.375 0.125,-0.96164 0.29199,-1.91917 0.46875,-2.875 0.0311,0.0416 0.0626,0.0835 0.0937,0.125 1.58833,-6.95218 3.45543,-13.77842 5.53125,-20.5625 0.81369,-2.63687 1.66481,-5.27168 2.53125,-7.90625 16.14285,1.98827 32.84212,3.52117 47.90625,-3 8.87653,-3.36414 11.72039,-13.32387 11.28125,-22.03125 0.031,-2.33627 0.0863,-4.67649 0.15625,-7.03125 9.30407,-7.94298 15.9063,-19.76785 20.5625,-29.9375 0.63553,6.6772 0.1154,13.38186 -0.15625,20.0625 4.51758,-5.25393 8.42536,-11.37861 8.875,-18.5 0.41041,5.11902 2.24485,12.17843 4.28125,3.28125 1.75459,-7.71845 2.29248,-16.01913 0.53125,-23.8125 2.20062,2.55805 5.61281,12.06012 5.375,4.125 1.05138,-7.35833 -0.95549,-15.08312 -5.59375,-20.875 4.06885,1.3113 7.9421,3.12489 11.8125,4.9375 -2.82188,-13.27773 -16.24648,-21.77824 -28.40625,-23.6875 5.02812,-2.9209 10.80842,-4.32974 16.59375,-5.21875 -9.28183,-6.43266 -20.68394,-8.93408 -31.8125,-6.78125 -8.85534,1.04094 -17.9079,4.99012 -25.71875,7.3125 -6.12683,-15.5936 -14.78134,-31.60002 -29.625,-40.25 1.7097,-8.70554 2.00756,-18.0621 4.5,-26.40625 7.14098,-8.92182 12.60587,-19.35488 14.53125,-30.75 -4.06519,3.52352 -9.77004,10.34275 -13.21875,11.90625 8.91828,-12.06864 15.13348,-26.0975 16.5,-41.15625 -5.47938,7.11322 -11.32983,13.80266 -18.09375,19.6875 6.53961,-12.28573 12.09194,-25.7823 12.21875,-39.96875 z m 26.375,327.15625 c 10.91121,2.98309 21.41641,7.36457 30.1875,14.75 -6.5995,18.4936 -20.73947,32.8896 -35.28125,45.46875 0.57608,-7.76895 -6.54797,-13.58162 -8.40625,-20.125 1.45969,-3.5304 -1.84351,-7.09311 1.25,-10.09375 1.9894,-6.72004 -0.29559,-14.33276 -3.375,-20.375 -0.40717,-0.67007 -0.87353,-1.27091 -1.40625,-1.8125 4.5224,0.11731 9.34367,-1.33059 12.8125,-3.625 2.20169,-0.67157 3.90046,-2.52435 4.21875,-4.1875 z"
       style="fill:#000000;fill-opacity:0.49803922;stroke:none;filter:url(#filter4626)" />
    <path
       style="fill:#000000;stroke:#000000;stroke-width:5;stroke-linejoin:round;stroke-miterlimit:4;stroke-opacity:1;stroke-dasharray:none"
       d="m 480.46875,171.15625 -3.96875,5 c -15.13922,25.6079 -41.01002,41.61941 -65.0625,58 -5.2305,3.89397 -10.3481,7.95186 -15.3125,12.1875 -1.77591,-1.88501 -7.06504,-5.07061 -8.46875,-6.09375 -10.74274,-7.38259 -23.66097,-10.98882 -36.71875,-10.34375 -7.39117,0.26455 -14.6474,1.61712 -21.75,3.5625 -0.34857,-1.05728 -0.70975,-2.11563 -1.09375,-3.15625 -7.35277,-20.47463 -25.20334,-41.58286 -47.28125,-40.84375 -20.75971,0.89925 -33.52488,20.84123 -36.71875,40.40625 -1.3105,7.54348 -1.59965,15.5443 -0.84375,23.59375 l -0.46875,0.1875 c -4.95424,2.36999 -13.08268,3.74246 -14.375,10.03125 4.05677,10.43765 6.55247,21.91916 9.9375,32.78125 2.54791,3.48509 15.30116,4.18698 20.625,4.875 1.93471,0.39169 3.01697,0.0936 3.53125,-0.5625 0.85699,0.9926 1.71027,1.99273 2.625,2.9375 l -0.21875,1.40625 c -0.31976,2.12109 -0.93576,4.52432 -0.71875,6.3125 -5.23181,-0.42646 -10.53894,0.0501 -15.625,1.46875 -5.70064,0.57119 3.66297,2.57965 5.8125,4.1875 3.32481,1.6944 6.1773,4.23515 8,7.46875 -4.88685,-0.80324 -9.85234,-0.10731 -14.75,0.25 3.9476,2.65537 10.71156,4.06077 11.71875,9.5 -9.97123,0.88935 -20.21322,5.2837 -30.0625,1.3125 -5.49273,-1.47683 -10.73277,-3.57507 -16,-5.75 2.68715,10.65756 11.80085,18.66711 20.65625,23.625 -4.6773,0.24801 -9.32699,-0.36943 -13.96875,-0.84375 5.09884,5.52522 10.80024,10.73027 18,13.15625 -7.28917,1.66714 -10.23304,5.52361 -0.8125,4.96875 8.69354,0.58996 19.63317,1.19509 23.75,10.3125 2.38863,4.67214 5.59265,10.87182 5.6875,15.34375 -11.63571,2.22418 -21.09316,10.18215 -28.625,19 2.53994,-0.49589 10.00833,-3.06825 9.5,-2.1875 -7.23777,5.38594 -13.08057,13.23571 -14.125,22.40625 2.20175,-0.32545 7.54292,-8.9496 6.40625,-4 -0.87064,7.84112 2.04986,15.2644 5.46875,22.15625 0.79268,-1.86707 -0.12695,-12.99871 2,-8.25 3.2395,6.10614 8.92523,12.10702 16.03125,13.4375 -7.52813,16.11888 -13.94044,32.7304 -18.46875,49.9375 -2.9243,9.87407 -2.63653,20.93441 3.46875,29.5625 15.68509,23.94509 38.80849,41.40658 61.3125,58.625 0.98773,1.01347 1.91492,1.75231 2.75,2.28125 1.79076,1.77636 2.98863,1.52314 3.90625,0.28125 0.97503,-0.82839 1.6913,-2.54805 2.15625,-5.25 1.32362,-3.18817 2.6219,-6.39448 3.90625,-9.59375 2.89458,-7.08562 5.60875,-14.23525 8.25,-21.40625 0.24742,-0.66662 0.50423,-1.33278 0.75,-2 0.70787,-1.93738 1.43048,-3.87013 2.125,-5.8125 2.40891,-6.68714 4.69172,-13.40117 6.9375,-20.15625 0.38902,-1.14767 0.80032,-2.28877 1.1875,-3.4375 1.69647,-4.53693 3.63696,-9.03574 5.84375,-13.40625 0.006,-0.0126 0.0249,-0.0187 0.0312,-0.0312 0.5473,-1.08295 1.10588,-2.15466 1.6875,-3.21875 0.007,-0.0125 0.0244,-0.0188 0.0312,-0.0312 0.57767,-1.05588 1.1686,-2.12235 1.78125,-3.15625 0.0118,-0.0199 0.0194,-0.0426 0.0312,-0.0625 0.24053,-0.40528 0.50397,-0.78596 0.75,-1.1875 0.39021,-0.63587 0.78318,-1.28033 1.1875,-1.90625 0.65021,-1.00757 1.31246,-2.02121 2,-3 0.0132,-0.0188 0.018,-0.0437 0.0312,-0.0625 0.68825,-0.97817 1.39825,-1.92901 2.125,-2.875 0.0139,-0.018 0.0174,-0.0445 0.0312,-0.0625 0.44927,-0.58379 0.94194,-1.14829 1.40625,-1.71875 0.3039,-0.3728 0.59572,-0.75806 0.90625,-1.125 0.76373,-0.90402 1.53962,-1.79078 2.34375,-2.65625 0.02,-0.0215 0.0425,-0.041 0.0625,-0.0625 0.81005,-0.86972 1.64788,-1.70397 2.5,-2.53125 0.88622,-0.85966 1.78482,-1.68854 2.71875,-2.5 0.16194,-0.14076 0.33663,-0.26705 0.5,-0.40625 0.7553,-0.64337 1.52553,-1.29634 2.3125,-1.90625 0.4683,-0.36256 0.92676,-0.71274 1.40625,-1.0625 0.0117,-0.009 0.0195,-0.0227 0.0312,-0.0312 0.48004,-0.34963 0.97736,-0.69486 1.46875,-1.03125 0.0117,-0.008 0.0195,-0.0232 0.0312,-0.0312 1.00721,-0.68844 2.03799,-1.33854 3.09375,-1.96875 4.19752,-3.41645 8.30059,-6.93979 12.34375,-10.53125 1.84924,-1.64444 3.67828,-3.29418 5.5,-4.96875 2.16242,-1.9872 4.30966,-4.00499 6.4375,-6.03125 1.68033,-1.59922 3.33851,-3.19272 5,-4.8125 2.21319,-2.15978 4.40913,-4.33937 6.59375,-6.53125 0.39472,-0.39548 0.79361,-0.79112 1.1875,-1.1875 0.14133,2.70016 0.11266,5.39049 0.0312,8.09375 -0.57915,5.63939 -2.19578,11.12795 -4.34375,16.4375 -0.74699,3.38039 -1.40581,6.58939 -5.15625,7.40625 -6.0705,2.77411 -8.70412,10.85491 -5.15625,16.28125 -0.0322,0.0121 -0.0614,0.0179 -0.0937,0.0312 -6.55607,6.50901 -15.96018,13.52353 -15.75,23.59375 0.58725,2.16195 1.84123,3.55298 3.4375,4.4375 0.58335,0.57675 1.15401,1.31219 1.71875,2.09375 l -0.5,1.125 c -5.70811,11.72718 -8.73992,28.11958 1.65625,38.25 3.29237,3.5173 6.96866,6.63502 10.90625,9.375 -0.0181,0.40637 -0.0444,0.81238 -0.0625,1.21875 -0.6798,5.13031 0.10416,14.18319 7.21875,13.4375 4.57403,-0.61763 8.80774,-2.54934 13,-4.4375 0.48787,0.17325 0.97866,0.33474 1.46875,0.5 -0.90653,2.04668 -1.70877,4.10945 -2.34375,6.15625 -1.63872,6.09123 -2.51718,15.64214 4.15625,18.875 -0.87743,15.21606 3.71621,31.14753 15.40625,41.34375 12.48614,11.24518 31.33177,7.74328 45.96875,3.125 21.98008,-6.20101 39.04229,-21.98257 54.84375,-37.9375 0.83681,3.02054 4.45167,6.08732 6.65625,8.03125 6.02318,5.18612 15.8295,4.02206 20.40625,0.90625 13.58884,-9.96744 16.57196,-31.96526 12.90625,-44.90625 -4.13636,-14.60251 -11.07251,-28.7821 -28.20654,-22.5625 -11.57672,4.34995 -15.37349,15.52941 -16.94971,26.1875 -0.57691,6.24789 -0.66342,11.46163 0.40054,19.37754 -0.93983,1.02814 -1.34819,1.72219 -2.43179,2.46621 -15.25019,16.08748 -34.41347,28.15118 -53.875,38.5625 -13.33403,4.87516 -30.47701,0.31153 -38.625,-11.375 -3.55536,-7.51058 -3.66222,-15.91101 -3.9375,-24.09375 2.22858,-0.024 5.60783,-3.12997 7.1875,-4.71875 3.44584,-3.75198 7.45884,-7.776 8.71875,-12.78125 17.74899,0.14379 36.21612,-3.91616 49.25,-16.59375 18.44489,-15.70618 37.56001,-32.03485 49.0625,-53.6875 6.34364,-11.30102 2.72906,-28.44178 -10.28125,-33.0625 -8.45584,-2.78956 -17.2351,-5.459 -26.03125,-7.3125 0.47764,-0.76819 0.51406,-1.83447 -0.1875,-3.25 -1.75896,-5.60563 -8.06786,-8.01211 -13.53125,-7.46875 -11.27139,0.93197 -24.18612,10.91975 -21.875,23.28125 0.66212,1.94201 1.70643,3.48313 3,4.65625 -0.0508,0.005 -0.10549,-0.005 -0.15625,0 -1.0058,0.0323 -1.97652,0.13648 -2.90625,0.3125 -1.70306,-8.72852 -2.72382,-17.58193 -3.84375,-26.40625 0.63749,-2.47 0.43731,-4.96373 -1.3125,-7.3125 -2.40773,-2.48029 -6.27942,-2.70005 -9.53125,-2.5 -4.44863,0.77895 -9.96009,1.03383 -13.875,3.375 0.125,-0.96164 0.29199,-1.91917 0.46875,-2.875 0.0311,0.0416 0.0626,0.0835 0.0937,0.125 1.58833,-6.95218 3.45543,-13.77842 5.53125,-20.5625 0.81369,-2.63687 1.66481,-5.27168 2.53125,-7.90625 16.14285,1.98827 32.84212,3.52117 47.90625,-3 8.87653,-3.36414 11.72039,-13.32387 11.28125,-22.03125 0.031,-2.33627 0.0863,-4.67649 0.15625,-7.03125 9.30407,-7.94298 15.9063,-19.76785 20.5625,-29.9375 0.63553,6.6772 0.1154,13.38186 -0.15625,20.0625 4.51758,-5.25393 8.42536,-11.37861 8.875,-18.5 0.41041,5.11902 2.24485,12.17843 4.28125,3.28125 1.75459,-7.71845 2.29248,-16.01913 0.53125,-23.8125 2.20062,2.55805 5.61281,12.06012 5.375,4.125 1.05138,-7.35833 -0.95549,-15.08312 -5.59375,-20.875 4.06885,1.3113 7.9421,3.12489 11.8125,4.9375 -2.82188,-13.27773 -16.24648,-21.77824 -28.40625,-23.6875 5.02812,-2.9209 10.80842,-4.32974 16.59375,-5.21875 -9.28183,-6.43266 -20.68394,-8.93408 -31.8125,-6.78125 -8.85534,1.04094 -17.9079,4.99012 -25.71875,7.3125 -6.12683,-15.5936 -14.78134,-31.60002 -29.625,-40.25 1.7097,-8.70554 2.00756,-18.0621 4.5,-26.40625 7.14098,-8.92182 12.60587,-19.35488 14.53125,-30.75 -4.06519,3.52352 -9.77004,10.34275 -13.21875,11.90625 8.91828,-12.06864 15.13348,-26.0975 16.5,-41.15625 -5.47938,7.11322 -11.32983,13.80266 -18.09375,19.6875 6.53961,-12.28573 12.09194,-25.7823 12.21875,-39.96875 z m 26.375,327.15625 c 10.91121,2.98309 21.41641,7.36457 30.1875,14.75 -6.5995,18.4936 -20.73947,32.8896 -35.28125,45.46875 0.57608,-7.76895 -6.54797,-13.58162 -8.40625,-20.125 1.45969,-3.5304 -1.84351,-7.09311 1.25,-10.09375 1.9894,-6.72004 -0.29559,-14.33276 -3.375,-20.375 -0.40717,-0.67007 -0.87353,-1.27091 -1.40625,-1.8125 4.5224,0.11731 9.34367,-1.33059 12.8125,-3.625 2.20169,-0.67157 3.90046,-2.52435 4.21875,-4.1875 z"
       id="path4381"
       inkscape:connector-curvature="0"
       sodipodi:nodetypes="ccccccccccccccccccccccccccccccccccccccccccccccccccccccccccccccccccccccccccccccccccccccccccccccccccccccccsccccccccccccccccccccccccccccccccccccccccccccccccccccccccccc" />
    <path
       style="fill:url(#radialGradient4756);fill-opacity:1;stroke:none"
       d="m 554.03125,564.78125 c -10.21962,0 -18.53125,14.63087 -18.53125,32.65625 0,3.23464 0.28295,6.36306 0.78125,9.3125 0.82496,-0.97372 1.62706,-1.96105 2.46875,-2.90625 -0.62911,-7.2749 2.24232,-15.12688 9.6875,-16.6875 11.33319,0.30052 13.09558,16.75698 8.5625,24.53125 -2.07085,5.00219 -8.04278,6.40218 -12.25,4.125 -1.3642,1.39127 -2.71432,2.78846 -4.09375,4.1875 3.37504,6.19546 8.12283,10.0625 13.375,10.0625 10.21962,0 18.5,-14.59962 18.5,-32.625 0,-18.02538 -8.28038,-32.65625 -18.5,-32.65625 z"
       id="path4349"
       inkscape:connector-curvature="0" />
    <path
       style="fill:url(#linearGradient4636);fill-opacity:1;stroke:none"
       d="m 478.21875,177.1875 c -11.36421,19.44544 -32.16071,36.59821 -52.875,49.8125 -20.71428,13.21428 -53.36167,39.46446 -67.125,67.875 0,0 -1.91561,-4.60549 2.125,-9.65625 -13.51079,4.79822 -13.90625,18.5625 -13.90625,18.5625 0,0 -2.83836,-8.36167 2.84375,-22.125 -11.74302,2.27284 -25,35.71875 -25,35.71875 0,0 -0.70416,-4.72931 -5.09375,-10.71875 -0.8035,0.89496 -1.62637,1.78602 -2.5,2.625 -1.78352,1.77699 -3.79459,3.2416 -5.9375,4.46875 -1.03809,6.4515 -2.90625,11.125 -2.90625,11.125 0,0 -1.28197,-3.9318 -4.40625,-8.125 -2.44958,0.65128 -4.98025,1.0152 -7.5625,1.09375 0.17193,6.24398 -2.3125,11.3125 -2.3125,11.3125 0,0 -14.46875,-20.17857 -40.71875,-15 14.10714,5.89286 13.21875,17.125 13.21875,17.125 l -3.21875,-4.625 c 0,0 -3.90179,-0.73214 -8.1875,-0.375 5.71429,3.03571 6.58482,7.33036 6.58482,7.33036 18.75,-1.42857 26.60714,-2.33482 49.82143,6.95089 -11.25,-2.85714 -22.66172,-4.40095 -30,-5 -8.75,-0.71429 -30.70536,1.80803 -38.5625,3.59375 -7.85714,1.78571 -25.71875,-5.71875 -25.71875,-5.71875 5.35714,13.92857 24.65625,21.4375 24.65625,21.4375 0,0 -7.87946,1.23661 -16.09375,0.34375 9.28571,9.64286 20,10.34375 20,10.34375 l -10,3.21875 c 0,0 11.07143,-0.33482 20,3.59375 8.92857,3.92857 14.3125,25.6875 14.3125,25.6875 -14.46429,1.25 -25.375,13.59375 -25.375,13.59375 0,0 8.04464,-2.33929 11.4375,-0.375 -14.28571,5 -19.28125,19.28125 -19.28125,19.28125 0,0 5.89286,-6.94643 7.5,-7.125 -5.17857,11.42857 0,22.5 0,22.5 0,0 0.51786,-6.25446 2.125,-8.21875 0,0 2.87053,9.9866 9.65625,15.34375 4.07088,3.21385 6.82899,3.95691 8.40625,4.0625 1.8376,-3.88146 3.76689,-7.73816 5.71875,-11.5625 -5.86981,-0.5623 -11.51484,-3.97937 -12.3125,-10.3125 -0.81911,-4.87934 -0.98404,-13.47938 5.65625,-14 6.99368,0.96388 13.88782,0.26095 20.59375,-1.375 4.22238,-7.86053 10.86577,-13.61182 17.3125,-19.53125 0.52774,-0.5651 1.0817,-1.11014 1.625,-1.65625 -4.47422,-0.47183 -9.54398,-0.8857 -12.28125,-0.625 -5.625,0.53571 -11.5,4.21875 -11.5,4.21875 0,0 1.65783,-4.17228 7.71875,-5.6875 0,0 -3.6116,-5.03125 -7.09375,-11.28125 -3.48214,-6.25 -4.71875,-17 -4.71875,-17 0,0 -2.65355,-1.05996 -12.25,-1.3125 11.74302,-3.03046 40.21256,-2.18338 56.375,3.625 16.16244,5.80837 25,4.1875 25,4.1875 0,0 -6.32091,-6.58248 -8.59375,-23.25 0,0 8.31408,24.5119 14.375,20.21875 6.06091,-4.29314 8.33835,-17.95303 27.53125,-47.5 C 396.47414,294.73429 436.625,269.75 436.625,269.75 l -9.84375,10.59375 c 20.51161,36.60009 10.4375,61.34375 10.4375,61.34375 5.26785,-2.23215 12.40625,-2.84375 12.40625,-2.84375 0,0 -12.47176,4.65942 -33.9375,16.78125 -13.37499,7.55294 -20.37172,17.33573 -23.75,23.65625 10.75739,2.75985 20.51896,9.1058 31.375,10.90625 16.27922,-1.27209 29.0008,-13.15628 41.15625,-22.96875 10.04749,-8.27743 19.66702,-19.40881 33.03125,-22.0625 8.9737,-0.21863 12.83366,9.92739 15.46875,17.25 1.26823,2.08088 1.64502,5.29299 2.65625,7.46875 2.44537,11.21689 2.13596,22.88991 1.78125,34.4375 13.58517,-12.13177 20.8125,-33.75 20.8125,-33.75 2.77792,3.91434 1.78125,20.375 1.78125,20.375 0,0 8.81345,-9.7446 2.5,-28.9375 5.3033,5.3033 6.4375,19.65625 6.4375,19.65625 0,0 4.95368,-19.22446 -2.875,-31.09375 5.05076,2.27284 8.9375,9.65625 8.9375,9.65625 0,0 1.65562,-13.66117 -10.71875,-22.5 5.93465,0.63135 15.375,5 15.375,5 0,0 -5.83994,-16.921 -31.09375,-18.5625 0,0 7.94242,-5.8585 16.78125,-7.5 -3.40926,-1.6415 -18.82391,-14.35518 -67.4375,11.65625 l 13.875,-9.53125 c 0,0 -9.5736,-27.61215 -27.125,-38.21875 l -4.3125,8.21875 5.71875,-37.5 c 0,0 9.55314,-10.7354 13.59375,-24.625 -8.33376,9.47018 -18.21875,13.21875 -18.21875,13.21875 0,0 18.11945,-19.21414 21.78125,-41.4375 C 475.01126,209.17037 460,220.5625 460,220.5625 c 0,0 14.55695,-19.38388 18.21875,-43.375 z"
       id="path3049"
       inkscape:connector-curvature="0"
       sodipodi:nodetypes="csccccccccccccccccccsscccccscccccccscccccccsccsccsccssccccsccccccccccccccccccccccccccc" />
    <path
       style="fill:url(#linearGradient5018);fill-opacity:1;stroke:none"
       d="m 352.21875,231.875 c -6.45594,0.12695 -13.89638,1.14161 -22.4375,3.5 0.26315,0.85774 0.54165,1.69623 0.78125,2.5625 20.69945,0.0918 41.3477,2.57071 61.40625,7.53125 -1.60775,-1.06657 -3.39206,-2.23921 -4.5625,-3 -6.31346,-4.10374 -16.87602,-10.95381 -35.1875,-10.59375 z m -19.0625,43.28125 c -1.65882,11.19195 -5.75694,21.61676 -12.625,29.9375 1.39229,1.82299 2.64142,3.7759 3.625,5.90625 1.39538,0.89636 2.76799,-5.85742 4.25,-7.5 5.66774,-9.72411 11.34818,-23.18022 24.09375,-24.625 -1.68769,4.35819 -3.5344,8.70413 -4.28125,13.34375 3.23956,-5.13935 9.09459,-8.6004 15.09375,-10.15625 0.9427,-1.39155 1.9174,-2.76985 2.90625,-4.125 -10.91455,-1.67362 -21.97588,-2.52903 -33.0625,-2.78125 z M 266.875,305.4375 c -0.34141,2.23932 -0.57268,4.33777 -0.75,6.1875 10.15389,1.26659 19.83032,5.92854 26.75,13.625 0.88819,-2.46978 1.16447,-4.95565 1,-7.40625 -7.86784,-0.20982 -15.93837,-3.01776 -22.5625,-8.5 -1.54075,-1.236 -3.02533,-2.54991 -4.4375,-3.90625 z m 41.6875,9.4375 c -0.98945,0.46177 -1.99449,0.8959 -3.03125,1.25 0.72779,1.02737 1.39255,2.10195 1.96875,3.25 0.43725,-1.48053 0.78047,-2.99007 1.0625,-4.5 z"
       id="path3051"
       inkscape:connector-curvature="0" />
    <path
       style="fill:url(#linearGradient4740);fill-opacity:1;stroke:none"
       d="m 331.09375,239.9375 c 2.77109,10.91434 3.629,22.38928 2.3125,33.21875 14.13833,0.38211 25.76805,1.67906 34.1875,2.96875 7.75881,-10.30169 16.78924,-19.568 26.53125,-28.0625 -13.63551,-3.49462 -36.29602,-8.01548 -63.03125,-8.125 z m -87.625,15.59375 c -17.96788,6.49452 -12.15625,9.40625 -12.15625,9.40625 l 8.09375,28.03125 c 0,0 3.77997,-3.6005 12.78125,-7.71875 -4.65539,-9.29853 -7.53295,-19.50111 -8.71875,-29.71875 z"
       id="path3058"
       inkscape:connector-curvature="0" />
    <path
       style="fill:#565248;fill-opacity:1;stroke:none"
       d="m 253.125,287.03125 c -3.79726,1.79547 -10.66193,5.05482 -12.75,8.33929 5.11735,3.12403 12.13472,3.75328 21,4.09821 -3.16681,-3.85574 -5.90825,-8.0368 -8.25,-12.4375 z"
       id="path3060"
       inkscape:connector-curvature="0"
       sodipodi:nodetypes="cccc" />
    <path
       sodipodi:type="arc"
       style="fill:url(#linearGradient4720);fill-opacity:1;stroke:none"
       id="path3850"
       sodipodi:cx="283.60034"
       sodipodi:cy="259.26617"
       sodipodi:rx="45.204327"
       sodipodi:ry="62.250652"
       d="m 328.80467,259.26617 c 0,34.38009 -20.23867,62.25066 -45.20433,62.25066 -24.96566,0 -45.20432,-27.87057 -45.20432,-62.25066 0,-34.38008 20.23866,-62.25065 45.20432,-62.25065 24.96566,0 45.20433,27.87057 45.20433,62.25065 z"
       transform="matrix(0.95601235,0,0.10003353,1.0001779,-8.6621718,-5.6019737)" />
    <path
       sodipodi:type="arc"
       style="fill:#000000;stroke:none"
       id="path3956"
       sodipodi:cx="283.60034"
       sodipodi:cy="259.26617"
       sodipodi:rx="45.204327"
       sodipodi:ry="62.250652"
       d="m 328.80467,259.26617 c 0,34.38009 -20.23867,62.25066 -45.20433,62.25066 -24.96566,0 -45.20432,-27.87057 -45.20432,-62.25066 0,-34.38008 20.23866,-62.25065 45.20432,-62.25065 24.96566,0 45.20433,27.87057 45.20433,62.25065 z"
       transform="matrix(0.31753957,0,0.03322614,0.33220917,194.52804,169.3475)" />
    <path
       transform="matrix(0.28270974,0,0.02958168,0.29577028,205.35068,178.79487)"
       d="m 328.80467,259.26617 c 0,34.38009 -20.23867,62.25066 -45.20433,62.25066 -24.96566,0 -45.20432,-27.87057 -45.20432,-62.25066 0,-34.38008 20.23866,-62.25065 45.20432,-62.25065 24.96566,0 45.20433,27.87057 45.20433,62.25065 z"
       sodipodi:ry="62.250652"
       sodipodi:rx="45.204327"
       sodipodi:cy="259.26617"
       sodipodi:cx="283.60034"
       id="path3870"
       style="fill:url(#radialGradient4728);fill-opacity:1;stroke:none"
       sodipodi:type="arc" />
    <path
       style="fill:url(#linearGradient4644);fill-opacity:1;stroke:none"
       d="m 282.4375,422.28125 c -2.75961,0.66776 -5.43405,1.15739 -7.6875,1.25 -9.21764,0.37881 -13.10977,-1.75428 -14.625,1.78125 -1.51523,3.53553 -2.53395,15.79346 7.0625,17.6875 1.19956,0.23675 2.44836,0.3914 3.71875,0.46875 1.70135,-3.29361 3.4506,-6.55957 5.21875,-9.8125 L 270.40625,432.5 c -0.49107,0.3125 -0.53125,3 -0.53125,3 0,0 -1.53125,-0.73215 -1.21875,-3.1875 0.3125,-2.45536 3.21875,-3.6875 3.21875,-3.6875 0,0 -0.6116,1.36161 -0.96875,2.34375 L 277,432.0625 c 1.79577,-3.27945 3.59057,-6.54155 5.4375,-9.78125 z"
       id="path3874"
       inkscape:connector-curvature="0" />
    <path
       style="fill:url(#linearGradient4652);fill-opacity:1;stroke:none"
       d="m 314.66252,598.29861 c 0,0 -68.43784,-47.7297 -69.70053,-74.75129 -1.26269,-27.02158 39.64849,-106.82363 48.9924,-113.8947 9.34391,-7.07106 20.96067,-25.75888 53.03301,-31.31472 32.07234,-5.55584 52.78047,6.06091 70.96322,12.87944 18.18274,6.81853 49.75001,-24.4962 56.06346,-29.7995 6.31346,-5.3033 18.68782,-15.65736 25.75889,-14.14213 7.07107,1.51522 11.61676,16.41497 11.61676,16.41497 0,0 -10.35407,-3.28299 -30.80966,15.40483 -20.45559,18.68782 -83.84266,90.91373 -109.85409,108.08632 -26.01142,17.1726 -34.85026,56.31601 -39.39594,68.69038 -4.54569,12.37436 -16.66752,42.4264 -16.66752,42.4264 z"
       id="path3884"
       inkscape:connector-curvature="0" />
    <path
       style="fill:url(#linearGradient4576);fill-opacity:1;stroke:none"
       d="m 505.35469,363.44718 c -5.99834,1.35713 -9.28528,6.17455 -14.16719,9.55282 3.19077,3.68578 6.79584,10.21203 7.375,21.3125 1.07143,20.53571 0.54017,28.21875 -5.53125,30.71875 -5.74684,2.36634 -40.12806,-2.73076 -50.03125,-4.5 -3.92297,4.16358 -7.84585,8.31711 -11.78125,12.46875 l 0.375,0.4375 c 0,0 40.91518,7.66964 59.84375,4.8125 18.92857,-2.85714 21.95982,-9.98214 23.03125,-15.875 1.07143,-5.89286 2.13839,-43.95536 -0.71875,-51.8125 -0.64172,-1.76473 -2.06576,-6.58485 -2.9126,-7.93925 -2.66105,0.14287 -2.12613,-1.21862 -5.48271,0.82393 z"
       id="path3886"
       inkscape:connector-curvature="0"
       sodipodi:nodetypes="ccsscccssscc" />
    <path
       style="fill:url(#linearGradient4660);fill-opacity:1;stroke:none"
       d="m 281.53125,367.28125 c -1.38304,-0.002 -2.77351,0.0493 -4.15625,0.0937 0.75225,11.99305 5.7384,22.41507 12.96875,28.75 4.74071,-0.38184 9.45339,0.27411 14.15625,0.78125 1.37151,-1.28751 2.79317,-2.51464 4.25,-3.6875 -3.75935,-0.75992 -7.69937,-6.64299 -9.09375,-13.78125 -0.88552,-4.53321 -0.53917,-8.53393 0.71875,-11.0625 -1.47851,-0.17078 -2.96206,-0.31692 -4.46875,-0.34375 -4.78171,-0.45661 -9.57103,-0.74281 -14.375,-0.75 z m 29,3.09375 c 1.57484,2.43241 2.85254,5.588 3.53125,9.0625 0.77701,3.97773 0.62238,7.56627 -0.28125,10.09375 6.03959,-4.09389 12.62235,-7.347 19.53125,-9.71875 0.36445,-1.07286 0.70961,-2.16001 1,-3.28125 -8.10286,-1.11445 -15.86862,-4.04554 -23.78125,-6.15625 z"
       id="path3905"
       inkscape:connector-curvature="0" />
    <path
       style="fill:url(#linearGradient4662);fill-opacity:1;stroke:none"
       d="m 422.375,282.125 c -21.37368,15.80819 -40.75579,35.09076 -52.96875,59.03125 -6.03221,9.33374 -9.30967,20.43995 -15.78125,29.34375 1.7664,1.6243 3.61875,3.12057 5.5625,4.46875 10.38129,-0.44965 20.84823,0.79927 30.75,3.71875 3.95929,-7.71998 9.90389,-14.10964 16.78125,-19.4375 -0.18831,0.0203 -0.37181,0.0312 -0.5625,0.0312 -6.10194,0 -11.0625,-10.52902 -11.0625,-23.5 0,-12.97098 4.96056,-23.46875 11.0625,-23.46875 6.10194,0 11.03125,10.49777 11.03125,23.46875 0,8.10687 -1.93607,15.24814 -4.875,19.46875 4.63251,-3.03316 9.53513,-5.65709 14.4375,-7.9375 2.76525,-1.10873 5.53161,-2.39896 7.375,-4.4375 1.76529,-6.03487 2.75,-12.49081 2.75,-19.21875 0,-16.15061 -5.53675,-30.78796 -14.5,-41.53125 z"
       id="path3910"
       inkscape:connector-curvature="0" />
    <path
       transform="matrix(0.86879482,0,0,0.86879482,53.28826,42.520933)"
       d="m 417.19301,337.55298 c 0,12.97098 -4.9466,23.48604 -11.04854,23.48604 -6.10194,0 -11.04854,-10.51506 -11.04854,-23.48604 0,-12.97099 4.9466,-23.48605 11.04854,-23.48605 6.10194,0 11.04854,10.51506 11.04854,23.48605 z"
       sodipodi:ry="23.486046"
       sodipodi:rx="11.048544"
       sodipodi:cy="337.55298"
       sodipodi:cx="406.14447"
       id="path3936"
       style="fill:url(#linearGradient4586);fill-opacity:1;stroke:none"
       sodipodi:type="arc" />
    <path
       sodipodi:type="arc"
       style="fill:#000000;stroke:none"
       id="path3938"
       sodipodi:cx="406.14447"
       sodipodi:cy="337.55298"
       sodipodi:rx="11.048544"
       sodipodi:ry="23.486046"
       d="m 417.19301,337.55298 c 0,12.97098 -4.9466,23.48604 -11.04854,23.48604 -6.10194,0 -11.04854,-10.51506 -11.04854,-23.48604 0,-12.97099 4.9466,-23.48605 11.04854,-23.48605 6.10194,0 11.04854,10.51506 11.04854,23.48605 z"
       transform="matrix(0.43144421,0,0,0.43144421,230.91579,190.14993)" />
    <path
       transform="matrix(0.43144421,0,0,0.43144421,227.63279,182.44752)"
       d="m 417.19301,337.55298 c 0,12.97098 -4.9466,23.48604 -11.04854,23.48604 -6.10194,0 -11.04854,-10.51506 -11.04854,-23.48604 0,-12.97099 4.9466,-23.48605 11.04854,-23.48605 6.10194,0 11.04854,10.51506 11.04854,23.48605 z"
       sodipodi:ry="23.486046"
       sodipodi:rx="11.048544"
       sodipodi:cy="337.55298"
       sodipodi:cx="406.14447"
       id="path3940"
       style="fill:#eeeeee;stroke:none"
       sodipodi:type="arc" />
    <path
       style="fill:url(#linearGradient4584);fill-opacity:1;stroke:none"
       d="m 302.03125,368.5625 c -1.7331,1.93706 -2.37402,6.08067 -1.4375,10.875 1.29899,6.6499 5.163,12.0625 8.625,12.0625 3.462,0 5.20524,-5.4126 3.90625,-12.0625 -0.75584,-3.86939 -2.37429,-7.29718 -4.28125,-9.5 -2.25226,-0.56161 -4.51638,-1.0369 -6.8125,-1.375 z"
       id="path3944"
       inkscape:connector-curvature="0" />
    <path
       transform="matrix(0.28175199,0,0.04973239,0.25459482,175.63942,293.50668)"
       d="m 417.19301,337.55298 c 0,12.97098 -4.9466,23.48604 -11.04854,23.48604 -6.10194,0 -11.04854,-10.51506 -11.04854,-23.48604 0,-12.97099 4.9466,-23.48605 11.04854,-23.48605 6.10194,0 11.04854,10.51506 11.04854,23.48605 z"
       sodipodi:ry="23.486046"
       sodipodi:rx="11.048544"
       sodipodi:cy="337.55298"
       sodipodi:cx="406.14447"
       id="path3946"
       style="fill:#000000;stroke:none"
       sodipodi:type="arc" />
    <path
       sodipodi:type="arc"
       style="fill:#eeeeee;stroke:none"
       id="path3948"
       sodipodi:cx="406.14447"
       sodipodi:cy="337.55298"
       sodipodi:rx="11.048544"
       sodipodi:ry="23.486046"
       d="m 417.19301,337.55298 c 0,12.97098 -4.9466,23.48604 -11.04854,23.48604 -6.10194,0 -11.04854,-10.51506 -11.04854,-23.48604 0,-12.97099 4.9466,-23.48605 11.04854,-23.48605 6.10194,0 11.04854,10.51506 11.04854,23.48605 z"
       transform="matrix(0.28175199,0,0.04973239,0.25459482,172.60763,288.96149)" />
    <path
       style="fill:url(#linearGradient4844);fill-opacity:1;stroke:none"
       d="m 464.625,397.90625 c -2.87972,2.94437 -5.74366,5.89542 -8.59375,8.875 3.25161,2.40467 8.19621,5.87325 9.90625,5.53125 1.49658,-0.29932 0.77305,-6.77873 -0.0625,-12.03125 -0.45164,-0.77086 -0.85901,-1.5631 -1.25,-2.375 z"
       id="path3963"
       inkscape:connector-curvature="0" />
    <path
       style="fill:url(#linearGradient4842);fill-opacity:1;stroke:none"
       d="m 477.9375,384.375 c -4.01009,3.98247 -7.86495,8.12111 -11.78125,11.96875 2.00516,3.96502 4.81028,8.40602 7.96875,9.65625 4.27832,1.6935 4.21961,-12.85223 3.8125,-21.625 z"
       id="path3965"
       inkscape:connector-curvature="0" />
    <path
       style="fill:url(#linearGradient4836);fill-opacity:1;stroke:none"
       d="m 489.6875,374.03125 c -3.46514,2.54355 -6.69949,5.43496 -9.84375,8.46875 0.23431,4.28523 0.36021,8.58571 0.1875,12.875 2.1714,3.03307 4.27687,5.48599 5.34375,5.4375 2.77792,-0.12627 8.59249,-7.33138 8.71875,-14.78125 0.0688,-4.06138 -2.26574,-8.63699 -4.40625,-12 z"
       id="path3967"
       inkscape:connector-curvature="0" />
    <path
       style="fill:url(#linearGradient4840);fill-opacity:1;stroke:none"
       d="m 476.625,407.65625 c -0.57495,0.0204 -1.19268,0.2334 -1.84375,0.71875 -4.5107,3.36253 -6.76961,9.52564 -7.84375,13.65625 5.59809,0.67415 11.20368,1.2232 16.84375,1.46875 -0.88306,-5.57758 -3.07666,-15.98885 -7.15625,-15.84375 z"
       id="path3969"
       inkscape:connector-curvature="0" />
    <path
       style="fill:url(#linearGradient4846);fill-opacity:1;stroke:none"
       d="m 460.625,414.1875 c -2.41246,0.0559 -6.58394,3.07374 -9.6875,5.59375 4.67818,0.74053 9.36907,1.43577 14.0625,2.03125 0.0575,-0.23038 0.0965,-0.45644 0.15625,-0.6875 -0.70628,-3.10599 -1.97955,-6.65663 -4.15625,-6.9375 -0.12232,-0.0158 -0.24109,-0.003 -0.375,0 z"
       id="path3971"
       inkscape:connector-curvature="0" />
    <path
       style="fill:url(#linearGradient4838);fill-opacity:1;stroke:none"
       d="m 489.03125,401.9375 c -1.51523,0.25254 -2.51095,0.91037 -4.53125,6.71875 -0.52823,1.51866 -0.69388,3.5089 -0.625,5.625 0.94199,2.96872 1.412,6.15136 1.84375,9.28125 0.88477,0.0287 1.77011,0.048 2.65625,0.0625 5.51126,1.05209 8.488,-4.54897 8.375,-9.28125 0.0139,-1.83207 0.0504,-3.69872 0.0937,-5.59375 -3.1866,-3.28259 -6.95239,-6.95585 -7.8125,-6.8125 z"
       id="path3973"
       inkscape:connector-curvature="0" />
    <path
       style="fill:url(#linearGradient4610);fill-opacity:1;stroke:none"
       d="m 495.875,388.28125 c -0.29217,2.97633 -1.29126,5.87105 -3.125,8.46875 -0.59073,1.12268 -1.50953,2.37734 -2.59375,3.4375 1.9143,0.67112 3.38254,2.77381 4.90625,3.96875 0.74409,0.44115 1.34009,0.96333 1.84375,1.53125 0.0999,-5.82866 0.0694,-11.79119 -1.03125,-17.40625 z m -16,10.5 c -0.13336,2.59538 -0.54499,5.10082 -1.875,7.0625 0.0217,0.006 0.041,0.0253 0.0625,0.0312 1.84518,1.05602 3.14396,2.53251 4.125,4.25 0.38063,-2.69036 1.17076,-5.456 2.71875,-7.46875 -1.13303,-0.0951 -2.23276,-0.6741 -3.1875,-2 -0.76519,-0.57126 -1.35841,-1.19759 -1.84375,-1.875 z m -11.5,5.0625 c 0.67252,3.56264 1.16337,7.34077 -1.125,10.03125 -1.00374,0.31332 -1.98893,0.32654 -2.9375,0.15625 0.85616,0.96159 1.52517,2.20328 1.96875,3.53125 1.39814,-3.91188 3.35278,-7.75519 6.5,-10.09375 -1.72692,-0.67375 -3.16765,-2.0012 -4.40625,-3.625 z m -13.6875,4.3125 c -3.35184,3.51402 -6.66623,7.05811 -10,10.59375 1.21673,0.19891 2.43916,0.36616 3.65625,0.5625 3.55991,-2.8622 7.06429,-6.00221 11.5625,-7.09375 0.0854,-0.0121 0.16594,-0.0238 0.25,-0.0312 -1.90651,-1.27247 -3.6999,-2.89124 -5.46875,-4.03125 z"
       id="path4015"
       inkscape:connector-curvature="0" />
    <path
       style="fill:#b7b7bb;fill-opacity:1;stroke:none"
       d="m 430,434.28125 c -5.02041,5.28736 -10.07577,10.53205 -15.1875,15.71875 0.44905,6.34759 0.43336,14.08847 -1.59375,19.15625 -1.25992,3.14979 -2.6267,7.36452 -3.8125,11.84375 1.0628,-0.13113 2.16467,-0.21875 3.28125,-0.21875 4.50479,0 8.64434,1.11292 11.875,2.96875 -2.39939,-0.77174 -5.11377,-1.21875 -7.96875,-1.21875 -9.96085,0 -18.03125,5.27218 -18.03125,11.78125 0,6.50907 8.0704,11.8125 18.03125,11.8125 1.19201,0 2.37262,-0.1058 3.5,-0.25 -2.27527,0.68832 -4.77043,1.09375 -7.40625,1.09375 -1.76713,0 -3.47314,-0.17982 -5.09375,-0.5 1.57213,3.68583 3.8547,10.11327 5.6875,15.5 4.71906,-1.94441 9.80849,-4.36548 15.125,-7.28125 8.16672,-4.47892 15.78622,-9.49039 22.34375,-14.53125 -2.29222,-7.36908 -4.81759,-17.92964 -3.78125,-26.53125 1.27273,-10.56366 6.21094,-26.34996 8.96875,-34.625 -3.26163,-0.40876 -6.49858,-0.83073 -9.6875,-1.1875 -5.12264,-1.59344 -11.94257,-0.3644 -16.25,-3.53125 z"
       id="path4053"
       inkscape:connector-curvature="0" />
    <path
       style="fill:url(#linearGradient4594);fill-opacity:1;stroke:none"
       d="m 464.9375,469.03125 c -4.02405,-0.0152 -9.46798,1.14614 -15.84375,3.375 -0.85142,8.87514 0.63291,17.87966 3.28125,26.46875 12.07798,-9.55592 20.09375,-19.00474 20.09375,-24.78125 0,-3.40469 -2.77994,-5.04456 -7.53125,-5.0625 z m -65.40625,32.65625 c -9.29362,8.11095 -15.21875,15.79524 -15.21875,20.75 0,6.83505 11.21405,6.55898 27.125,0.3125 -1.41724,-4.18597 -2.88984,-8.34274 -4.4375,-12.46875 -0.3411,-4.3429 -3.91416,-5.48587 -6.71875,-7.90625 -0.26747,-0.21834 -0.51391,-0.45172 -0.75,-0.6875 z"
       id="path4191"
       inkscape:connector-curvature="0" />
    <path
       style="fill:#336699;stroke:none"
       d="m 472.40625,479.6875 c -6.38052,12.1054 -17.59232,19.50718 -26.59375,26.5 -2.78658,1.87346 -5.60271,3.68996 -8.4375,5.46875 3.83371,1.76067 7.90246,4.37844 11.625,8.34375 2.33049,2.48248 4.52776,5.05565 6.59375,7.59375 0.17752,-0.35117 0.35236,-0.71905 0.53125,-1.0625 4.52542,-8.69456 9.9613,-19.67245 19.8125,-22.71875 -0.34604,-1.59951 -0.65053,-3.2611 -0.90625,-5 -1.21744,-8.2786 -2.05526,-14.65498 -2.625,-19.125 z M 415.59375,523.5 c -8.96233,3.93897 -17.75446,6.43186 -25.9375,6.4375 1.40593,1.76819 2.95097,3.9136 4.46875,6.34375 1.74679,-2.42521 4.75451,-4.0514 8,-3.90625 3.93373,-0.38749 7.67857,0.3208 11.15625,1.78125 0.51233,-3.84579 1.34158,-7.44562 2.3125,-10.65625 z"
       id="path4212"
       inkscape:connector-curvature="0" />
    <path
       style="fill:url(#linearGradient4748);fill-opacity:1;stroke:none"
       d="m 435.34375,512.9375 c -5.73827,3.5259 -11.54079,6.75762 -17.28125,9.4375 -1.36123,4.10901 -2.31267,8.3605 -2.875,12.6875 2.08768,1.06874 4.06947,2.39511 5.90625,3.90625 2.33226,-7.47366 8.54947,-13.83885 16.78125,-13.84375 5.51977,-0.62371 10.35041,2.80151 14.71875,5.625 0.29462,0.46508 0.58889,0.93377 0.875,1.40625 0.37878,-0.90634 0.7743,-1.78211 1.1875,-2.65625 -0.005,-0.007 0.005,-0.0246 0,-0.0312 -5.05198,-6.81922 -11.56331,-13.08714 -19.3125,-16.53125 z"
       id="path4245"
       inkscape:connector-curvature="0" />
    <path
       style="fill:url(#radialGradient4966);fill-opacity:1;stroke:none"
       d="m 500.53125,477.03125 c -1.51828,0.0646 -3.13882,0.33054 -4.8125,0.8125 -8.92627,2.57047 -16.15625,10.36287 -16.15625,17.40625 0,7.04338 7.22998,10.66422 16.15625,8.09375 3.65677,-1.05303 7.04181,-2.97952 9.75,-5.375 -2.72987,-0.73297 -5.45502,-1.41011 -8.1875,-2.03125 -1.54005,-4.60038 0.8261,-10.03412 5.28125,-11.96875 3.09981,0.33803 6.20572,0.82662 9.3125,1.4375 -0.29178,-5.39977 -4.97415,-8.64598 -11.34375,-8.375 z"
       id="path4253"
       inkscape:connector-curvature="0" />
    <path
       style="fill:url(#radialGradient4856);fill-opacity:1;stroke:none"
       d="m 439.90625,527.09375 c -4.29314,0 -17.39864,0.25047 -18.15625,21.96875 -0.43038,12.33752 5.74612,20.26305 11.15625,24.8125 3.79123,-3.17169 8.20576,-5.53404 13.1875,-6.28125 2.7735,-0.0937 4.89349,0.53344 6.5,1.65625 -2.54618,-5.5093 -3.41893,-12.04115 -0.71875,-17.375 -2.37234,-5.5697 -1.37144,-11.77354 0.75,-17.5625 l -0.84375,-1.6875 c 0,0 -7.58185,-5.53125 -11.875,-5.53125 z m 16.375,47.84375 c 0.33953,1.27467 0.51182,2.65833 0.5625,4.0625 0.41016,-0.0402 0.81824,-0.0868 1.21875,-0.15625 0.84454,-0.2973 1.66088,-0.48812 2.46875,-0.5625 -1.52923,-1.01689 -2.95611,-2.13908 -4.25,-3.34375 z"
       id="path4255"
       inkscape:connector-curvature="0" />
    <path
       style="fill:url(#radialGradient4864);fill-opacity:1;stroke:none"
       d="m 453.30596,549.55875 c 0,0 -2.77792,-5.3033 1.76776,-15.9099 4.54569,-10.6066 12.12183,-24.74874 19.69798,-27.27412 7.57614,-2.52538 14.39467,-2.77792 17.17259,8.5863 2.77792,11.36421 1.01015,12.12183 -0.75761,15.40482 -1.76777,3.283 -5.55584,8.83884 -5.55584,8.83884 l 5.80837,-5.3033 c 0,0 1.01016,2.52538 -0.50507,4.79822 -1.51523,2.27285 -4.79823,5.05077 -4.79823,5.05077 0,0 4.29315,-0.50508 5.55584,-2.90419 2.02031,4.04061 7.32361,9.47018 8.08122,16.28871 0.75762,6.81853 -13.38452,23.23351 -20.70812,24.24366 -7.32361,1.01015 -20.96067,-4.04061 -24.24367,-11.86929 -3.28299,-7.82869 -3.28299,-13.63706 -1.01015,-16.92006 2.27284,-3.283 13.38452,-8.08122 13.38452,-8.08122 0,0 -5.40745,-2.35995 -13.88959,5.05076 z"
       id="path4257"
       inkscape:connector-curvature="0"
       sodipodi:nodetypes="cssssccsccsssscc" />
    <path
       style="fill:url(#radialGradient4872);fill-opacity:1;stroke:none"
       d="m 403.15625,534.3125 c -4.94817,0.1894 -7.964,2.25079 -8.4375,5.28125 -0.63135,4.04061 4.53838,14.63341 6.9375,16.90625 0.76788,0.72747 0.98794,3.38305 0.9375,6.8125 6.47628,5.92252 15.41415,9.83054 23.125,13.125 0.87908,0.5877 1.94289,0.98941 3.0625,1.34375 0.5653,-1.15616 1.02587,-2.33561 1.4375,-3.5 -7.97283,-7.55519 -12.249,-19.07206 -10.09375,-30.15625 0.0618,-0.99076 0.206,-1.98713 0.40625,-2.96875 -2.87632,-2.48093 -7.16006,-5.51609 -11.8125,-6.375 -2.05187,-0.37881 -3.91311,-0.53188 -5.5625,-0.46875 z m -1.5625,46.0625 c -0.10043,1.9321 -0.15958,3.63688 -0.0625,4.65625 0.50507,5.3033 1.78029,8.0828 8.09375,6.0625 2.30362,-0.73716 4.93301,-1.61127 7.53125,-2.8125 -5.47242,-2.00317 -10.70048,-4.66936 -15.5625,-7.90625 z"
       id="path4259"
       inkscape:connector-curvature="0" />
    <path
       style="fill:url(#linearGradient4958);fill-opacity:1;stroke:none"
       d="m 388.90625,532.25 c -2.36991,5.07882 -7.06085,17.0588 -4.15625,27.03125 3.57179,12.26313 23.96786,24.51381 37.1875,28.625 1.50527,-2.9 3.37813,-5.83638 5.59375,-8.5625 -8.01725,-3.18327 -21.13887,-9.04067 -27.5,-15.65625 -9.47018,-9.84899 -8.73398,-18.30568 -7.21875,-22.09375 0.31963,-0.79907 -0.2906,-2.22047 0.21875,-3.25 -2.91171,-2.91711 -2.3321,-3.33137 -4.125,-6.09375 z"
       id="path4290"
       inkscape:connector-curvature="0" />
    <path
       style="fill:url(#radialGradient4772);fill-opacity:1;stroke:none"
       d="m 446.09375,569.6875 c -8.15887,0 -18.80465,10.08552 -23.78125,22.5 -3.73867,9.32638 -3.19889,17.31865 0.75,20.71875 -0.81955,-6.15317 7.80392,-12.44528 12.15625,-6.71875 0.18841,1.99643 0.29592,4.04117 0.375,6.09375 5.26368,-3.06189 10.58248,-8.82509 14.25,-15.75 -2.84453,0.11093 -5.49182,-0.26299 -6.6875,-3.0625 -3.03923,-5.24635 0.80373,-13.06453 6.09375,-14.0625 1.71663,0.051 3.40914,0.0172 5.09375,-0.0937 -0.33938,-5.81473 -3.2343,-9.625 -8.25,-9.625 z"
       id="path4302"
       inkscape:connector-curvature="0" />
    <path
       style="fill:#aaaaaa;stroke:none"
       d="m 503.46875,485.75 c -5.71429,2.67857 -4.53125,8.5625 -4.53125,8.5625 0,0 13.83036,2.79017 24.8125,7.96875 8.46415,3.99123 14.09375,8.84375 14.09375,8.84375 l 3.21875,-3.75 c 0,0 -2.94643,10.17857 -8.125,19.375 -5.00542,8.88894 -21.3259,27.25705 -32.25,35.25 -3.38791,8.68409 -10.49122,15.95336 -18.5,20.5 -6.15066,1.96194 -12.88826,0.61321 -18.65625,-2.40625 -6.85069,1.25042 -14.80408,1.4231 -14.875,1.28125 0,0 -5.00892,3.6741 -4.5625,7.78125 0.44643,4.10714 2.0625,5.09375 2.0625,5.09375 0,0 29.125,2.3125 46,-10.1875 16.875,-12.5 58.66072,-49.01339 58.75,-69.28125 0.0893,-20.26786 -16.60714,-20.90625 -23.75,-23.40625 -7.14286,-2.5 -23.6875,-5.625 -23.6875,-5.625 z"
       id="path4314"
       inkscape:connector-curvature="0" />
    <path
       style="fill:#aaaaaa;stroke:none"
       d="m 425.26786,610.75504 c 0,0 1.07143,-3.83929 4.375,-4.64286 3.30357,-0.80357 4.01786,1.42857 4.01786,1.42857 0,0 -1.16072,24.46429 5.26785,33.21429 6.42857,8.75 27.14286,18.21428 44.10715,8.57143 C 500,639.68361 518.75,627.00504 527.5,618.25504 c 8.75,-8.75 16.60714,-16.60714 16.60714,-16.60714 0,0 4.64286,-1.78572 5.17858,1.25 0.53571,3.03571 -2.67858,8.03571 -2.67858,8.03571 0,0 -30.17857,33.75 -52.32142,42.67857 -22.14286,8.92857 -43.39286,12.14286 -55,0.53572 -11.60715,-11.60715 -12.5,-20.89286 -13.57143,-26.60715 -1.07143,-5.71428 -0.44643,-16.78571 -0.44643,-16.78571 z"
       id="path4336"
       inkscape:connector-curvature="0" />
    <path
       style="fill:url(#radialGradient4764);fill-opacity:1;stroke:none"
       d="m 549.03125,589.40625 c -4.35242,0 -7.90642,5.41942 -8.0625,12.21875 1.51325,-1.29399 3.21663,-2.23499 5.28125,-2.46875 9.00356,-0.38167 3.90932,11.60755 0.53125,14.59375 -0.11794,0.12005 -0.22573,0.2548 -0.34375,0.375 0.81059,0.43169 1.6907,0.6875 2.59375,0.6875 4.45174,0 8.0625,-5.70283 8.0625,-12.71875 0,-7.01592 -3.61076,-12.6875 -8.0625,-12.6875 z"
       id="path4347"
       inkscape:connector-curvature="0" />
    <path
       style="fill:#003366;stroke:none"
       d="m 558.0625,562.9375 c -0.51141,0 -0.99794,0.0319 -1.5,0.0937 4.06185,0.84719 7.65049,3.65109 10.09375,7 10.31405,15.21461 10.39998,36.68787 1.53125,52.59375 -1.79348,3.52387 -4.95118,6.4503 -8.5625,8.0625 10.52072,-1.31946 18.8125,-15.94377 18.8125,-33.8125 0,-18.73834 -9.12917,-33.9375 -20.375,-33.9375 z"
       id="path4359"
       inkscape:connector-curvature="0"
       sodipodi:nodetypes="sccccss" />
    <path
       style="fill:url(#linearGradient4560);fill-opacity:1;stroke:none"
       d="m 498.01786,347.125 c -7.20899,-0.0916 -18.45613,9.30941 -24.375,14.28125 -6.31345,5.3033 -37.87976,36.63103 -56.0625,29.8125 -18.18275,-6.81853 -38.86516,-18.43084 -70.9375,-12.875 -13.86605,2.40199 -23.90526,7.25133 -31.59375,12.5625 3.55993,3.14219 7.95621,8.34411 7.34375,14.46875 -1.01015,10.10152 -45.45273,75.74111 -43.9375,101.5 0.92294,15.68997 19.42989,58.67997 33.78125,89.9375 0.96602,0.69149 2.0625,1.5 2.0625,1.5 0,0 12.14181,-30.06314 16.6875,-42.4375 4.54568,-12.37437 13.36358,-51.5149 39.375,-68.6875 26.01143,-17.17259 89.41941,-89.40593 109.875,-108.09375 20.45559,-18.68782 30.78125,-15.40625 30.78125,-15.40625 0,0 -4.52268,-14.89103 -11.59375,-16.40625 -0.44194,-0.0947 -0.92565,-0.15015 -1.40625,-0.15625 z"
       id="path4370"
       inkscape:connector-curvature="0" />
    <path
       style="fill:#000000;stroke:none"
       d="m 347.99755,422.65834 c 0,0 5.17703,-22.34963 14.14214,-24.24366 8.9651,-1.89404 2.27284,10.35406 2.27284,10.35406 0,0 0.64189,-7.26883 -2.14657,-7.19733 -4.9245,0.12626 -14.26841,21.08693 -14.26841,21.08693 z"
       id="path4366"
       inkscape:connector-curvature="0"
       sodipodi:nodetypes="cscsc" />
    <path
       style="fill:url(#linearGradient4602);fill-opacity:1;stroke:none"
       d="m 430,434.28125 c -5.02041,5.28736 -10.07577,10.53205 -15.1875,15.71875 0.20536,2.90287 0.29321,6.09077 0.15625,9.1875 5.0911,-4.09523 10.60746,-6.4375 16.15625,-6.4375 7.12975,0 13.2546,3.8375 17.84375,10.34375 2.06241,-8.79747 5.03525,-18.29212 6.96875,-24.09375 -3.26163,-0.40876 -6.49858,-0.83073 -9.6875,-1.1875 -5.12264,-1.59344 -11.94257,-0.3644 -16.25,-3.53125 z"
       id="path4376"
       inkscape:connector-curvature="0" />
    <path
       style="fill:url(#linearGradient4683);fill-opacity:1;stroke:none"
       d="m 435.21875,271.25 -8.4375,9.09375 c 20.51161,36.60009 10.4375,61.34375 10.4375,61.34375 3.65302,-1.5479 8.08342,-2.29923 10.53125,-2.625 1.60033,-8.8576 4.05838,-28.01268 -1,-43.5625 -3.48899,-10.72543 -7.98714,-18.85126 -11.53125,-24.25 z"
       id="path4673"
       inkscape:connector-curvature="0" />
    <path
       style="fill:url(#linearGradient4710);fill-opacity:1;stroke:none"
       d="m 269.28125,367.375 c -0.63789,3.67747 -0.44824,7.97657 0.71875,12.59375 1.97299,7.80609 6.33295,14.73629 11.46875,19.1875 1.18574,-0.98614 2.84266,-1.97629 5.1875,-2.5625 0,0 -3.6116,-5.03125 -7.09375,-11.28125 -3.48214,-6.25 -4.71875,-17 -4.71875,-17 0,0 -1.38291,-0.53762 -5.5625,-0.9375 z"
       id="path4692"
       inkscape:connector-curvature="0" />
    <path
       style="fill:url(#linearGradient4933);fill-opacity:1;stroke:none"
       d="m 459.625,204.5 -0.71875,0.65625 -0.4375,0.40625 c -24.35695,21.69371 -54.88807,36.21614 -76.4375,61.03125 -10.77531,11.63389 -18.67904,25.76055 -25.5,40.21875 -8.38497,17.77339 -15.9926,24.94113 -21.9375,32.5625 5.55433,6.31879 7.20186,15.45248 12,22.25 6.82772,-11.42891 11.42827,-24.02278 18.8125,-35.125 15.5242,-25.98699 38.65864,-46.42871 63.8125,-62.75 3.76851,-1.98732 10.85288,-6.66964 13.1875,-0.625 5.6952,-3.61936 6.00036,-4.94209 17.59375,-18.53125 3.17869,-3.27261 -4.09845,0.84574 -5.96875,0.8125 -3.99221,0.77118 -15.2941,6.02722 -7.875,-0.71875 6.61407,-8.03287 13.44157,-15.92908 19.15625,-24.625 -5.87388,4.32273 -12.47024,7.3714 -19.3125,9.8125 4.06123,-8.72987 8.89427,-16.99239 13.625,-25.375 z"
       id="path4917"
       inkscape:connector-curvature="0"
       sodipodi:nodetypes="ccccsccccccccccc" />
    <path
       style="fill:url(#linearGradient4935);fill-opacity:1;stroke:none"
       d="m 271.40625,338.46875 c -8.22124,0.006 -16.44512,1.09938 -24.5,2.9375 -4.21037,0.67328 -14.72224,-1.00123 -26.14286,-4.83929 22.35595,24.03624 31.42277,13.70498 40.61161,17.40179 -5.18187,1.02869 -10.34587,2.1516 -15.53125,3.15625 6.77625,1.90679 13.69896,2.1893 20.4375,0.0625 13.95181,-1.72816 28.35821,-0.67915 42.125,1.9375 7.8843,1.73449 15.89201,5.04337 23.53125,6.125 -3.23343,-7.43365 -4.48476,-15.87059 -3.0625,-23.875 -20.12909,3.9091 -38.88477,-2.92041 -57.46875,-2.90625 z"
       id="path4910"
       inkscape:connector-curvature="0"
       sodipodi:nodetypes="cccccccccc" />
    <path
       style="fill:#0197fd;fill-opacity:1;stroke:none"
       d="m 255.90625,365.71875 c 0.13003,-0.0397 0.0298,0.083 0,0 z"
       id="path4904"
       inkscape:connector-curvature="0" />
    <path
       style="fill:#0197fd;fill-opacity:1;stroke:none"
       d="m 257.65625,416.875 c 0.37036,0.0352 1.04327,-0.61562 0,0 z"
       id="path4896"
       inkscape:connector-curvature="0" />
    <path
       style="fill:#0197fd;fill-opacity:1;stroke:none"
       d="m 263.5,419.5625 c 0.38118,0.92825 0.97578,-1.40492 0,0 z"
       id="path4892"
       inkscape:connector-curvature="0" />
    <path
       style="fill:#0197fd;fill-opacity:1;stroke:none"
       d="m 260.09375,448.875 c 3.46327,2.19245 -1.65115,-1.2614 0,0 z"
       id="path4874"
       inkscape:connector-curvature="0" />
    <path
       style="fill:url(#linearGradient4950);fill-opacity:1;stroke:none"
       d="m 462.40625,343.4375 c -9.14576,0.0769 -19.09339,2.02854 -28.96875,6.0625 -17.34507,7.08524 -30.42211,18.95094 -36.375,31.375 8.80366,3.10747 17.14012,7.80165 26.25,9.3125 16.27922,-1.27209 29.0008,-13.15628 41.15625,-22.96875 7.2654,-5.98546 14.32322,-13.43947 22.71875,-18.125 -6.68633,-3.78379 -15.29492,-5.73606 -24.78125,-5.65625 z"
       id="path4937"
       inkscape:connector-curvature="0" />
    <path
       style="fill:url(#linearGradient5002);fill-opacity:1;stroke:none"
       d="m 420.78125,288.34375 c -25.31171,18.68785 -44.98909,44.19436 -57.29822,73.14076 -1.05022,2.86522 -3.7578,6.06033 -4.32678,8.57799 5.65303,2.28935 12.18854,-0.1269 17.99123,1.78841 3.5904,0.0172 8.01812,2.30625 11.00877,1.61784 2.72985,-5.05542 7.94624,-9.13334 10.78125,-13.53125 4.72285,-3.03686 14.7143,-9.96726 22.03125,-14.28125 4.3299,-2.29787 11.11671,-3.37883 10.6875,-9.625 3.28519,-16.5331 -0.0951,-34.65049 -10.03125,-48.3125 l -0.80356,0.59523 -0.0402,0.0298 z"
       id="path4968"
       inkscape:connector-curvature="0"
       sodipodi:nodetypes="cccccccccccc" />
    <path
       style="fill:url(#linearGradient4994);fill-opacity:1;stroke:none"
       d="m 316.5625,385.40625 c 4.76273,-2.95534 10.04587,-5.23495 15.1875,-7.25 -5.83589,-0.92104 -12.13962,-3.26459 -17.28125,-4.4375 L 297.625,370.125 c -6.01142,-0.38727 -12.02605,-1.01424 -18.0625,-0.8125 0.9667,9.15201 4.62972,18.50789 11.59375,24.75 4.54753,-1.01555 10.2371,2.11532 13.90625,-0.4375 z"
       id="path4980"
       inkscape:connector-curvature="0"
       sodipodi:nodetypes="cccccccc" />
  </g>
</svg>
