<?xml version="1.0" encoding="UTF-8"?>
<!DOCTYPE svg PUBLIC "-//W3C//DTD SVG 1.1//EN" "http://www.w3.org/Graphics/SVG/1.1/DTD/svg11.dtd">
<svg version="1.1" xmlns="http://www.w3.org/2000/svg" xmlns:xlink="http://www.w3.org/1999/xlink" x="0" y="0" width="559.371" height="855.745" viewBox="0, 0, 559.371, 855.745">
  <g id="Layer_1">
    <path d="M300.077,851.241 L365.498,807.879 L502.682,784.626 C508.767,761.044 505.469,615.42 503.187,581.185 C500.906,546.955 500.906,511.201 467.435,489.139 C433.962,467.079 336.431,480.039 327.033,473.382 C317.634,466.725 317.634,422.082 317.634,422.082 L309.02,432.265 L239.313,460.459 L175.481,469.473 C151.22,472.147 133.327,486.372 128.678,511.167 C121.925,547.177 132.06,579.565 142.193,613.585 C147.676,631.99 189.581,734.979 196.236,759.259 C202.521,782.181 213.686,838.927 214.587,855.754 L294.057,855.754 L300.077,851.241" fill="#FAD9AE" id="path15317"/>
    <path d="M282.326,789.619 L236.684,732.82 C236.684,732.82 270.021,811.474 261.353,855.754 L284.022,855.754 L282.326,789.619" fill="#DCB38B" id="path15319"/>
    <path d="M187.938,598.879 C187.938,598.879 198.321,541.965 197.552,514.278 L204.09,577.344 L187.938,598.879" fill="#DCB38B" id="path15321"/>
    <path d="M499.383,777.451 C462.108,718.876 398.208,550.758 398.208,550.758 L376.147,558.364 C360.462,565.882 344.332,572.377 328.055,578.489 C304.968,587.163 280.754,596.57 255.652,592.237 C235.429,588.747 215.829,580.101 195.858,575.101 C195.858,575.101 149.432,656.52 200.422,708.987 C210.249,719.096 227.292,734.049 233.271,740.626 C231.177,750.193 238.953,754.08 244.035,760.957 C249.119,767.835 272.141,812.986 273.636,824.945 C274.573,832.437 272.93,846.379 271.569,855.754 L548.931,855.754 C540.81,842.815 524.378,816.73 499.383,777.451" fill="#DD4539" id="path15323"/>
    <path d="M348.617,573.498 L449.03,597.459 C443.325,581.865 453.594,565.129 459.681,550.296 C465.767,535.462 452.631,520.048 446.925,507.877 C441.219,495.705 438.813,492.244 425.12,484.635 C414.147,478.542 401.706,477.382 389.406,476.886 C382.865,476.62 377.859,482.2 372.971,485.653 C367.928,489.217 364.922,491.523 361.362,486.892 C358.229,482.82 352.532,476.757 347.691,475.755 C339.377,474.033 333.369,478.329 331.913,487.035 C330.533,495.282 331.134,504.474 332.054,512.728 C332.919,520.542 333.999,528.799 336.056,536.388 C338.906,546.913 342.305,557.182 346.202,567.361 C346.988,569.415 347.765,571.471 348.617,573.498" fill="#DCB38B" id="path15325"/>
    <path d="M362.547,495.239 C362.547,495.239 371.084,477.289 371.523,463.498 L373.493,492.175 L362.547,495.239" fill="#DCB38B" id="path15327"/>
    <path d="M509.238,267.391 C509.238,267.391 534.668,283.38 543.314,309.316 C554.838,343.89 536.102,377.467 536.102,377.467 C536.102,311.803 509.238,267.391 509.238,267.391 z M545.534,264.729 C514.934,208.8 476.656,157.882 442.453,104.225 C428.7,82.645 412.632,60.838 389.143,49.177 C368.1,38.73 338.693,38.122 316.918,47.541 C307.021,51.822 295.237,57.686 287.904,65.928 L300.583,133.378 L393.643,298.962 C393.643,298.962 422.932,321.402 421.41,368.947 C419.889,416.491 382.614,447.3 382.614,447.3 C432.82,426.762 444.612,384.415 444.612,384.415 C450.42,418.168 449.793,456.304 428.124,484.536 C426.675,486.424 406.787,505.672 407.083,506.635 L409.113,513.231 C409.113,513.231 446.133,507.144 466.421,498.523 C543.9,465.594 538.941,394.558 538.941,394.558 C569.876,352.465 560.24,291.607 545.534,264.729" fill="#6E5032" id="path15329"/>
    <path d="M328.883,402.022 C328.883,402.022 349.485,403.035 372.452,375.002 C395.417,346.971 376.166,325.017 362.318,334.137 L340.704,354.738 L328.883,402.022" fill="#FAD9AE" id="path15331"/>
    <path d="M506.154,706.215 C485.109,656.797 437.163,578.59 437.163,578.59 L489.471,786.865 L502.681,784.625 C505.272,774.591 506.162,742.458 506.154,706.215" fill="#DCB38B" id="path15333"/>
    <path d="M318.878,445.887 C318.218,439.378 317.909,433.078 317.763,428.589 C306.419,446.253 292.176,461.839 273.081,473.88 C256.598,484.273 236.882,498.492 216.843,492.175 C207.015,489.079 197.262,485.802 187.631,482.139 C179.373,478.998 171.261,475.749 163.586,471.897 C161.183,472.623 158.88,473.494 156.669,474.496 C173.441,483.195 209.97,501.633 224.789,505.087 C242.946,509.325 280.242,492.72 318.878,445.887" fill="#DCB38B" id="path15335"/>
    <path d="M416.946,219.175 C412.065,168.895 384.726,141.559 384.726,141.559 L370.571,133.26 L359.831,155.716 L384.726,207.948 L388.305,289.462 L393.644,298.962 C393.644,298.962 399.102,303.151 405.18,311.725 C410.654,294.202 420.537,256.174 416.946,219.175" fill="#553F26" id="path15337"/>
    <path d="M332.025,97.371 C332.025,97.371 346.86,74.55 385.656,61.618 C424.453,48.685 489.114,40.698 489.114,40.698 C489.114,40.698 468.574,69.225 464.391,93.568 C460.206,117.911 441.57,145.677 411.141,149.1 C380.712,152.523 350.283,141.112 350.283,141.112 L337.352,130.462 L322.516,123.616 L332.025,97.371" fill="#FFF101" id="path15339"/>
    <path d="M339.662,129.403 C353.832,123.952 354.107,106.237 352.745,100.513 C351.83,96.674 345.652,90.396 341.677,86.669 C334.982,92.837 332.025,97.371 332.025,97.371 L323.72,120.292 L327.944,122.862 L339.662,129.403" fill="#D9AD24" id="path15341"/>
    <path d="M297.793,98.132 L303.88,81.016 C303.88,81.016 299.316,54.391 277.635,35.373 C255.954,16.355 239.218,12.171 228.568,0 C228.568,0 215.256,81.016 253.291,94.709 L273.07,100.034 L297.793,98.132" fill="#FFF101" id="path15343"/>
    <path d="M300.83,70.274 C275.399,78.173 280.071,93.313 281.612,95.88 L283.827,99.206 L291.699,98.601 L298.391,96.456 L303.881,81.016 C303.881,81.016 303.135,76.685 300.83,70.274" fill="#D9AD24" id="path15345"/>
    <path d="M298.556,81.396 C298.556,81.396 278.396,76.832 271.548,53.63 C271.548,53.63 274.212,82.157 295.892,85.199 L298.556,81.396" fill="#BF9920" id="path15347"/>
    <path d="M338.873,102.316 C338.873,102.316 365.498,91.666 398.208,95.85 C398.208,95.85 359.032,104.978 338.112,107.64 L338.873,102.316" fill="#BF9920" id="path15349"/>
    <path d="M287.142,98.892 C284.376,96.892 292.281,86.375 293.346,84.764 C299.689,75.181 308.715,77.754 317.602,81.784 C327.124,86.102 338.178,87.9 341.535,99.653 C343.818,107.64 338.873,115.629 333.929,120.573 C328.983,125.518 306.162,112.585 306.162,112.585 C306.162,112.585 287.21,98.939 287.142,98.892" fill="#FFF101" id="path15351"/>
    <path d="M197.156,576.931 C197.156,576.931 194.367,493.306 198.749,475.386 L208.305,476.581 C208.305,476.581 207.109,573.348 212.685,582.508 L197.156,576.931" fill="#D8232A" id="path15353"/>
    <path d="M289.142,599.227 C305.072,595.645 363.21,574.936 377.547,571.352 C385.778,569.296 395.576,565.01 402.434,561.73 C399.729,554.761 398.208,550.758 398.208,550.758 L376.148,558.364 C360.462,565.882 344.333,572.377 328.055,578.489 C304.968,587.163 280.754,596.57 255.653,592.237 C235.43,588.747 215.829,580.101 195.858,575.101 C195.858,575.101 194.424,577.62 192.341,582.042 C199.85,584.488 214.79,589.479 226.224,594.052 C236.18,598.033 265.433,604.562 289.142,599.227" fill="#D8232A" id="path15355"/>
    <path d="M215.034,485.137 C215.034,485.137 236.572,511.372 234.222,529.387 C234.888,525.231 235.395,521.028 235.723,516.829 C236.279,509.749 234.143,502.618 237.09,495.871 C239.927,489.379 246.321,485.088 250.669,479.655 L215.034,485.137" fill="#C09D7A" id="path15357"/>
    <path d="M80.99,347.645 C94.201,380.044 108.813,414.397 128.773,443.254 C143.149,464.041 164.859,473.478 187.632,482.138 C197.262,485.801 207.017,489.079 216.843,492.175 C236.882,498.491 256.598,484.273 273.081,473.879 C315.863,446.902 334.34,402.169 350.283,356.014 L359.412,271.574 L309.966,177.247 L185.208,159.749 L112.94,162.793 L58.929,241.145 L63.494,308.849 L80.99,347.645" fill="#FAD9AE" id="path15359"/>
    <path d="M184.448,402.164 C184.448,402.164 178.671,412.271 188.688,417.481 C188.954,417.619 189.23,417.755 189.519,417.886 C189.519,417.886 184.635,415.004 184.448,402.164" fill="#C09D7A" id="path15361"/>
    <path d="M249.231,312.907 C250.914,322.435 253.614,331.581 258.669,339.904 C262.451,346.132 266.987,353.55 272.783,358.086 C276.165,360.733 280.884,362.565 285.16,363.052 L294.435,364.107 L301.604,362.211 L312.566,355.885 L316.812,349.738 C316.812,349.738 330.585,330.166 331.958,320.364 L315.038,292.621 L293.231,283.492 L264.069,285.522 C260.725,288.103 257.414,290.728 254.04,293.272 C247.923,297.88 248.015,306.021 249.231,312.907" fill="#FFFFFE" id="path15363"/>
    <path d="M225.005,448.617 C235.856,444.462 245.607,433.899 254.181,427.269 C254.177,427.27 235.161,441.975 222.99,445.527 C210.819,449.076 198.648,441.214 198.648,441.214 C198.648,441.214 200.168,444.511 204.479,447.048 C211.7,451.294 218.547,451.089 225.005,448.617" fill="#E46C6F" id="path15365"/>
    <path d="M371.363,596.737 C371.363,596.737 350.063,566.308 346.259,550.714 C342.456,535.12 336.369,518.004 336.369,507.354 C336.369,496.704 337.89,490.618 338.652,476.925 C344.736,475.404 353.105,477.685 356.528,488.337 C359.951,498.987 354.246,507.354 362.235,510.778 C363.479,511.12 367.739,486.769 368.033,485.008 C370.323,471.265 369.519,461.566 368.234,447.535 C367.368,438.097 366.048,428.247 368.646,418.968 C369.935,414.367 377.171,398.043 384.261,402.672 C391.713,407.538 388.7,421.723 388.455,429.13 C388.052,441.447 388.118,454.054 390.716,466.153 C391.89,471.621 393.936,477.723 398.367,481.489 C398.367,481.489 407.496,476.925 420.048,486.814 C432.6,496.704 428.796,496.323 434.501,497.464 C440.207,498.606 444.771,501.649 447.813,508.875 C450.858,516.102 452.759,518.004 455.042,529.414 C457.323,540.825 446.637,561.973 442.109,575.058 C438.684,584.947 440.967,588.75 446.292,600.922 C451.617,613.093 500.304,703.239 504.107,727.581 C507.911,751.923 506.009,808.216 491.555,820.389 C477.102,832.56 457.703,821.149 437.925,799.089 C418.146,777.028 404.3,748.087 398.976,705.106 C393.65,662.127 391.14,651.51 386.576,632.872 C382.011,614.235 371.363,596.737 371.363,596.737" fill="#FAD9AE" id="path15367"/>
    <path d="M362.801,510.645 C366.95,522.193 369.404,543.018 385.814,543.268 C385.814,543.268 385.07,540.243 385.053,540.234 C373.725,533.758 368.672,521.967 362.801,510.645" fill="#DCB38B" id="path15369"/>
    <path d="M279.825,360.841 C276.771,356.892 274.741,352.183 272.67,347.832 C264.59,330.837 259.545,307.437 267.742,290.599 C270.602,284.731 276.977,282.19 283.54,280.375 L305.375,289.561 C305.375,289.561 318.117,303.604 317.157,328.269 C316.197,352.933 306.924,360.874 306.924,360.874 L293.456,364.041 L283.308,362.641 L279.825,360.841" fill="#2D1E13" id="path15371"/>
    <path d="M291.519,284.959 L313.329,294.088 L327.979,313.84 L315.038,292.621 L293.231,283.492 L264.069,285.522 C260.725,288.103 257.413,290.728 254.04,293.272 C253.546,293.643 253.11,294.042 252.697,294.454 C255.943,291.999 259.138,289.474 262.359,286.989 L291.519,284.959" fill="#FFFFFE" id="path15373"/>
    <path d="M306.779,291.348 C305.93,290.188 305.375,289.561 305.375,289.561 L283.54,280.375 C278.829,281.679 274.236,283.378 270.951,286.39 L291.519,284.959 L306.779,291.348" fill="#3C2F1D" id="path15375"/>
    <path d="M248.894,310.692 C248.141,304.911 248.501,298.644 252.698,294.454 C255.944,291.999 259.139,289.474 262.359,286.989 L270.9,286.393 C269.684,287.514 268.652,288.817 267.866,290.353 C267.848,290.388 267.83,290.422 267.812,290.457 C267.81,290.461 267.807,290.467 267.806,290.472 C267.785,290.514 267.762,290.557 267.743,290.599 C267.713,290.659 267.684,290.721 267.654,290.781 C267.648,290.793 267.642,290.806 267.636,290.818 C267.614,290.866 267.591,290.914 267.569,290.961 C267.561,290.977 267.554,290.992 267.546,291.01 C267.531,291.04 267.516,291.071 267.503,291.103 C266.189,293.911 265.235,296.896 264.596,299.998 C258.821,302.436 253.448,306.292 248.894,310.692" fill="#BBBCBB" id="path15377"/>
    <path d="M264.596,299.998 C265.235,296.896 266.189,293.911 267.503,291.103 C266.193,293.906 265.26,296.893 264.621,299.988 C264.612,299.991 264.603,299.995 264.596,299.998 M267.546,291.01 C267.554,290.992 267.561,290.977 267.569,290.961 C267.561,290.977 267.554,290.993 267.546,291.01 M267.636,290.818 C267.642,290.806 267.648,290.793 267.654,290.781 C267.648,290.793 267.642,290.806 267.636,290.818 M267.743,290.599 L267.743,290.599 M267.806,290.471 C267.807,290.467 267.81,290.461 267.812,290.457 C267.81,290.461 267.807,290.467 267.806,290.471 M267.866,290.353 C268.652,288.817 269.684,287.514 270.9,286.393 L270.951,286.39 C269.723,287.517 268.659,288.807 267.866,290.353" fill="#25180E" id="path15379"/>
    <path d="M262.359,286.989 L270.951,286.39 L270.9,286.393 L262.359,286.989" fill="#BBBCBB" id="path15381"/>
    <path d="M325.518,323.412 C324.744,321.688 323.859,320.049 322.897,318.577 C320.868,315.474 318.307,312.85 315.435,310.584 C313.076,300.886 308.952,294.313 306.789,291.352 L313.329,294.088 L324.323,308.911 C324.487,309.657 324.627,310.384 324.741,311.095 C325.319,314.686 325.561,318.852 325.518,323.412" fill="#BBBCBB" id="path15383"/>
    <path d="M315.435,310.583 C315.425,310.576 315.416,310.568 315.405,310.56 C313.032,300.851 308.93,294.284 306.779,291.347 L306.789,291.352 C308.952,294.313 313.076,300.886 315.435,310.583" fill="#25180E" id="path15385"/>
    <path d="M291.519,284.959 L270.951,286.39 C269.658,287.575 268.548,288.943 267.742,290.599 C266.306,293.548 265.299,296.706 264.62,299.988 C266.271,299.292 267.949,298.695 269.656,298.256 C279.608,295.702 290.261,297.879 299.557,301.773 C305.057,304.075 310.658,306.828 315.405,310.561 C313.032,300.85 308.93,294.285 306.779,291.346 L291.519,284.959" fill="#22170D" id="path15387"/>
    <path d="M273.452,359.818 C273.452,359.818 303.119,369.708 316.812,349.738 C316.812,349.738 312.057,364.383 294.561,364.762 C280.297,364.953 273.452,359.818 273.452,359.818" fill="#2F2516" id="path15389"/>
    <path d="M297.793,98.132 L298.391,96.456 L291.699,98.601 L297.793,98.132" fill="#FFF101" id="path15391"/>
    <path d="M136.829,386.449 C136.829,386.449 149.903,395.101 169.323,381.835 C169.323,381.835 160.863,392.794 147.212,391.257 C142.02,390.487 136.829,386.449 136.829,386.449" fill="#2F2516" id="path15393"/>
    <path d="M359.412,271.575 L309.966,177.247 L185.208,159.75 L112.94,162.793 L58.929,241.146 L63.494,308.85 L80.99,347.646 C94.201,380.044 108.813,414.397 128.773,443.254 C131.358,446.991 134.188,450.349 137.21,453.415 C129.082,435.034 121.002,414.522 118.907,401.484 C127.022,407.064 127.528,407.064 132.093,408.583 C132.093,408.583 102.173,368.52 99.128,320.341 C96.087,272.164 106.229,240.213 106.229,240.213 C106.229,240.213 145.903,316.546 174.777,339.283 C174.918,339.394 175.314,339.75 175.2,339.613 C153.393,313.242 150.015,269.533 150.015,269.533 C150.015,269.533 196.248,339.583 248.555,360.6 C248.555,360.6 209.793,277.47 222.869,217.225 C222.869,217.225 261.629,271.399 284.046,286.812 C284.046,286.812 267.702,246.18 269.103,214.891 C287.784,234.505 327.001,284.941 331.205,311.095 C335.408,337.248 321.864,393.756 309.255,412.435 C322.332,400.761 334.007,388.618 339.611,372.273 C339.611,372.273 339.812,379.132 338.891,386.754 C342.978,376.702 346.697,366.396 350.283,356.014 L359.412,271.575" fill="#DCB38B" id="path15395"/>
    <path d="M340.056,374.098 C340.979,382.309 329.739,390.309 314.952,391.968 C300.168,393.627 287.435,388.314 286.515,380.106 C285.594,371.895 296.833,363.895 311.619,362.238 C326.402,360.579 339.135,365.89 340.056,374.098" fill="#F0AA98" id="path15397"/>
    <path d="M151.556,402.987 C152.369,410.234 144.111,417.111 133.11,418.345 C122.109,419.578 112.533,414.703 111.72,407.455 C110.907,400.207 119.165,393.333 130.166,392.098 C141.166,390.863 150.743,395.738 151.556,402.987" fill="#F0AA98" id="path15399"/>
    <path d="M143.541,269.533 C143.541,269.533 189.773,339.583 242.079,360.6 C242.079,360.6 203.319,277.47 216.395,217.225 C216.395,217.225 255.155,271.399 277.572,286.812 C277.572,286.812 261.227,246.18 262.628,214.891 C281.31,234.505 320.538,284.941 324.741,311.095 C328.944,337.247 315.402,393.756 302.792,412.435 C315.869,400.761 327.544,388.618 333.149,372.273 C333.149,372.273 333.613,388.153 329.879,398.427 C329.879,398.427 336.098,395.319 340.736,385.638 C340.854,385.39 340.973,385.138 341.088,384.883 C341.088,384.883 340.62,450.735 328.479,474.085 C328.479,474.085 361.17,422.245 370.043,333.98 C370.043,333.98 380.786,333.514 382.653,345.657 C382.653,345.657 418.242,301.579 407.083,221.956 C395.925,142.334 346.733,128.133 325.434,117.991 C309.204,103.284 247.841,69.813 171.77,91.621 C95.697,113.428 43.969,180.37 28.248,207.756 C12.526,235.142 -14.86,324.398 9.99,375.114 C8.975,344.178 12.018,331.5 21.654,318.313 C26.219,348.235 35.347,369.535 55.633,390.834 C75.919,412.134 91.132,425.827 96.204,443.577 L96.712,424.813 C96.712,424.813 117.504,471.976 149.961,493.778 C149.961,493.778 116.998,429.885 112.434,401.484 C120.547,407.064 121.055,407.064 125.619,408.583 C125.619,408.583 95.698,368.519 92.655,320.341 C89.612,272.164 99.755,240.213 99.755,240.213 C99.755,240.213 139.43,316.546 168.302,339.283 C168.444,339.394 168.84,339.75 168.726,339.613 C146.92,313.242 143.541,269.533 143.541,269.533" fill="#6E5032" id="path15401"/>
    <path d="M76.426,301.623 C93.542,266.25 128.915,284.127 128.915,284.127 C128.915,284.127 115.032,272.716 99.247,276.9 C83.462,281.085 76.426,301.623 76.426,301.623" fill="#63492D" id="path15403"/>
    <path d="M223.964,256.69 C233.423,250.632 242.927,245.029 253.944,242.326 C264.999,239.612 276.443,239.716 287.667,241.206 C294.452,242.107 301.266,243.321 307.941,244.834 C309.152,245.11 310.358,245.383 311.532,245.784 C300.014,241.594 288.018,238.567 275.913,236.7 C257.456,233.851 240.995,241.425 227.396,253.621 C226.284,254.619 225.231,255.879 223.964,256.69" fill="#63492D" id="path15405"/>
    <path d="M241.5,313.414 C244.643,307.703 249.665,302.923 254.665,298.838 C278.824,279.1 313.522,290.954 327.96,316.462 C330.388,320.754 333.69,327.324 333.548,332.432 C333.945,318.106 329.44,301.687 318.957,291.504 C305.552,278.48 284.337,273.328 266.417,278.711 C261.498,280.189 256.32,282.562 252.078,285.476 C242.369,292.142 235.215,301.512 234.908,313.669 C234.908,313.669 236.684,308.089 242.262,304.033 C242.262,304.033 241.343,308.319 241.5,313.414" fill="#292014" id="path15407"/>
    <path d="M250.25,288.691 C250.25,288.691 230.28,294.207 221.723,284.697 C221.723,284.697 231.231,295.156 246.446,292.684 L250.25,288.691" fill="#292014" id="path15409"/>
    <path d="M304.871,315.606 C307.002,329.92 302.423,342.46 294.651,343.617 C286.875,344.775 278.849,334.107 276.72,319.794 C274.59,305.479 279.167,292.938 286.94,291.781 C294.714,290.625 302.739,301.29 304.871,315.606" fill="#1E1308" id="path15411"/>
    <path d="M317.376,333.67 C316.377,336.097 311.862,336.54 307.291,334.659 C302.725,332.779 299.83,329.289 300.829,326.862 C301.83,324.433 306.342,323.991 310.909,325.87 C315.478,327.751 318.375,331.243 317.376,333.67" fill="#FFFFFE" id="path15413"/>
    <path d="M103.837,360.009 C103.837,360.009 131.125,390.239 147.711,389.437 L164.565,385.423 L169.323,381.835 C169.323,381.835 172.325,339.409 158.948,330.312 C158.948,330.312 133.8,319.342 133.266,320.144 C132.73,320.949 112.666,326.031 112.666,326.031 L103.301,334.058 L99.289,344.491 L103.837,360.009" fill="#FFFFFE" id="path15415"/>
    <path d="M146.251,389.334 C143.284,386.682 140.93,383.182 138.61,379.989 C129.557,367.515 121.548,349.06 124.449,333.301 C125.461,327.807 129.664,324.352 134.136,321.462 L151.827,324.538 C151.827,324.538 163.748,333.574 167.592,354.34 C171.438,375.105 166.439,384.142 166.439,384.142 L156.825,389.142 L149.134,390.103 L146.251,389.334" fill="#2D1E13" id="path15417"/>
    <path d="M151.827,324.538 L140.545,322.576 C145.853,324.687 152.721,327.622 156.381,329.2 C153.795,326.052 151.827,324.538 151.827,324.538" fill="#2D1E13" id="path15419"/>
    <path d="M159.303,330.565 C159.3,330.562 159.297,330.56 159.294,330.557 C159.297,330.559 159.3,330.562 159.303,330.565 M159.228,330.508 C159.219,330.502 159.209,330.494 159.2,330.488 C159.209,330.496 159.219,330.502 159.228,330.508 M159.15,330.452 C159.138,330.443 159.126,330.436 159.114,330.427 C159.126,330.436 159.138,330.443 159.15,330.452 M159.069,330.395 C159.056,330.386 159.044,330.377 159.03,330.368 C159.042,330.377 159.056,330.386 159.069,330.395 M158.934,330.305 C158.931,330.305 158.93,330.304 158.927,330.302 C158.93,330.304 158.931,330.305 158.934,330.305" fill="#574127" id="path15421"/>
    <path d="M158.588,330.156 C158.169,329.974 157.407,329.643 156.402,329.209 C157.406,329.641 158.167,329.973 158.588,330.156" fill="#BAA485" id="path15423"/>
    <path d="M158.924,330.301 C158.877,330.281 158.762,330.23 158.588,330.155 C158.762,330.23 158.876,330.28 158.924,330.301" fill="#574127" id="path15425"/>
    <path d="M163.691,335.982 C162.489,335.406 161.265,334.846 160.031,334.303 C158.777,332.28 157.53,330.586 156.402,329.209 C157.407,329.643 158.169,329.974 158.588,330.156 C158.762,330.231 158.877,330.282 158.924,330.301 C158.925,330.303 158.927,330.303 158.927,330.303 C158.93,330.304 158.931,330.306 158.934,330.306 C158.943,330.31 158.948,330.312 158.948,330.312 C158.976,330.331 159.003,330.349 159.03,330.369 C159.044,330.378 159.055,330.387 159.069,330.396 C159.084,330.406 159.099,330.417 159.114,330.427 C159.126,330.436 159.138,330.444 159.15,330.453 C159.167,330.465 159.183,330.477 159.2,330.489 C159.208,330.495 159.219,330.502 159.228,330.508 C159.249,330.525 159.272,330.541 159.294,330.558 C159.297,330.561 159.3,330.562 159.303,330.565 C161.039,331.851 162.48,333.724 163.691,335.982" fill="#BBBCBB" id="path15427"/>
    <path d="M160.03,334.303 C160.023,334.3 160.015,334.297 160.008,334.293 C158.749,332.268 157.511,330.577 156.381,329.2 C156.387,329.203 156.394,329.206 156.402,329.209 C157.53,330.586 158.776,332.28 160.03,334.303" fill="#25180E" id="path15429"/>
    <path d="M103.84,360.012 C103.84,360.012 103.839,360.01 103.839,360.01 C103.839,360.01 103.84,360.012 103.84,360.012 M103.838,360.009 C103.837,360.009 103.837,360.009 103.837,360.009 L99.289,344.491 L103.837,360.009 C103.837,360.009 103.837,360.009 103.838,360.009" fill="#A5886A" id="path15431"/>
    <path d="M133.266,320.145 C133.284,320.118 133.334,320.103 133.412,320.103 C133.413,320.103 133.414,320.103 133.415,320.103 C133.414,320.103 133.413,320.103 133.412,320.103 C133.334,320.103 133.285,320.118 133.266,320.145 M133.523,320.11 C133.523,320.11 133.522,320.11 133.521,320.11 C133.522,320.11 133.523,320.11 133.523,320.11 M133.505,320.109 C133.503,320.109 133.502,320.109 133.5,320.107 C133.502,320.109 133.503,320.109 133.505,320.109 M133.483,320.107 C133.483,320.106 133.483,320.106 133.482,320.106 C133.483,320.106 133.483,320.106 133.483,320.107 M133.465,320.106 C133.463,320.106 133.461,320.104 133.459,320.104 C133.461,320.104 133.463,320.106 133.465,320.106 M133.449,320.104 C133.447,320.104 133.444,320.104 133.442,320.104 C133.444,320.104 133.447,320.104 133.449,320.104 M133.433,320.104 C133.431,320.104 133.429,320.104 133.427,320.104 C133.429,320.104 133.431,320.104 133.433,320.104" fill="#BAA485" id="path15433"/>
    <path d="M107.24,363.588 C105.164,361.471 103.913,360.091 103.84,360.012 C103.84,360.012 103.839,360.01 103.839,360.01 C103.839,360.01 103.838,360.01 103.838,360.009 C103.837,360.009 103.837,360.009 103.837,360.009 L99.289,344.491 L103.301,334.059 L112.666,326.031 C112.666,326.031 132.73,320.949 133.266,320.145 C133.285,320.118 133.334,320.103 133.412,320.103 C133.413,320.103 133.414,320.103 133.415,320.103 C133.419,320.103 133.423,320.103 133.427,320.104 C133.429,320.104 133.431,320.104 133.432,320.104 C133.436,320.104 133.439,320.104 133.442,320.104 C133.444,320.104 133.447,320.104 133.449,320.104 C133.452,320.104 133.456,320.104 133.459,320.104 C133.461,320.104 133.463,320.106 133.465,320.106 C133.471,320.106 133.476,320.106 133.482,320.106 C133.483,320.106 133.483,320.106 133.483,320.107 C133.489,320.107 133.494,320.107 133.5,320.107 C133.502,320.109 133.503,320.109 133.505,320.109 C133.51,320.109 133.516,320.109 133.521,320.11 C133.522,320.11 133.523,320.11 133.523,320.11 C134.367,320.203 137.131,321.219 140.542,322.576 L134.136,321.462 C134.105,321.483 134.074,321.502 134.042,321.523 C134.025,321.534 134.008,321.544 133.991,321.556 C133.98,321.562 133.969,321.57 133.958,321.577 C130.384,323.904 127.008,326.604 125.328,330.435 C115.581,333.859 107.926,341.665 106.947,353.568 C106.679,356.826 106.791,360.276 107.24,363.588" fill="#BBBCBB" id="path15435"/>
    <path d="M125.328,330.435 C127.008,326.604 130.384,323.903 133.958,321.577 C130.396,323.896 127.06,326.607 125.375,330.418 C125.36,330.423 125.343,330.429 125.328,330.435 M140.545,322.576 L134.136,321.462 L140.542,322.576 C140.543,322.576 140.544,322.576 140.545,322.576 M133.991,321.556 C134.008,321.544 134.025,321.534 134.042,321.523 C134.025,321.534 134.008,321.544 133.991,321.556" fill="#25180E" id="path15437"/>
    <path d="M145.858,329.419 C150.609,330.522 155.4,332.268 160.008,334.294 C158.749,332.268 157.511,330.575 156.381,329.2 C152.72,327.622 145.853,324.687 140.545,322.576 L134.137,321.462 C130.508,323.806 127.088,326.542 125.375,330.416 C131.739,328.191 138.989,327.825 145.858,329.419" fill="#22170D" id="path15439"/>
    <path d="M100.514,331.587 C100.514,331.587 81.364,339.488 71.713,331.09 C71.713,331.09 82.423,340.316 97.223,336.013 L100.514,331.587" fill="#292014" id="path15441"/>
    <path d="M105.497,363.256 C103.825,358.031 97.345,343.189 110.932,331.902 C124.52,320.614 149.813,320.197 164.027,335.457 C164.027,335.457 149.603,312.043 125.355,314.342 C101.108,316.643 92.328,328.975 92.119,340.054 C91.911,351.133 105.497,363.256 105.497,363.256" fill="#292014" id="path15443"/>
    <path d="M158.876,346.463 C162.104,358.933 159.473,370.393 153.005,372.069 C146.536,373.742 138.678,364.99 135.452,352.525 C132.225,340.057 134.854,328.594 141.322,326.92 C147.792,325.246 155.649,333.996 158.876,346.463" fill="#1E1308" id="path15445"/>
    <path d="M170.21,361.006 C169.302,363.207 165.21,363.609 161.064,361.903 C156.921,360.198 154.296,357.031 155.202,354.829 C156.108,352.627 160.202,352.225 164.346,353.931 C168.491,355.638 171.116,358.804 170.21,361.006" fill="#FFFFFE" id="path15447"/>
    <path d="M440.112,538.986 C438.342,539.757 436.673,541 435.383,542.272 C433.514,544.119 433.871,545.874 434.175,548.308 C434.642,552.031 434.841,555.787 434.795,559.539 C434.729,564.723 429.686,581.551 425.579,569.411 C424.451,566.078 423.896,562.583 423.03,559.183 C421.148,551.8 416.046,546.352 418.317,538.275 C419.702,533.367 423.638,529.635 427.028,526.051 C430.25,522.645 432.959,518.721 436.37,515.502 C438.281,513.697 440.721,512.245 443.331,511.731 C441.129,511.918 438.611,512.211 436.542,512.998 C432.614,514.497 430.232,517.713 427.718,520.908 C422.403,527.662 414.251,534.193 414.81,543.645 C415.07,548.017 417.836,552.411 419.454,556.383 C420.645,559.302 421.074,562.555 421.83,565.6 C422.685,569.046 423.593,573.937 427.392,575.255 C436.926,578.56 437.727,563.265 437.673,557.799 C437.633,553.645 437.172,549.474 436.511,545.374 C436.221,543.573 442.952,539.44 444.543,538.123 C444.176,538.427 442.719,538.228 442.163,538.335 C441.476,538.466 440.786,538.692 440.112,538.986" fill="#DCB38B" id="path15449"/>
    <path d="M421.193,561.952 C420.488,563.85 419.337,565.653 417.459,566.526 C413.354,568.44 404.724,543.879 403.265,540.622 C400.671,534.846 398.019,529.842 399.698,523.392 C400.881,518.839 404.357,514.482 406.685,510.45 C410.718,503.47 415.706,496.174 423.842,493.774 C420.269,494.827 416.547,495.34 413.343,497.359 C408.459,500.436 405.657,505.695 402.914,510.58 C401.711,512.724 400.563,514.896 399.348,517.033 C392.318,529.437 402.44,542.53 407.358,554.101 C409.203,558.444 418.79,576.877 423.708,563.667 C423.879,563.203 421.208,561.913 421.193,561.952" fill="#DCB38B" id="path15451"/>
    <path d="M398.835,538.615 C398.798,542.373 398.327,544.554 396.555,547.909 C393.513,553.674 382.794,533.166 381.59,530.976 C378.345,525.081 376.854,521.085 378.257,514.522 C379.287,509.712 382.126,505.185 384.552,500.982 C387.225,496.354 390.389,492.054 393.815,487.963 C399.224,481.503 403.859,478.143 413.064,482.023 C413.471,482.193 416.03,482.85 414.873,482.362 C406.245,478.725 399.597,477.886 392.61,485.311 C382.757,495.778 369.576,513.531 377.421,528.037 C381.288,535.185 385.827,548.56 394.931,550.338 C401.348,551.589 401.715,541.939 401.755,537.582 C401.762,537.033 399.399,535.311 399.399,535.455 L398.835,538.615" fill="#DCB38B" id="path15453"/>
    <path d="M423.842,514.443 C417.963,518.023 413.403,527.659 418.236,533.791 C418.773,534.472 420.347,533.271 419.734,532.494 C414.921,526.383 422.028,516.046 427.349,512.8 C429.038,511.771 424.662,513.942 423.842,514.443" fill="#DCB38B" id="path15455"/>
    <path d="M398.637,524.106 C396.79,522.181 397.733,517.173 398.159,514.867 C399.22,509.131 401.91,501.849 406.589,498.051 C400.073,503.343 391.009,516.159 398.637,524.106" fill="#DCB38B" id="path15457"/>
    <path d="M399.558,603.136 C385.874,606.023 377.37,602.479 372.807,599.239 C375.569,604.174 381.663,615.815 385.425,628.624 C384.98,608.428 396.182,604.005 399.558,603.136" fill="#DCB38B" id="path15459"/>
    <path d="M399.558,603.136 C399.878,603.069 400.188,603.012 400.514,602.937 C400.514,602.937 400.155,602.983 399.558,603.136" fill="#DCB38B" id="path15461"/>
    <path d="M101.74,243.957 C103.529,247.29 106.448,252.649 110.181,259.216 C135.221,254.469 165.27,243.828 201.182,224.254 C201.182,224.254 149.225,243.007 101.74,243.957" fill="#826848" id="path15463"/>
    <path d="M28.182,207.871 C23.969,215.242 18.928,227.029 14.281,241.311 C29.104,253.483 54.56,265.714 95.187,261.442 C96.441,253.465 97.801,247.524 98.708,243.987 C66.874,244.104 37.627,235.786 28.182,207.871" fill="#826848" id="path15465"/>
    <path d="M440.435,230.053 C440.435,230.053 476.291,227.686 503.544,195.984 C499.332,189.594 495.084,183.226 490.812,176.872 C486.659,192.054 474.335,212.518 440.435,230.053" fill="#826848" id="path15467"/>
    <path d="M246.748,738.655 C246.748,738.655 325.647,751.054 396.659,713.859 C396.659,713.859 344.81,773.596 246.748,738.655" fill="#C23E35" id="path15469"/>
  </g>
</svg>
