<?xml version="1.0" encoding="UTF-8" standalone="no"?>
<!-- Created with Inkscape (http://www.inkscape.org/) -->

<svg
   xmlns:dc="http://purl.org/dc/elements/1.1/"
   xmlns:cc="http://creativecommons.org/ns#"
   xmlns:rdf="http://www.w3.org/1999/02/22-rdf-syntax-ns#"
   xmlns:svg="http://www.w3.org/2000/svg"
   xmlns="http://www.w3.org/2000/svg"
   xmlns:xlink="http://www.w3.org/1999/xlink"
   xmlns:sodipodi="http://sodipodi.sourceforge.net/DTD/sodipodi-0.dtd"
   xmlns:inkscape="http://www.inkscape.org/namespaces/inkscape"
   width="233.7869"
   height="253.13564"
   id="svg2"
   version="1.1"
   inkscape:version="0.48.4 r9939"
   sodipodi:docname="Nouveau document 1">
  <defs
     id="defs4">
    <linearGradient
       id="linearGradient3968">
      <stop
         style="stop-color:#ffffff;stop-opacity:1;"
         offset="0"
         id="stop3970" />
      <stop
         style="stop-color:#87cdde;stop-opacity:1;"
         offset="1"
         id="stop3972" />
    </linearGradient>
    <linearGradient
       id="linearGradient3958">
      <stop
         style="stop-color:#ffffff;stop-opacity:1;"
         offset="0"
         id="stop3960" />
      <stop
         style="stop-color:#ffffff;stop-opacity:0;"
         offset="1"
         id="stop3962" />
    </linearGradient>
    <linearGradient
       id="linearGradient3936">
      <stop
         style="stop-color:#3c8fff;stop-opacity:1;"
         offset="0"
         id="stop3938" />
      <stop
         id="stop3946"
         offset="0.21726939"
         style="stop-color:#aaeeff;stop-opacity:1;" />
      <stop
         style="stop-color:#aaeeff;stop-opacity:1;"
         offset="0.77888197"
         id="stop3948" />
      <stop
         style="stop-color:#ffffff;stop-opacity:1;"
         offset="1"
         id="stop3940" />
    </linearGradient>
    <linearGradient
       id="linearGradient3926">
      <stop
         style="stop-color:#0000ff;stop-opacity:1;"
         offset="0"
         id="stop3928" />
      <stop
         style="stop-color:#000000;stop-opacity:1;"
         offset="1"
         id="stop3930" />
    </linearGradient>
    <linearGradient
       id="linearGradient3918">
      <stop
         style="stop-color:#d45500;stop-opacity:1;"
         offset="0"
         id="stop3920" />
      <stop
         style="stop-color:#f6c700;stop-opacity:1;"
         offset="1"
         id="stop3922" />
    </linearGradient>
    <linearGradient
       id="linearGradient3910">
      <stop
         style="stop-color:#000000;stop-opacity:1;"
         offset="0"
         id="stop3912" />
      <stop
         style="stop-color:#000000;stop-opacity:0;"
         offset="1"
         id="stop3914" />
    </linearGradient>
    <linearGradient
       inkscape:collect="always"
       xlink:href="#linearGradient3918"
       id="linearGradient3924"
       x1="321.79654"
       y1="418.73718"
       x2="297.80804"
       y2="388.93768"
       gradientUnits="userSpaceOnUse" />
    <linearGradient
       inkscape:collect="always"
       xlink:href="#linearGradient3926"
       id="linearGradient3932"
       x1="340.38443"
       y1="399.56454"
       x2="341.47885"
       y2="387.71719"
       gradientUnits="userSpaceOnUse" />
    <linearGradient
       inkscape:collect="always"
       xlink:href="#linearGradient3926"
       id="linearGradient3934"
       x1="337.87408"
       y1="360.27039"
       x2="340.28333"
       y2="350.16885"
       gradientUnits="userSpaceOnUse" />
    <linearGradient
       inkscape:collect="always"
       xlink:href="#linearGradient3936"
       id="linearGradient3942"
       x1="458.13391"
       y1="427.26962"
       x2="365.75549"
       y2="307.06146"
       gradientUnits="userSpaceOnUse" />
    <linearGradient
       inkscape:collect="always"
       xlink:href="#linearGradient3968"
       id="linearGradient3974"
       x1="368.30182"
       y1="358.32654"
       x2="387.62772"
       y2="365.2908"
       gradientUnits="userSpaceOnUse" />
    <filter
       inkscape:collect="always"
       id="filter4022"
       color-interpolation-filters="sRGB">
      <feGaussianBlur
         inkscape:collect="always"
         stdDeviation="3.9537878"
         id="feGaussianBlur4024" />
    </filter>
  </defs>
  <sodipodi:namedview
     id="base"
     pagecolor="#ffffff"
     bordercolor="#666666"
     borderopacity="1.0"
     inkscape:pageopacity="0.0"
     inkscape:pageshadow="2"
     inkscape:zoom="1.979899"
     inkscape:cx="106.82899"
     inkscape:cy="93.600164"
     inkscape:document-units="px"
     inkscape:current-layer="layer1"
     showgrid="false"
     fit-margin-top="0"
     fit-margin-left="0"
     fit-margin-right="0"
     fit-margin-bottom="0"
     inkscape:window-width="1871"
     inkscape:window-height="1056"
     inkscape:window-x="49"
     inkscape:window-y="24"
     inkscape:window-maximized="1" />
  <metadata
     id="metadata7">
    <rdf:RDF>
      <cc:Work
         rdf:about="">
        <dc:format>image/svg+xml</dc:format>
        <dc:type
           rdf:resource="http://purl.org/dc/dcmitype/StillImage" />
        <dc:title></dc:title>
      </cc:Work>
    </rdf:RDF>
  </metadata>
  <g
     inkscape:label="Calque 1"
     inkscape:groupmode="layer"
     id="layer1"
     transform="translate(-262.90527,-234.95613)">
    <rect
       style="fill:#00ff66;stroke:#ffffff;stroke-width:5;stroke-linecap:round;stroke-linejoin:round;stroke-miterlimit:4;stroke-opacity:1;stroke-dasharray:none"
       id="rect3094"
       width="176.42857"
       height="176.42857"
       x="291.42856"
       y="259.14789"
       ry="1.5155107e-06" />
    <path
       sodipodi:nodetypes="ccccccccccccccccscc"
       inkscape:connector-curvature="0"
       id="path3976"
       d="m 464.11607,409.95089 c -4.54947,-3.70052 -15.44983,-16.78133 -17.51339,-22.31696 2.52886,-7.56243 2.51628,-16.22312 0.5625,-23.625 7.24871,-5.28324 12.40967,-13.16693 16.5625,-21.09375 -3.7205,1.24834 -7.36421,2.83462 -11.25,3.5 12.75421,-13.3128 21.3858,-30.66696 23.84375,-49.0625 -7.23472,8.68761 -15.65655,17.4698 -27.03125,20.3125 13.13652,-25.05348 25.98261,-45.54086 26.69892,-71.63563 -14.48214,32.48721 -41.79996,46.69424 -67.57392,51.63563 -13.37006,3.20365 -26.53671,8.14629 -38.15625,15.0625 -6.545,-2.92553 -11.69659,4.5982 -14.78125,9.28125 -6.07045,9.18431 -9.72393,20.50488 -7.875,31.53125 -1.98727,7.47403 -2.85164,15.25076 -2.3125,23 -17.6248,1.40815 -33.3038,12.96466 -45.4375,25.1875 -10.46717,10.88619 -20.03931,25.23335 -18.15625,41.3125 1.0583,12.74168 5.87241,24.90895 12.8125,35.5625 14.26788,-13.49545 30.63526,-28.5339 48.02284,-37.75381 22.70847,-12.04135 49.62216,-10.75514 71.72716,-23.40244 11.04259,3.04889 28.31879,8.29327 37.73661,11.29911"
       style="fill:#000000;fill-opacity:0.30196078;stroke:none;filter:url(#filter4022)" />
    <path
       style="fill:#000000;stroke:#000000;stroke-width:5;stroke-linecap:butt;stroke-linejoin:round;stroke-miterlimit:4;stroke-opacity:1;stroke-dasharray:none"
       d="m 464.94196,410.26786 c 7.08077,-4.40203 21.05273,-8.20449 29.24554,-9.08036 -8.54801,-4.68251 -19.82302,-5.68958 -28.375,-3.96875 3.39462,-5.11621 8.46274,-8.517 12.53125,-13.09375 -9.16171,0.56207 -16.87852,5.82263 -22.875,12.1875 -4.29218,2.73156 -9.08892,-2.30889 -12.78125,-4.21875 -4.54947,-3.70052 -10.09269,-7.49562 -12.15625,-13.03125 2.52886,-7.56243 2.51628,-16.22312 0.5625,-23.625 7.24871,-5.28324 12.40967,-13.16693 16.5625,-21.09375 -3.7205,1.24834 -7.36421,2.83462 -11.25,3.5 12.75421,-13.3128 21.3858,-30.66696 23.84375,-49.0625 -7.23472,8.68761 -15.65655,17.4698 -27.03125,20.3125 13.13652,-25.05348 25.98261,-45.54086 26.69892,-71.63563 -14.48214,32.48721 -41.79996,46.69424 -67.57392,51.63563 -13.37006,3.20365 -26.53671,8.14629 -38.15625,15.0625 -6.545,-2.92553 -11.69659,4.5982 -14.78125,9.28125 -6.07045,9.18431 -9.72393,20.50488 -7.875,31.53125 -1.98727,7.47403 -2.85164,15.25076 -2.3125,23 -17.6248,1.40815 -33.3038,12.96466 -45.4375,25.1875 -10.46717,10.88619 -20.03931,25.23335 -18.15625,41.3125 1.0583,12.74168 5.87241,24.90895 12.8125,35.5625 14.26788,-13.49545 30.63526,-28.5339 48.02284,-37.75381 22.70847,-12.04135 49.62216,-10.75514 71.72716,-23.40244 11.04259,3.04889 23.67593,6.15041 33.09375,9.15625 -4.80635,0.91551 -8.19975,4.5 -11.375,7.96875 3.78259,-0.37006 9.49979,-1.46217 12.34375,-1 -6.51078,3.75893 -9.32607,11.61459 -8.40625,18.84375 4.25657,-2.98073 8.38721,-9.32719 14.09375,-8.8125 1.17116,2.15076 6.78864,-4.04714 9.78571,-4.59821"
       id="path3096"
       inkscape:connector-curvature="0"
       sodipodi:nodetypes="cccccccccccccccccccccsccccccc" />
    <path
       style="fill:#ffffff;stroke:none"
       d="m 346.4375,323.21875 c -3.0321,0 -8.92459,6.98965 -13.09375,22.71875 -2.4301,9.16812 -2.47662,16.98091 -2.09375,21.90625 2.10662,-0.0727 4.24912,0.0108 6.40625,0.25 0.1015,-0.80131 0.23437,-1.67805 0.375,-2.59375 -2.26137,-0.70184 -3.35893,-5.81983 -2.46875,-12.03125 0.9589,-6.69088 3.87615,-12.09375 6.5,-12.09375 0.67396,0 1.23045,0.35473 1.71875,1 2.41414,-9.40339 4.52239,-19.15625 2.65625,-19.15625 z"
       id="path2996"
       inkscape:connector-curvature="0" />
    <path
       style="fill:#ffffff;stroke:none"
       d="m 376.53125,319.59375 c -7.47739,0.0803 -16.95846,7.27011 -23.09375,27.5 -3.63325,11.97989 -3.20241,21.42051 -1.9375,27.78125 3.93294,3.5152 7.73024,7.33419 12.90625,8.65625 5.08657,0.0442 10.40268,0.12718 15.59375,-0.4375 3.59171,-6.28377 8.63209,-19.44082 9.4375,-29.75 0.94753,-12.12846 -2.07396,-31.25918 -9.84375,-33.34375 -0.97122,-0.26057 -1.9943,-0.41772 -3.0625,-0.40625 z"
       id="path2998"
       inkscape:connector-curvature="0" />
    <path
       style="fill:url(#linearGradient3942);fill-opacity:1;stroke:none"
       d="m 457.28125,246.46875 c -11.74944,25.01494 -36.95754,38.07883 -55.71875,42.4375 -18.76121,4.35865 -32.01976,8.44795 -44.90625,16.3125 0,0 2.08271,2.26447 3.125,9.75 0,0 -4.79816,-9.31389 -7.84375,-9.5625 -4.64292,-0.379 -9.88153,6.16073 -15.375,17.4375 -2.38318,4.89211 -3.34022,11.4238 -3.6875,17.71875 2.6781,-7.14654 5.197,-16.18026 12.84375,-19.3125 1.55195,-0.36753 2.87666,0.6732 3.28125,2.125 -0.0765,15.33862 -7.46986,29.76139 -9.34375,44.875 3.76293,0.50071 6.79682,2.41095 9.625,4.71875 -1.87264,-9.26327 4.2e-4,-19.35849 2.84375,-28.34375 3.80946,-11.29765 10.35156,-25.26788 23.59375,-27 4.41524,-0.50785 8.48349,1.83817 10.53125,5.6875 8.98507,18.17503 5.82155,40.32724 -3.03125,57.96875 -0.12047,0.57101 -0.31174,1.04119 -0.53125,1.46875 3.73073,-0.59098 7.35743,-1.59541 10.75,-3.28125 8.43749,-3.53096 13.44737,-13.19794 22.53125,-15.34375 2.54725,-0.3542 5.11626,0.45622 5.90625,3.09375 2.2791,10.97467 -2.97346,22.40803 -9.78125,30.75 -3.39702,3.53782 -7.29961,6.75038 -11.53125,9.46875 L 448,420.25 c 0,0 -15.835,-3.69625 -22.5625,3.03125 0,0 11.37214,-1.42932 14.59375,0.75 -14.49729,3.31638 -14.1875,15.34375 -14.1875,15.34375 0,0 6.24111,-5.67948 10.03125,-6.4375 3.79014,-0.75803 4.5625,2.28125 4.5625,2.28125 l 27.65625,0 0,-27.875 c 0,0 8.80489,-5.86297 18.375,-7 -11.74944,-4.45342 -24.25,0.1875 -24.25,0.1875 0,0 0.46114,-5.03969 10.03125,-13.09375 -11.55993,3.03212 -13.99835,12.25385 -19.3125,11.75 -7.4066,-0.70221 -22.19266,-13.05676 -24.65625,-19.5 1.89507,-6.06423 3.8829,-15.46315 0.1875,-24.84375 0,0 8.31341,-4.98459 14.8125,-16.84375 -7.2361,2.68003 -12.53125,2.46875 -12.53125,2.46875 0,0 19.64366,-15.71162 26.34375,-45.125 0,0 -5.37839,6.9488 -15.15625,12.5 -9.18898,5.21689 -21.40625,4.5625 -21.40625,4.5625 0,0 7.54322,-1.52597 10.15625,-3 0,0 22.42459,-36.02749 26.59375,-62.9375 z"
       id="path3000"
       inkscape:connector-curvature="0" />
    <path
       style="fill:url(#linearGradient3924);fill-opacity:1;stroke:none"
       d="m 278.77359,466.85463 c 0,0 -20.08775,-30.70015 -6.63274,-54.76756 13.455,-24.0674 39.60699,-40.1755 53.441,-41.69157 13.83402,-1.51605 18.76121,0.56852 23.30939,4.73768 4.54817,4.16916 11.37042,11.55993 19.32972,10.6124 7.9593,-0.94754 18.3822,0.75804 29.1841,-6.25373 10.80191,-7.01176 14.40253,-14.59205 21.0353,-13.26549 3.79014,0.75803 2.8426,16.1081 -6.06423,28.23656 -8.90684,12.12845 -27.85756,18.38219 -27.85756,18.38219 0,0 14.4403,-8.98235 24.08843,-28.94863 0,0 2.37557,-0.007 2.44257,3.74417 0.40201,-1.87602 2.57092,-8.40396 -0.37902,-9.85436 -3.61781,-1.77878 -9.85437,7.01175 -9.85437,7.01175 4.48906,-2.94804 5.87472,-1.51605 5.87472,-1.51605 0,0 -14.02352,24.25691 -28.42607,31.07917 -14.40254,6.82226 -41.50205,5.3062 -63.48487,21.98283 -21.98284,16.67663 -36.00637,30.51064 -36.00637,30.51064 z"
       id="path3002"
       inkscape:connector-curvature="0"
       sodipodi:nodetypes="cssssssscccsccssc" />
    <path
       style="fill:url(#linearGradient3974);fill-opacity:1;stroke:none"
       d="m 376,321.625 c -11.33415,1.80204 -16.71021,14.48743 -20.0625,24.25 -2.99542,8.98339 -4.29501,18.54174 -2.59375,27.9375 4.74201,4.86501 10.67241,9.3028 17.87487,7.73361 3.41547,-0.31968 8.41412,1.14962 9.09388,-3.48361 7.82311,-16.40815 10.65435,-36.96617 2.03125,-53.4375 -1.33649,-2.20267 -3.71679,-3.31835 -6.34375,-3 z"
       id="path3952"
       inkscape:connector-curvature="0" />
    <path
       sodipodi:type="arc"
       style="fill:#000000;stroke:none"
       id="path3004"
       sodipodi:cx="341.17902"
       sodipodi:cy="393.99527"
       sodipodi:rx="3.661803"
       sodipodi:ry="10.606602"
       d="m 344.84082,393.99527 c 0,5.85786 -1.63945,10.6066 -3.6618,10.6066 -2.02236,0 -3.66181,-4.74874 -3.66181,-10.6066 0,-5.85786 1.63945,-10.6066 3.66181,-10.6066 2.02235,0 3.6618,4.74874 3.6618,10.6066 z"
       transform="matrix(1.752876,0,-0.22115843,1.543172,-134.01824,-250.1618)" />
    <path
       transform="matrix(1.2908335,0,-0.18843682,1.2469844,10.728801,-133.37052)"
       d="m 344.84082,393.99527 c 0,5.85786 -1.63945,10.6066 -3.6618,10.6066 -2.02236,0 -3.66181,-4.74874 -3.66181,-10.6066 0,-5.85786 1.63945,-10.6066 3.66181,-10.6066 2.02235,0 3.6618,4.74874 3.6618,10.6066 z"
       sodipodi:ry="10.606602"
       sodipodi:rx="3.661803"
       sodipodi:cy="393.99527"
       sodipodi:cx="341.17902"
       id="path3006"
       style="fill:url(#linearGradient3932);fill-opacity:1;stroke:none"
       sodipodi:type="arc" />
    <path
       sodipodi:type="arc"
       style="fill:#000000;stroke:none"
       id="path3008"
       sodipodi:cx="341.17902"
       sodipodi:cy="393.99527"
       sodipodi:rx="3.661803"
       sodipodi:ry="10.606602"
       d="m 344.84082,393.99527 c 0,5.85786 -1.63945,10.6066 -3.6618,10.6066 -2.02236,0 -3.66181,-4.74874 -3.66181,-10.6066 0,-5.85786 1.63945,-10.6066 3.66181,-10.6066 2.02235,0 3.6618,4.74874 3.6618,10.6066 z"
       transform="matrix(0.60175694,0,-0.07592301,0.52976619,201.49737,149.11529)" />
    <path
       transform="matrix(0.60175694,0,-0.07592301,0.52976619,200.92884,143.71433)"
       d="m 344.84082,393.99527 c 0,5.85786 -1.63945,10.6066 -3.6618,10.6066 -2.02236,0 -3.66181,-4.74874 -3.66181,-10.6066 0,-5.85786 1.63945,-10.6066 3.66181,-10.6066 2.02235,0 3.6618,4.74874 3.6618,10.6066 z"
       sodipodi:ry="10.606602"
       sodipodi:rx="3.661803"
       sodipodi:cy="393.99527"
       sodipodi:cx="341.17902"
       id="path3010"
       style="fill:#ffffff;stroke:none"
       sodipodi:type="arc" />
    <path
       style="fill:url(#linearGradient3934);fill-opacity:1;stroke:none"
       d="m 341.875,343.78125 c -1.92942,0 -4.20756,4.4109 -5.0625,9.84375 -0.7951,5.05255 -0.091,9.19196 1.5625,9.75 0.35625,-1.98831 0.81027,-4.1144 1.40625,-6.25 0.75541,-2.70688 2.08777,-7.40289 3.40625,-12.40625 -0.35593,-0.59135 -0.78408,-0.9375 -1.3125,-0.9375 z"
       id="path3016"
       inkscape:connector-curvature="0" />
    <path
       transform="matrix(0.41169208,0,-0.05194273,0.42352015,219.78762,187.15109)"
       d="m 344.84082,393.99527 c 0,5.85786 -1.63945,10.6066 -3.6618,10.6066 -2.02236,0 -3.66181,-4.74874 -3.66181,-10.6066 0,-5.85786 1.63945,-10.6066 3.66181,-10.6066 2.02235,0 3.6618,4.74874 3.6618,10.6066 z"
       sodipodi:ry="10.606602"
       sodipodi:rx="3.661803"
       sodipodi:cy="393.99527"
       sodipodi:cx="341.17902"
       id="path3018"
       style="fill:#000000;stroke:none"
       sodipodi:type="arc" />
    <path
       sodipodi:type="arc"
       style="fill:#ffffff;stroke:none"
       id="path3020"
       sodipodi:cx="341.17902"
       sodipodi:cy="393.99527"
       sodipodi:rx="3.661803"
       sodipodi:ry="10.606602"
       d="m 344.84082,393.99527 c 0,5.85786 -1.63945,10.6066 -3.6618,10.6066 -2.02236,0 -3.66181,-4.74874 -3.66181,-10.6066 0,-5.85786 1.63945,-10.6066 3.66181,-10.6066 2.02235,0 3.6618,4.74874 3.6618,10.6066 z"
       transform="matrix(0.41169208,0,-0.05194273,0.42352015,219.39867,182.83331)" />
  </g>
</svg>
