<svg id="Layer_1" data-name="Layer 1" xmlns="http://www.w3.org/2000/svg" viewBox="0 0 263.81 289.89"><defs><style>.cls-1,.cls-3{fill:#fcd392;}.cls-1{stroke:#b98846;stroke-width:3px;}.cls-1,.cls-8{stroke-miterlimit:10;}.cls-2{fill:#d9a364;}.cls-4{fill:#b98846;}.cls-5{fill:#4280c2;}.cls-6{fill:#5d53a3;}.cls-7{fill:#231f20;}.cls-8{fill:#fff;stroke:#231f20;stroke-width:4px;}.cls-9{fill:#d32e2e;}.cls-10{fill:#6a0a21;}.cls-11{fill:#f4a6a6;}</style></defs><title>nose</title><path class="cls-1" d="M182.32,217.84l22.5,38.09s-19.42,9-31.51,31.35-15.7,48.93-15.7,48.93-44.75-19.63-46.87-29.8-6.83-32-6.83-32,13.58-6.87,33.89-27.84,26-65.77,26-65.77Z" transform="translate(-102.19 -48.49)"/><path class="cls-2" d="M182.32,217.84l-18.55-37s-5.1,40.35-23,62.39a57.06,57.06,0,0,1,17.45,25c8.38,23.43-1.32,44.81-18.14,59.69,9.44,4.85,17.51,8.39,17.51,8.39s3.6-26.6,15.7-48.93,31.51-31.35,31.51-31.35Z" transform="translate(-102.19 -48.49)"/><path class="cls-3" d="M150.53,111.41s20-31.61,58.36-29.58,89.94,13.78,83.4,72.66,6.51,66.43,3.23,79.83-25.74,56.9-42.33,55.18S175,262,168.5,246.27s-25.76-58.2-25.76-58.2-12.56-30.86-8.85-51.88S150.53,111.41,150.53,111.41Z" transform="translate(-102.19 -48.49)"/><path class="cls-4" d="M150.53,111.41a48.91,48.91,0,0,1,4-5.34,73.59,73.59,0,0,1,13.83-12.79,63.22,63.22,0,0,1,35.73-12.15c1.52-.09,3.05,0,4.61,0s3.11.14,4.7.25a177.26,177.26,0,0,1,19.91,2.35,119.56,119.56,0,0,1,21.1,5.64,88.53,88.53,0,0,1,10.52,4.81,66,66,0,0,1,9.92,6.7,50.84,50.84,0,0,1,8.55,8.91,48.41,48.41,0,0,1,6.3,11,62.59,62.59,0,0,1,4.4,25.57c0,1.1,0,2.21-.1,3.32l-.27,3.32c-.16,2.19-.4,4.38-.6,6.58s-.45,4.41-.59,6.61l-.41,6.63a192.19,192.19,0,0,0,.37,26.91,118.78,118.78,0,0,0,2,13.44c.86,4.48,2.15,8.86,2.83,13.65a22.82,22.82,0,0,1-.29,7.38l-.09.49-.11.42-.22.84-.54,1.74c-.38,1.13-.78,2.24-1.2,3.34a147.3,147.3,0,0,1-20.91,36.44,54.23,54.23,0,0,1-10.16,9.89,20.62,20.62,0,0,1-6.64,3.19,12.39,12.39,0,0,1-3.86.34H253l-.21,0-.42-.06-.85-.12c-.58-.09-1.18-.22-1.76-.33a118.81,118.81,0,0,1-13.29-3.78c-4.31-1.47-8.55-3.06-12.73-4.72q-12.52-5-24.24-11-5.84-3-11.41-6.25a110.39,110.39,0,0,1-10.69-7.08c-3.36-2.59-6.64-5.35-9-9.06-.28-.48-.52-1-.77-1.5s-.4-.95-.61-1.43l-1.16-2.81-2.34-5.53c-6.27-14.65-12.38-28.43-18-41.14l-2.1-4.72-1-2.32-.26-.58c-.11-.26-.16-.41-.25-.62l-.45-1.19c-1.16-3.14-2.18-6.25-3.1-9.3a149.93,149.93,0,0,1-4.13-17.6,87.71,87.71,0,0,1-1.32-15.85,47.92,47.92,0,0,1,2.11-13.32,37.24,37.24,0,0,1,4.53-9.88,26.69,26.69,0,0,1,5.33-6,21,21,0,0,1,4.17-2.7A10.8,10.8,0,0,1,150.53,111.41Zm0,0a10.79,10.79,0,0,0-1.56.68,20.92,20.92,0,0,0-4.08,2.78,26.43,26.43,0,0,0-5.14,6.06,38,38,0,0,0-4.26,9.84,47.22,47.22,0,0,0-1.84,13.18,86.76,86.76,0,0,0,1.59,15.64A148.66,148.66,0,0,0,139.64,177c1,3,2,6.07,3.19,9.17l.45,1.15.22.55.26.57,1.06,2.31L147,195.4c5.79,12.66,12.06,26.37,18.5,41l2.41,5.53,1.19,2.8c.2.45.39,1,.61,1.37s.4.82.65,1.22c2.08,3.18,5.24,5.86,8.53,8.31a156.92,156.92,0,0,0,21.8,13c7.73,3.89,15.78,7.48,24.06,10.77,4.14,1.64,8.35,3.2,12.61,4.63a116.55,116.55,0,0,0,12.94,3.64c.54.1,1.05.21,1.61.29l.85.11.42.06.21,0h.14a9.59,9.59,0,0,0,2.95-.28,17.86,17.86,0,0,0,5.68-2.78,51.53,51.53,0,0,0,9.55-9.39A152,152,0,0,0,292.1,240c.41-1.06.8-2.13,1.16-3.2l.5-1.57.23-.84.11-.42.06-.36a19.89,19.89,0,0,0,.27-6.41c-.6-4.38-1.88-8.88-2.75-13.43a121.62,121.62,0,0,1-2-13.75,194.86,194.86,0,0,1-.28-27.32l.44-6.72c.15-2.23.41-4.42.61-6.63s.45-4.39.62-6.57l.27-3.22c.09-1.07.07-2.15.11-3.22a61.43,61.43,0,0,0-4.07-24.59,46,46,0,0,0-5.89-10.55,48.59,48.59,0,0,0-8.1-8.62A63.86,63.86,0,0,0,263.93,96a86.56,86.56,0,0,0-10.21-4.81A117.79,117.79,0,0,0,233,85.4a185.4,185.4,0,0,0-19.7-2.57c-3.16-.26-6.22-.47-9.19-.43a62.24,62.24,0,0,0-35.42,11.35,75.59,75.59,0,0,0-14,12.42A48.88,48.88,0,0,0,150.53,111.41Z" transform="translate(-102.19 -48.49)"/><path class="cls-2" d="M292.29,158.38c6.33-57-41.85-69.83-79.71-72.44a169.05,169.05,0,0,1,28.5,24c17.69,18.43,32.26,40.85,37.27,66.19a125.62,125.62,0,0,1-6.13,69.42A131.83,131.83,0,0,1,242.67,291a63.6,63.6,0,0,0,10.52,2.39c16.59,1.72,39.05-41.79,42.33-55.18S285.75,217.26,292.29,158.38Z" transform="translate(-102.19 -48.49)"/><path class="cls-5" d="M160.58,224l-4.83-80.32s22.67-18.67,36-18,45.33,8,45.33,8l-23.41-15.33,94.41,26-18.15-18.74,51.15,14.07s-12-39.33-27.33-48.67-58.67-28.67-58.67-28.67l16.67-4.67s-22-13.33-55.33-5.33-65.33,33.33-65.33,33.33l6.67-22-25.5,30.67s-18.5,26-17.83,38.67S160.58,224,160.58,224Z" transform="translate(-102.19 -48.49)"/><path class="cls-6" d="M160.58,224l-2.77-40.14-2.71-40.14,0-.33.26-.21c2.83-2.31,5.75-4.48,8.75-6.55s6.07-4,9.27-5.8a61.31,61.31,0,0,1,10-4.55A28.5,28.5,0,0,1,188.8,125a18.9,18.9,0,0,1,2.85-.14l2.74.18c1.83.18,3.66.38,5.45.63s3.6.52,5.4.79c3.59.57,7.16,1.21,10.73,1.87q10.7,2,21.33,4.38l-.78,1.83-23.47-15.25-6-3.87,6.87,1.87,47.25,12.84,47.22,12.94-1.31,2.22L288.94,126.6,285.45,123l4.84,1.32,51.17,14-1.75,1.8c-.75-2.38-1.58-4.78-2.43-7.15s-1.76-4.73-2.71-7.07c-1.89-4.68-3.95-9.29-6.25-13.75a83.08,83.08,0,0,0-7.89-12.7,35.56,35.56,0,0,0-5-5.33,20,20,0,0,0-2.9-2.05c-1.1-.63-2.19-1.3-3.29-1.91l-3.3-1.81-3.36-1.77c-2.25-1.16-4.5-2.32-6.77-3.45-4.53-2.28-9.1-4.48-13.68-6.67q-13.75-6.54-27.64-12.8l-3.57-1.61,3.77-1,16.67-4.65L271,58.91a49.41,49.41,0,0,0-7.19-3.24,72.32,72.32,0,0,0-7.66-2.31,78.75,78.75,0,0,0-15.88-2.13,85.29,85.29,0,0,0-16,1c-2.65.38-5.3.95-7.88,1.55s-5.21,1.35-7.78,2.2A168.21,168.21,0,0,0,179,69q-7.1,3.94-13.93,8.33-3.41,2.2-6.75,4.52c-2.22,1.54-4.43,3.13-6.54,4.76l-2.92,2.25L150,85.38l6.75-22,1.87,1L133,95l0-.06c-1.73,2.44-3.39,5-5,7.52s-3.16,5.14-4.62,7.77-2.85,5.3-4.1,8a58.35,58.35,0,0,0-3.17,8.37,26.79,26.79,0,0,0-.85,4.32,16.26,16.26,0,0,0-.07,2.12l.05.57.09.5c.06.33.15.7.23,1.05a67.65,67.65,0,0,0,3,8.44c2.33,5.56,4.95,11,7.62,16.45,5.37,10.85,11,21.55,16.8,32.2S154.61,213.5,160.58,224Zm0,0q-9.24-15.65-18.14-31.49c-5.92-10.57-11.74-21.2-17.27-32-2.76-5.4-5.45-10.83-7.89-16.41a65.53,65.53,0,0,1-3.2-8.61c-.09-.39-.19-.75-.26-1.16l-.11-.62-.06-.56a17.09,17.09,0,0,1,.05-2.41,28.33,28.33,0,0,1,.86-4.59,59.92,59.92,0,0,1,3.2-8.63c1.25-2.79,2.64-5.51,4.1-8.18s3-5.29,4.61-7.88,3.26-5.13,5-7.65l0,0,0,0L156.91,63l3.4-4.12L158.78,64l-6.58,22-1.84-1.25c2.18-1.71,4.38-3.31,6.62-4.89s4.5-3.12,6.78-4.61q6.86-4.5,14-8.5a170.76,170.76,0,0,1,30-13.34c2.6-.86,5.31-1.6,7.92-2.26s5.39-1.22,8.13-1.62a88,88,0,0,1,16.52-1,81.48,81.48,0,0,1,16.43,2.17,75.07,75.07,0,0,1,8,2.38,51.53,51.53,0,0,1,7.69,3.45l2.88,1.63-3.22.91-16.66,4.69.2-2.66q13.94,6.23,27.74,12.76c4.6,2.19,9.19,4.38,13.75,6.66,2.29,1.12,4.55,2.29,6.82,3.45l3.39,1.78,3.39,1.85c1.13.62,2.2,1.27,3.31,1.91a22.36,22.36,0,0,1,3.32,2.35,38.48,38.48,0,0,1,5.41,5.79,85.92,85.92,0,0,1,8.15,13.19c2.35,4.58,4.42,9.26,6.33,14q1.43,3.56,2.73,7.17c.87,2.41,1.69,4.82,2.46,7.29l.78,2.5-2.53-.7L289.56,127l1.35-2.27L309,143.46l3.4,3.52-4.72-1.31-47.19-13.06-47.16-13.16.91-2,23.35,15.42,4.67,3.08-5.45-1.25q-10.57-2.43-21.23-4.53c-3.55-.68-7.11-1.35-10.67-1.94-1.78-.29-3.56-.58-5.35-.82s-3.56-.47-5.34-.65l-2.68-.2a17.26,17.26,0,0,0-2.58.11,26.89,26.89,0,0,0-5.13,1.19,59.78,59.78,0,0,0-9.78,4.36c-3.16,1.72-6.22,3.62-9.21,5.63s-5.92,4.14-8.73,6.37l.23-.54,2.12,40.18Z" transform="translate(-102.19 -48.49)"/><path class="cls-3" d="M163.11,204.15s1.41-11.66-9.63-14.42,0,24.57,0,24.57l9.63,8.67" transform="translate(-102.19 -48.49)"/><path class="cls-7" d="M163.11,204.15a18.3,18.3,0,0,0-1.18-5.74c-.16-.45-.39-.87-.58-1.3l-.7-1.22c-.28-.37-.55-.75-.83-1.11s-.63-.67-1-1l-1.05-.86-1.16-.7a13,13,0,0,0-2.53-1l-.66-.19-.16,0-.08,0h-.05l.08,0h0l-.37-.06-.37-.06a.77.77,0,0,0-.3,0c-.15,0-.29,0-.43,0a1.49,1.49,0,0,0-1.21,1,6,6,0,0,0-.48,2.3,18.05,18.05,0,0,0,.13,2.75c.11.93.23,1.88.41,2.83s.37,1.9.6,2.84c.47,1.89.94,3.8,1.51,5.68s1.12,3.79,1.76,5.63l-.28-.39c.78.75,1.52,1.54,2.28,2.31s1.51,1.54,2.25,2.34c1.49,1.57,3,3.17,4.38,4.81-1.79-1.24-3.53-2.53-5.24-3.85-.87-.65-1.71-1.32-2.56-2s-1.71-1.33-2.53-2l-.16-.13-.11-.26c-.82-1.86-1.61-3.7-2.28-5.61s-1.33-3.82-1.82-5.79c-.26-1-.49-2-.69-3a29.86,29.86,0,0,1-.48-3.08,20.92,20.92,0,0,1-.08-3.22,8.66,8.66,0,0,1,.86-3.47,4.4,4.4,0,0,1,1.41-1.61,5.06,5.06,0,0,1,1-.5,7.7,7.7,0,0,1,1-.21,8.38,8.38,0,0,1,1.06,0,2,2,0,0,1,.44.06l.37.08.37.08h0l.11,0h0l0,0,.1,0,.19.07.77.27a7.69,7.69,0,0,1,1.49.63c.48.27,1,.49,1.42.8l1.32,1,1.16,1.15c.34.42.66.87,1,1.3s.53.93.79,1.4.43,1,.6,1.47.31,1,.4,1.52A14.86,14.86,0,0,1,163.11,204.15Z" transform="translate(-102.19 -48.49)"/><path class="cls-3" d="M271.7,204.85a16,16,0,0,0-1,5.25c0,2.75,5.25,3.41,5.25,3.41l-4,6.91" transform="translate(-102.19 -48.49)"/><path class="cls-4" d="M271.7,204.85c0,1.08,0,2.08,0,3.07,0,.49,0,1,.09,1.43l.08.69c0-.14.11.59.17.4,0,0,.11.07.18.15a3.06,3.06,0,0,0,.36.26,5.12,5.12,0,0,0,1,.5,12.25,12.25,0,0,0,1.23.41l.65.17.63.14,2.19.44-1.12,1.72a35.57,35.57,0,0,1-2.36,3.24c-.44.52-.87,1-1.36,1.52a15.6,15.6,0,0,1-1.53,1.42,15.6,15.6,0,0,1,.47-2c.18-.66.41-1.3.64-1.94a35.56,35.56,0,0,1,1.64-3.67l1.07,2.16c-.33,0-.58-.07-.87-.12s-.55-.11-.82-.18a9.44,9.44,0,0,1-1.63-.57,7.56,7.56,0,0,1-.81-.42,5.73,5.73,0,0,1-.79-.58,5.34,5.34,0,0,1-.73-.79,3.77,3.77,0,0,1-.54-1.18c0-.12-.06-.24-.08-.36V210c0-.28.07-.55.14-.82a10,10,0,0,1,.46-1.57A9.19,9.19,0,0,1,271.7,204.85Z" transform="translate(-102.19 -48.49)"/><circle class="cls-8" cx="119.97" cy="137.15" r="27.15"/><circle class="cls-8" cx="193.26" cy="133.51" r="24.75"/><path class="cls-9" d="M287,228H249.3l-21.57,64.5s22.77,11,34.77,11H290s-8.5-27-7.5-37.75S287,228,287,228Z" transform="translate(-102.19 -48.49)"/><path class="cls-10" d="M287,228l-9.42.36-9.42.3c-6.28.16-12.56.35-18.85.47l1.07-.77c-1.69,5.41-3.36,10.83-5.09,16.23l-5.16,16.2L234.88,277c-1.74,5.4-3.52,10.77-5.31,16.15l-1-2.37c2.36,1.11,4.81,2.19,7.24,3.2s4.9,2,7.39,2.89c1.24.46,2.49.87,3.73,1.32s2.49.84,3.75,1.19l1.88.55,1.89.48c.63.17,1.26.3,1.89.42s1.26.28,1.89.36l1.88.26c.62.07,1.23.07,1.85.12,1.24.06,2.65,0,4,0l8,0,16,.15L288.33,304c-.93-3.1-1.79-6.18-2.58-9.3s-1.53-6.24-2.2-9.39c-.33-1.58-.65-3.15-.94-4.74s-.55-3.18-.78-4.79l-.3-2.42-.2-2.44a35,35,0,0,1,0-5c.15-1.63.37-3.19.57-4.79l.65-4.76,1.38-9.49,1.48-9.47Zm0,0-1.72,19.1-.87,9.54L284,261.4c-.13,1.57-.28,3.19-.36,4.75a32.86,32.86,0,0,0,.19,4.59l.29,2.33.39,2.33c.29,1.55.57,3.1.91,4.65s.69,3.09,1.06,4.63q1.14,4.62,2.46,9.2c.89,3,1.78,6.11,2.74,9.11l.72,2.25-2.39,0-16,.15-8,0c-1.36,0-2.63,0-4.06,0-.72,0-1.45-.05-2.16-.13l-2.09-.28c-.7-.09-1.37-.25-2.05-.38s-1.36-.26-2-.44l-2-.49-2-.56c-1.32-.36-2.6-.81-3.9-1.21s-2.57-.87-3.84-1.35c-2.55-.93-5-2-7.54-3s-4.94-2.15-7.41-3.33l-1.55-.74.55-1.63c1.81-5.37,3.62-10.74,5.48-16.1l5.54-16.08,5.63-16c1.86-5.35,3.79-10.68,5.7-16l.28-.78h.79c6.28.12,12.56.31,18.85.47l9.42.3Z" transform="translate(-102.19 -48.49)"/><path class="cls-11" d="M249.3,254.29a40,40,0,0,0-7.51-3.83l-14.06,42s22.77,11,34.77,11h2.64a38.55,38.55,0,0,0,2.61-10.43A40.82,40.82,0,0,0,249.3,254.29Z" transform="translate(-102.19 -48.49)"/><path class="cls-10" d="M249.3,254.29a38,38,0,0,0-7.53-3.78l.08,0c-1.13,3.52-2.19,7.06-3.29,10.59l-3.12,10.64-3.06,10.66c-1,3.56-2.06,7.1-3.11,10.65l-.84-2,4.47,1.89c1.5.62,3,1.22,4.53,1.79s3,1.16,4.55,1.71,3,1.09,4.57,1.61l2.3.74c.76.26,1.53.48,2.3.7s1.54.45,2.31.64,1.54.43,2.31.58,1.54.34,2.31.48l2.3.37,2.28.17,2.46.06-1.61,1.08a39.65,39.65,0,0,0,2.16-6.34c.27-1.09.49-2.2.66-3.31s.3-2.3.4-3.41.16-2.22.1-3.36l0-1.71c0-.57-.1-1.13-.14-1.7-.07-1.14-.29-2.26-.46-3.4s-.48-2.24-.76-3.36-.64-2.22-1.09-3.27l-.63-1.61c-.23-.53-.49-1-.73-1.57a32.27,32.27,0,0,0-1.65-3.05c-.6-1-1.27-1.95-1.93-2.9s-1.39-1.87-2.19-2.72L256,259.84c-.41-.41-.84-.81-1.26-1.21a32.62,32.62,0,0,0-2.64-2.29C251.23,255.61,250.24,255,249.3,254.29Zm0,0c.95.68,1.94,1.3,2.85,2s1.84,1.44,2.68,2.25c.43.4.87.78,1.29,1.18l1.21,1.26c.85.81,1.55,1.75,2.33,2.62s1.43,1.86,2.09,2.83,1.3,2,1.85,3c.29.51.59,1,.86,1.54l.76,1.6c.55,1.05.91,2.18,1.37,3.27s.78,2.24,1.08,3.39.61,2.3.79,3.48c.1.59.22,1.18.31,1.77l.19,1.78c.17,1.18.14,2.41.2,3.63s0,2.29-.11,3.57-.24,2.4-.45,3.6a36.44,36.44,0,0,1-1.89,7l-.41,1.05-1.2,0-2.46.06c-.85,0-1.75,0-2.63-.07l-2.57-.28c-.85-.13-1.67-.3-2.51-.45s-1.64-.37-2.47-.55-1.63-.42-2.43-.65c-1.62-.44-3.2-1-4.78-1.49s-3.14-1.1-4.68-1.71c-.78-.29-1.54-.61-2.31-.92s-1.53-.63-2.29-1q-2.28-1-4.52-2c-1.5-.7-3-1.4-4.47-2.19l-1.32-.7.48-1.29c1.3-3.46,2.59-6.93,3.93-10.37l4-10.36L238,260.87c1.25-3.48,2.53-6.94,3.74-10.43l0-.06.06,0A42.39,42.39,0,0,1,249.3,254.29Z" transform="translate(-102.19 -48.49)"/><path class="cls-10" d="M275.95,213.52s27.55,1.4,38.55,9.44,13,20,22,18,8.5-14.5,16.5-8.5,6,12,0,15.5-18.5,6.91-22,2.45-11.1-2.55-10.8,0,12.3,3.54,8.8,8-19,6-18.5,0-4.5-9.5-3-15-.5-13.5-8.5-11-24.58-16.34-24.58-16.34Z" transform="translate(-102.19 -48.49)"/><ellipse class="cls-10" cx="256.81" cy="172.03" rx="7" ry="3.52"/><circle class="cls-10" cx="249.45" cy="217.6" r="3.64"/><path class="cls-10" d="M265.67,217s-8,6.59-11.33,6-14.67-7.59-15.33-2.44S241.67,233,239,235s-8.67,5.33-6,7.33,13.73.64,14.87-4.35-1.53-.35,5.13,0S265.67,217,265.67,217Z" transform="translate(-102.19 -48.49)"/><ellipse class="cls-10" cx="227.73" cy="254.22" rx="7.36" ry="4.7" transform="translate(-208.49 275.84) rotate(-60)"/><polygon class="cls-6" points="134.89 85.23 91.31 77.35 109.06 74.26 134.89 85.23"/><path class="cls-6" d="M218.78,119.8l-31.53-11s41.25,1.5,60.75,9,61.25,28,61.25,28Z" transform="translate(-102.19 -48.49)"/><path class="cls-6" d="M339.13,139.19l-49.21-13.54L267.25,111l23,11.75s16-.75,31,4.5S339.13,139.19,339.13,139.19Z" transform="translate(-102.19 -48.49)"/><polygon class="cls-6" points="59.53 90.7 53.55 95.23 56.31 141.04 49.48 97.26 42.48 90.7 51.01 92.18 59.53 90.7"/></svg>