<?xml version="1.0" encoding="UTF-8" standalone="no"?>
<!-- Created with Inkscape (http://www.inkscape.org/) -->

<svg
   xmlns:dc="http://purl.org/dc/elements/1.1/"
   xmlns:cc="http://creativecommons.org/ns#"
   xmlns:rdf="http://www.w3.org/1999/02/22-rdf-syntax-ns#"
   xmlns:svg="http://www.w3.org/2000/svg"
   xmlns="http://www.w3.org/2000/svg"
   xmlns:xlink="http://www.w3.org/1999/xlink"
   xmlns:sodipodi="http://sodipodi.sourceforge.net/DTD/sodipodi-0.dtd"
   xmlns:inkscape="http://www.inkscape.org/namespaces/inkscape"
   width="472.61005"
   height="433.5816"
   id="svg2"
   version="1.1"
   inkscape:version="0.48.4 r9939"
   sodipodi:docname="AvatarLapin01.svg">
  <defs
     id="defs4">
    <linearGradient
       id="linearGradient3969">
      <stop
         style="stop-color:#b3d8ff;stop-opacity:1;"
         offset="0"
         id="stop3971" />
      <stop
         style="stop-color:#ffffff;stop-opacity:1;"
         offset="1"
         id="stop3973" />
    </linearGradient>
    <linearGradient
       id="linearGradient3957">
      <stop
         style="stop-color:#980101;stop-opacity:1;"
         offset="0"
         id="stop3959" />
      <stop
         style="stop-color:#2f0000;stop-opacity:1;"
         offset="1"
         id="stop3961" />
    </linearGradient>
    <linearGradient
       id="linearGradient3949">
      <stop
         style="stop-color:#ff9bff;stop-opacity:1;"
         offset="0"
         id="stop3951" />
      <stop
         style="stop-color:#fff4ff;stop-opacity:1;"
         offset="1"
         id="stop3953" />
    </linearGradient>
    <linearGradient
       id="linearGradient3904">
      <stop
         style="stop-color:#ffff99;stop-opacity:1;"
         offset="0"
         id="stop3906" />
      <stop
         style="stop-color:#e5e547;stop-opacity:1;"
         offset="1"
         id="stop3908" />
    </linearGradient>
    <linearGradient
       id="linearGradient3859">
      <stop
         style="stop-color:#fdca01;stop-opacity:1;"
         offset="0"
         id="stop3861" />
      <stop
         style="stop-color:#fda201;stop-opacity:1;"
         offset="1"
         id="stop3863" />
    </linearGradient>
    <linearGradient
       id="linearGradient3851">
      <stop
         style="stop-color:#fdca01;stop-opacity:1;"
         offset="0"
         id="stop3853" />
      <stop
         style="stop-color:#fcfe76;stop-opacity:1;"
         offset="1"
         id="stop3855" />
    </linearGradient>
    <linearGradient
       id="linearGradient3843">
      <stop
         style="stop-color:#013397;stop-opacity:1;"
         offset="0"
         id="stop3845" />
      <stop
         style="stop-color:#000000;stop-opacity:1;"
         offset="1"
         id="stop3847" />
    </linearGradient>
    <linearGradient
       inkscape:collect="always"
       id="linearGradient3824">
      <stop
         style="stop-color:#ffffff;stop-opacity:1;"
         offset="0"
         id="stop3826" />
      <stop
         style="stop-color:#ffffff;stop-opacity:0;"
         offset="1"
         id="stop3828" />
    </linearGradient>
    <linearGradient
       id="linearGradient3816">
      <stop
         style="stop-color:#000000;stop-opacity:1;"
         offset="0"
         id="stop3818" />
      <stop
         style="stop-color:#000000;stop-opacity:0;"
         offset="1"
         id="stop3820" />
    </linearGradient>
    <linearGradient
       id="linearGradient3803">
      <stop
         style="stop-color:#ffff99;stop-opacity:1;"
         offset="0"
         id="stop3805" />
      <stop
         style="stop-color:#ffc763;stop-opacity:1;"
         offset="1"
         id="stop3807" />
    </linearGradient>
    <linearGradient
       id="linearGradient3785">
      <stop
         style="stop-color:#ffff99;stop-opacity:1;"
         offset="0"
         id="stop3787" />
      <stop
         style="stop-color:#ffcce0;stop-opacity:1;"
         offset="1"
         id="stop3789" />
    </linearGradient>
    <linearGradient
       inkscape:collect="always"
       xlink:href="#linearGradient3785"
       id="linearGradient3791"
       x1="319.77902"
       y1="527.73816"
       x2="317.95883"
       y2="574.71027"
       gradientUnits="userSpaceOnUse" />
    <linearGradient
       inkscape:collect="always"
       xlink:href="#linearGradient3803"
       id="linearGradient3809"
       x1="411.53177"
       y1="368.99835"
       x2="420.69644"
       y2="325.78406"
       gradientUnits="userSpaceOnUse" />
    <linearGradient
       inkscape:collect="always"
       xlink:href="#linearGradient3824"
       id="linearGradient3841"
       x1="416.53903"
       y1="480.4877"
       x2="424.89291"
       y2="506.49911"
       gradientUnits="userSpaceOnUse" />
    <linearGradient
       inkscape:collect="always"
       xlink:href="#linearGradient3843"
       id="linearGradient3849"
       x1="299.57831"
       y1="515.09772"
       x2="298.55283"
       y2="487.4549"
       gradientUnits="userSpaceOnUse" />
    <linearGradient
       inkscape:collect="always"
       xlink:href="#linearGradient3851"
       id="linearGradient3857"
       x1="348.75"
       y1="384.04724"
       x2="323.12747"
       y2="369.76154"
       gradientUnits="userSpaceOnUse" />
    <linearGradient
       inkscape:collect="always"
       xlink:href="#linearGradient3859"
       id="linearGradient3865"
       x1="248.58189"
       y1="375.57736"
       x2="273.8616"
       y2="395.22025"
       gradientUnits="userSpaceOnUse" />
    <linearGradient
       inkscape:collect="always"
       xlink:href="#linearGradient3859"
       id="linearGradient3874"
       gradientUnits="userSpaceOnUse"
       gradientTransform="matrix(0.98254659,-0.18601667,0.18601667,0.98254659,-61.511396,73.555609)"
       x1="339.03268"
       y1="389.29556"
       x2="318.64227"
       y2="400.17227" />
    <linearGradient
       inkscape:collect="always"
       xlink:href="#linearGradient3851"
       id="linearGradient3884"
       x1="354.88428"
       y1="438.62036"
       x2="350.2861"
       y2="425.4884"
       gradientUnits="userSpaceOnUse" />
    <linearGradient
       inkscape:collect="always"
       xlink:href="#linearGradient3851"
       id="linearGradient3902"
       x1="276.40494"
       y1="460.27121"
       x2="272.00006"
       y2="434.89111"
       gradientUnits="userSpaceOnUse" />
    <linearGradient
       inkscape:collect="always"
       xlink:href="#linearGradient3904"
       id="linearGradient3910"
       x1="429.99106"
       y1="621.57587"
       x2="420.52734"
       y2="589.79016"
       gradientUnits="userSpaceOnUse" />
    <linearGradient
       inkscape:collect="always"
       xlink:href="#linearGradient3859"
       id="linearGradient3918"
       x1="432.13394"
       y1="615.21429"
       x2="420.71429"
       y2="585.21429"
       gradientUnits="userSpaceOnUse" />
    <linearGradient
       inkscape:collect="always"
       xlink:href="#linearGradient3851"
       id="linearGradient3941"
       gradientUnits="userSpaceOnUse"
       x1="227.52232"
       y1="366.75565"
       x2="212.69643"
       y2="333.54135" />
    <linearGradient
       inkscape:collect="always"
       xlink:href="#linearGradient3949"
       id="linearGradient3955"
       x1="309.83551"
       y1="528.57867"
       x2="310.85437"
       y2="517.71954"
       gradientUnits="userSpaceOnUse"
       gradientTransform="translate(-0.50507627,-1.0101525)" />
    <linearGradient
       inkscape:collect="always"
       xlink:href="#linearGradient3957"
       id="linearGradient3963"
       x1="385.75778"
       y1="559.64038"
       x2="406.23874"
       y2="541.71021"
       gradientUnits="userSpaceOnUse" />
    <linearGradient
       inkscape:collect="always"
       xlink:href="#linearGradient3969"
       id="linearGradient3975"
       x1="300.09311"
       y1="479.84628"
       x2="278.09375"
       y2="486.81055"
       gradientUnits="userSpaceOnUse" />
    <linearGradient
       inkscape:collect="always"
       xlink:href="#linearGradient3851"
       id="linearGradient3983"
       x1="441.87735"
       y1="315.80402"
       x2="470.68396"
       y2="287.94687"
       gradientUnits="userSpaceOnUse" />
    <linearGradient
       inkscape:collect="always"
       xlink:href="#linearGradient3859"
       id="linearGradient3992"
       gradientUnits="userSpaceOnUse"
       x1="195.29634"
       y1="416.74109"
       x2="205.92885"
       y2="401.78622" />
    <linearGradient
       inkscape:collect="always"
       xlink:href="#linearGradient3859"
       id="linearGradient4002"
       x1="351.78561"
       y1="463.45053"
       x2="344.33572"
       y2="448.17197"
       gradientUnits="userSpaceOnUse" />
    <linearGradient
       inkscape:collect="always"
       xlink:href="#linearGradient3824"
       id="linearGradient4012"
       x1="337.1384"
       y1="526.45154"
       x2="344.2095"
       y2="546.9071"
       gradientUnits="userSpaceOnUse" />
    <filter
       inkscape:collect="always"
       id="filter4628"
       color-interpolation-filters="sRGB">
      <feGaussianBlur
         inkscape:collect="always"
         stdDeviation="8.250451"
         id="feGaussianBlur4630" />
    </filter>
    <linearGradient
       inkscape:collect="always"
       xlink:href="#linearGradient3859"
       id="linearGradient4635"
       gradientUnits="userSpaceOnUse"
       x1="432.13394"
       y1="615.21429"
       x2="420.71429"
       y2="585.21429" />
    <linearGradient
       inkscape:collect="always"
       xlink:href="#linearGradient3859"
       id="linearGradient4643"
       x1="417.71219"
       y1="429.15091"
       x2="442.88394"
       y2="438.43665"
       gradientUnits="userSpaceOnUse" />
  </defs>
  <sodipodi:namedview
     id="base"
     pagecolor="#ffffff"
     bordercolor="#666666"
     borderopacity="1.0"
     inkscape:pageopacity="0.0"
     inkscape:pageshadow="2"
     inkscape:zoom="0.9899495"
     inkscape:cx="602.19416"
     inkscape:cy="-12.164222"
     inkscape:document-units="px"
     inkscape:current-layer="layer1"
     showgrid="false"
     inkscape:window-width="1871"
     inkscape:window-height="1056"
     inkscape:window-x="49"
     inkscape:window-y="24"
     inkscape:window-maximized="1"
     fit-margin-top="0"
     fit-margin-left="0"
     fit-margin-right="0"
     fit-margin-bottom="0" />
  <metadata
     id="metadata7">
    <rdf:RDF>
      <cc:Work
         rdf:about="">
        <dc:format>image/svg+xml</dc:format>
        <dc:type
           rdf:resource="http://purl.org/dc/dcmitype/StillImage" />
        <dc:title />
      </cc:Work>
    </rdf:RDF>
  </metadata>
  <g
     inkscape:label="Calque 1"
     inkscape:groupmode="layer"
     id="layer1"
     transform="translate(-125.64188,-250.96146)">
    <rect
       style="fill:#aaccee;fill-opacity:1;stroke:none"
       id="rect4119"
       width="401.03055"
       height="357.59399"
       x="171.22086"
       y="311.05814"
       ry="0.80976921" />
    <path
       style="font-size:medium;font-style:normal;font-variant:normal;font-weight:normal;font-stretch:normal;text-indent:0;text-align:start;text-decoration:none;line-height:normal;letter-spacing:normal;word-spacing:normal;text-transform:none;direction:ltr;block-progression:tb;writing-mode:lr-tb;text-anchor:start;baseline-shift:baseline;color:#000000;fill:#ffffff;fill-opacity:1;stroke:none;stroke-width:10;marker:none;visibility:visible;display:inline;overflow:visible;enable-background:accumulate;font-family:Sans;-inkscape-font-specification:Sans"
       d="m 172.03125,306.0625 c -3.13213,0 -5.8125,2.68037 -5.8125,5.8125 l 0,355.96875 c 0,3.13213 2.68037,5.8125 5.8125,5.8125 l 399.40625,0 c 3.13213,0 5.8125,-2.68037 5.8125,-5.8125 l 0,-355.96875 c 0,-3.13213 -2.68037,-5.8125 -5.8125,-5.8125 l -399.40625,0 z m 4.1875,10 391.03125,0 0,347.59375 -391.03125,0 0,-347.59375 z"
       id="rect4614"
       inkscape:connector-curvature="0" />
    <path
       id="path4622"
       d="m 465.57589,274.54018 c -0.50634,0.007 -0.99747,0.0155 -1.5,0.0312 -7.1628,0.37491 -15.11125,2.52609 -20.03125,7.53125 -5.96474,-4.97343 -14.42404,-8.63318 -21.78125,-4.40625 -16.16285,8.07387 -28.45383,24.12168 -32.21875,41.84375 -3.43504,24.81279 -1.85179,50.07943 0.125,75.0625 -0.33049,-0.0516 -0.70002,-0.0713 -1.09375,-0.0625 -4.96206,-1.12227 -10.01034,-1.68479 -15.0625,-2.25 -0.6739,-0.0754 -1.35908,-0.14434 -2.0625,-0.1875 -0.86616,-2.58506 -2.41418,-5.05094 -4.5625,-7.1875 -6.21338,-7.46703 -15.63885,-11.06131 -25.21875,-10.625 -5.23376,-0.11776 -10.25704,1.34069 -15.1875,2.9375 7.57009,1.52947 15.86325,5.22021 20.25,11.25 -11.38088,-1.27053 -24.1158,1.21118 -33.53125,15.25 4.83254,-1.46577 8.64003,-2.43683 12.9375,-1.59375 -1.14937,0.58152 -2.18893,1.14915 -3,1.6875 -4.01357,2.66405 -8.40946,4.74219 -12.40625,7.46875 -11.21865,-21.81354 -21.51955,-44.66132 -37.5,-63.34375 -8.12974,-7.30571 -19.27075,-12.83276 -30.4375,-12.46875 -11.60922,0.60324 -20.18387,9.95719 -28.625,16.6875 -17.41338,0.77716 -29.09325,16.72203 -35.71875,31.25 -5.58144,14.9432 -6.40073,31.30231 -9.875,46.84375 -2.2415,12.03576 -3.65701,24.78041 -11.6875,34.59375 -3.76128,6.90119 -10.52522,12.98451 -11.875,21.03125 -0.76678,6.73936 4.83149,13.0661 11.75,11.96875 14.42331,-2.70369 27.59139,-10.6422 39.78125,-18.53125 14.94422,-9.17812 22.47496,-25.62934 33.53125,-38.6875 4.3206,-5.62929 8.58857,-11.32304 12.96875,-16.90625 8.77454,11.64678 18.42901,23.02999 27.53125,34.6875 -0.19861,0.50242 -0.33592,0.84386 -0.71875,2.09375 -6.20681,18.64201 -2.14009,39.23604 0.78125,58.21875 1.80683,7.93121 3.13723,16.30637 5.96875,24 -2.87161,1.67036 -5.30195,4.06612 -6.96875,7.375 -5.13171,9.25734 -8.44934,19.58415 -8.875,30.25 1.53325,-0.96688 5.98879,-8.28389 5.4375,-6.53125 -2.50783,8.1246 -0.22305,17.37697 5.5625,23.5625 1.05256,-6.11731 3.0092,-2.68211 5.5625,0.15625 3.80641,3.69605 8.4923,6.55821 13.3125,8.90625 -1.17705,-3.14743 -5.73075,-9.52172 0.59375,-5.5625 10.25376,3.67935 20.83217,4.67307 31.4375,4.0625 0.72152,0.16868 1.42535,0.30353 2.15625,0.4375 0.0421,0.008 0.0829,0.0237 0.125,0.0312 0.50421,0.091 1.02353,0.17471 1.53125,0.25 0.58312,0.0871 1.16319,0.15176 1.75,0.21875 0.17766,0.0202 0.35333,0.0441 0.53125,0.0625 0.26142,0.0272 0.51917,0.0706 0.78125,0.0937 0.56519,0.0502 1.12073,0.0919 1.6875,0.125 0.21774,0.0127 0.43813,0.0211 0.65625,0.0312 3.32459,5.40968 9.24914,9.93564 14,14.09375 9.18585,1.91336 18.05911,-1.09658 25.90625,-5.75 0.1905,-5.59895 -1.00797,-11.88865 -1.59375,-17.875 0.0322,-0.0185 0.0618,-0.044 0.0937,-0.0625 0.89552,-0.50277 1.786,-1.01986 2.65625,-1.5625 10.05441,6.10468 15.64379,18.45498 25.90625,23.71875 -27.61323,15.28264 -48.16406,43.16938 -82.70478,44.53838 29.66681,-7.8266 179.64719,1.47221 195.17781,1.44481 -0.55609,-7.7097 -8.0152,-21.76045 -2.75428,-28.60819 14.81654,-11.66198 34.90363,-12.41407 52.96875,-14.90625 5.45834,-0.57501 0.75707,-3.23236 6.22768,-3.67411 l -0.53572,-64.0625 c -20.45922,8.01716 -29.42031,18.7928 -49.97321,26.42411 -17.62096,6.23478 -36.27869,10.06075 -55,11 -2.59461,0.54201 -5.19412,1.25499 -7.75,2.0625 2.13878,-7.09444 3.67272,-14.45138 6.59375,-21.1875 4.99441,-9.27736 15.94383,-13.44555 20.53125,-22.96875 -1.50622,5.78495 2.24735,3.95617 4.65625,0.90625 4.16663,-5.67038 5.01551,-13.03107 5.125,-19.90625 2.30871,3.57108 4.88164,7.34397 5.46875,0.875 2.17238,-8.88342 -0.45375,-18.81562 -7.03125,-25.21875 3.72485,-1.47988 18.18262,-0.65634 8.5625,-4.96875 -7.6443,-4.98213 -16.84262,-7.95012 -26,-6.96875 3.12484,-1.42255 9.27587,-3.41978 9.25,-4.46875 -3.41601,-0.86169 -6.88762,-1.18016 -10.375,-1.28125 -8.00034,-20.2843 -15.20731,-41.18729 -26.53125,-59.75 -0.99967,-1.17219 -2.18554,-2.91107 -3.3125,-3.96875 2.63732,-9.86141 4.25984,-20.05827 9.40625,-29.125 4.76596,-9.67741 10.04246,-20.26471 16.375,-28.34375 20.38548,8.72892 42.78809,12.53163 64.90625,13.25 8.28392,-0.9686 18.34687,-6.00489 19.6875,-15.0625 -1.20765,-10.84915 -13.13509,-15.12713 -21.125,-20 -15.49683,-10.13245 -22.50807,-27.95085 -31.40625,-43.375 -7.22172,-10.95723 -15.17838,-25.30493 -29.6875,-26.65625 -0.99919,-0.12234 -1.99325,-0.19458 -3,-0.21875 -0.50338,-0.0121 -1.02491,-0.007 -1.53125,0 z"
       style="fill:#200086;fill-opacity:0.36470588;stroke:none;filter:url(#filter4628)"
       inkscape:connector-curvature="0"
       sodipodi:nodetypes="cccccccccccccccsccccccccccccccccccccccccccccccccccccccccccccccccccccccccccccccccccccc" />
    <path
       style="fill:#000000;stroke:#000000;stroke-opacity:1;stroke-width:5;stroke-miterlimit:4;stroke-dasharray:none;stroke-linejoin:round"
       d="m 457.71875,250.96875 c -0.50634,0.007 -0.99747,0.0155 -1.5,0.0312 -7.1628,0.37491 -15.11125,2.52609 -20.03125,7.53125 -5.96474,-4.97343 -14.42404,-8.63318 -21.78125,-4.40625 -16.16285,8.07387 -28.45383,24.12168 -32.21875,41.84375 -3.43504,24.81279 -1.85179,50.07943 0.125,75.0625 -0.33049,-0.0516 -0.70002,-0.0713 -1.09375,-0.0625 -4.96206,-1.12227 -10.01034,-1.68479 -15.0625,-2.25 -0.6739,-0.0754 -1.35908,-0.14434 -2.0625,-0.1875 -0.86616,-2.58506 -2.41418,-5.05094 -4.5625,-7.1875 -6.21338,-7.46703 -15.63885,-11.06131 -25.21875,-10.625 -5.23376,-0.11776 -10.25704,1.34069 -15.1875,2.9375 7.57009,1.52947 15.86325,5.22021 20.25,11.25 -11.38088,-1.27053 -24.1158,1.21118 -33.53125,15.25 4.83254,-1.46577 8.64003,-2.43683 12.9375,-1.59375 -1.14937,0.58152 -2.18893,1.14915 -3,1.6875 -4.01357,2.66405 -8.40946,4.74219 -12.40625,7.46875 -11.21865,-21.81354 -21.51955,-44.66132 -37.5,-63.34375 -8.12974,-7.30571 -19.27075,-12.83276 -30.4375,-12.46875 -11.60922,0.60324 -20.18387,9.95719 -28.625,16.6875 -17.41338,0.77716 -29.09325,16.72203 -35.71875,31.25 -5.58144,14.9432 -6.40073,31.30231 -9.875,46.84375 -2.2415,12.03576 -3.65701,24.78041 -11.6875,34.59375 -3.76128,6.90119 -10.52522,12.98451 -11.875,21.03125 -0.76678,6.73936 4.83149,13.0661 11.75,11.96875 14.42331,-2.70369 27.59139,-10.6422 39.78125,-18.53125 14.94422,-9.17812 22.47496,-25.62934 33.53125,-38.6875 4.3206,-5.62929 8.58857,-11.32304 12.96875,-16.90625 8.77454,11.64678 18.42901,23.02999 27.53125,34.6875 -0.19861,0.50242 -0.33592,0.84386 -0.71875,2.09375 -6.20681,18.64201 -2.14009,39.23604 0.78125,58.21875 1.80683,7.93121 3.13723,16.30637 5.96875,24 -2.87161,1.67036 -5.30195,4.06612 -6.96875,7.375 -5.13171,9.25734 -8.44934,19.58415 -8.875,30.25 1.53325,-0.96688 5.98879,-8.28389 5.4375,-6.53125 -2.50783,8.1246 -0.22305,17.37697 5.5625,23.5625 1.05256,-6.11731 3.0092,-2.68211 5.5625,0.15625 3.80641,3.69605 8.4923,6.55821 13.3125,8.90625 -1.17705,-3.14743 -5.73075,-9.52172 0.59375,-5.5625 10.25376,3.67935 20.83217,4.67307 31.4375,4.0625 0.72152,0.16868 1.42535,0.30353 2.15625,0.4375 0.0421,0.008 0.0829,0.0236 0.125,0.0312 0.50421,0.091 1.02353,0.17471 1.53125,0.25 0.58312,0.0871 1.16319,0.15176 1.75,0.21875 0.17766,0.0202 0.35333,0.0441 0.53125,0.0625 0.26142,0.0272 0.51917,0.0706 0.78125,0.0937 0.56519,0.0502 1.12073,0.0919 1.6875,0.125 0.21774,0.0127 0.43813,0.021 0.65625,0.0312 3.32459,5.40968 9.24914,9.93564 14,14.09375 9.18585,1.91336 18.05911,-1.09658 25.90625,-5.75 0.1905,-5.59895 -1.00797,-11.88865 -1.59375,-17.875 0.0322,-0.0185 0.0618,-0.044 0.0937,-0.0625 0.89552,-0.50277 1.786,-1.01986 2.65625,-1.5625 10.05441,6.10468 15.64379,18.45498 25.90625,23.71875 -5.77875,3.06483 -11.53683,6.16215 -17.28125,9.21875 -14.95026,11.84674 -24.82594,30.03123 -42.59375,38.53125 -15.81178,9.04066 -32.40298,16.71689 -49.09375,24.0625 l 84.875,0 c 4.03617,-4.13608 7.8905,-8.43475 11.4375,-13 -0.51976,4.41192 -1.38993,8.73529 -2.53125,13 l 134.125,0 c -4.7455,-9.62336 -8.5865,-19.56356 -10,-30.375 -0.55609,-7.7097 -4.47967,-17.21476 0.78125,-24.0625 14.81654,-11.66198 34.90363,-12.41407 52.96875,-14.90625 5.45834,-0.57501 10.93564,-1.0895 16.40625,-1.53125 l 0,-65.3125 c -20.45922,8.01716 -40.1346,17.89994 -60.6875,25.53125 -17.62096,6.23478 -36.27869,10.06075 -55,11 -2.59461,0.54201 -5.19412,1.25499 -7.75,2.0625 2.13878,-7.09444 3.67272,-14.45138 6.59375,-21.1875 4.99441,-9.27736 15.94383,-13.44555 20.53125,-22.96875 -1.50622,5.78495 2.24735,3.95617 4.65625,0.90625 4.16663,-5.67038 5.01551,-13.03107 5.125,-19.90625 2.30871,3.57108 4.88164,7.34397 5.46875,0.875 2.17238,-8.88342 -0.45375,-18.81562 -7.03125,-25.21875 3.72485,-1.47988 18.18262,-0.65634 8.5625,-4.96875 -7.6443,-4.98213 -16.84262,-7.95012 -26,-6.96875 3.12484,-1.42255 9.27587,-3.41978 9.25,-4.46875 -3.41601,-0.86169 -6.88762,-1.18016 -10.375,-1.28125 -8.00034,-20.2843 -15.20731,-41.18729 -26.53125,-59.75 -0.99967,-1.17219 -2.18554,-2.91107 -3.3125,-3.96875 2.63732,-9.86141 4.25984,-20.05827 9.40625,-29.125 4.76596,-9.67741 10.04246,-20.26471 16.375,-28.34375 20.38548,8.72892 42.78809,12.53163 64.90625,13.25 8.28392,-0.9686 18.34687,-6.00489 19.6875,-15.0625 -1.20765,-10.84915 -13.13509,-15.12713 -21.125,-20 -15.49683,-10.13245 -22.50807,-27.95085 -31.40625,-43.375 -7.22172,-10.95723 -15.17838,-25.30493 -29.6875,-26.65625 -0.99919,-0.12234 -1.99325,-0.19458 -3,-0.21875 -0.50338,-0.0121 -1.02491,-0.007 -1.53125,0 z"
       id="path4023"
       inkscape:connector-curvature="0" />
    <path
       style="fill:url(#linearGradient4635);fill-opacity:1;stroke:none"
       d="m 572.25,532.4375 c -9.01981,3.59745 -27.48922,11.09358 -42.59375,18.125 -20.71429,9.64285 -50.01339,17.86161 -69.65625,18.21875 -3.57578,0.065 -8.27043,1.19098 -13.59375,2.96875 -0.74668,2.28555 -1.57611,4.54173 -2.5625,6.71875 0.41926,1.83885 0.85115,3.58288 1.46875,4.34375 7.49919,-3.47667 16.40718,-1.27106 23.75,1.65625 -4.11052,1.17325 -8.19322,1.72885 -12.0625,3.375 7.67218,1.77605 18.59019,5.13225 20.28125,14.65625 -3.56163,-0.86033 -7.35763,-1.26348 -10.9375,-0.625 11.25383,7.0715 16.971,20.79603 15.46875,33.96875 -2.25658,-3.43068 -4.15453,-7.12139 -7.125,-10 0.22947,1.51163 0.99584,4.32282 1.125,6.40625 1.07215,6.77135 1.09413,10.84402 -3.4375,2.75 0.12017,3.85196 -1.22426,7.51355 -2.96875,10.90625 -1.4836,0.72642 -2.30783,-6.56205 -3.78125,-9 0.10732,2.84052 -0.0558,5.69786 -0.6875,8.46875 -3.37671,14.15158 -18.9258,20.23739 -31.71875,23.1875 -13.24351,-5.47149 -27.06251,-16.55942 -27.4375,-32.03125 -2.01344,3.87463 -3.34191,11.31536 -4.59375,16.5625 -4.37604,-7.65503 -6.97077,-16.9022 -4.25,-25.5625 -4.26399,3.95833 -7.09197,8.96635 -10.375,13.75 -0.18061,-7.20071 -0.51865,-15.36238 4.53125,-21.15625 0.0203,-0.78907 -4.21878,1.07887 -5.5625,1.46875 -2.8051,0.45655 -12.79765,7.18175 -8.40625,1.84375 6.3396,-10.43885 14.90667,-19.46056 25.25,-25.71875 -1.66852,-0.1251 -3.31014,-0.28003 -4.90625,-0.4375 -1.26862,-0.23867 -2.45115,-0.60285 -3.59375,-1.03125 -6.8226,3.62332 -12.54391,6.69268 -14.59375,7.53125 -7.85714,3.21429 -17.84822,16.78572 -31.0625,30 -10.86522,10.86522 -50.52747,28.77684 -64.4375,34.875 l 79.03125,0 C 370.48391,661.13809 377.06667,654.16666 377.5,652 c 1.07143,-5.35714 3.5625,-19.625 3.5625,-19.625 0,0 1.7991,4.97321 -0.34375,23.1875 -0.48692,4.1388 -1.52315,8.62679 -2.8125,13.09375 l 131.1875,0 c -1.04254,-2.01057 -2.06836,-4.01172 -3.03125,-5.9375 -6.78571,-13.57142 -10.35268,-40 -9.28125,-45 1.07142,-5 1.77679,-8.57142 18.5625,-15 12.58929,-4.82143 42.65583,-7.64634 56.90625,-8.75 l 0,-61.53125 z"
       id="path3135"
       inkscape:connector-curvature="0" />
    <path
       style="fill:url(#linearGradient3910);fill-opacity:1;stroke:none"
       d="m 442.59375,580.96875 c -1.08706,2.06287 -2.3211,4.05794 -3.8125,5.9375 -7.64656,10.14509 -20.54275,11.58079 -32.65625,11.03125 -3.29293,1.69146 -6.69314,3.76881 -9.6875,6.21875 -9.82143,8.03571 -15.375,17.125 -15.375,17.125 0,0 11.24554,-5.35714 16.78125,-3.75 -10.17857,4.28571 -9.28125,17.15625 -9.28125,17.15625 0,0 6.78571,-10.88839 12.5,-11.78125 C 394.09821,635.22768 400.53125,647 400.53125,647 c 0,0 3.03125,-15.71875 8.03125,-18.21875 -1.07143,6.42857 -2.30357,13.95089 5.375,23.59375 7.67857,9.64286 21.25446,21.05804 21.25446,21.05804 0,0 20.81734,-11.34012 26.58929,-24.80804 2.67857,-6.25 2.13839,-13.93304 0.53125,-20.71875 3.75,2.32143 6.96875,13.375 6.96875,13.375 0,0 2.69196,-6.41518 -0.34375,-12.84375 1.78571,0.71429 5,5.34375 5,5.34375 0,0 -0.35714,-8.19196 -3.75,-12.65625 4.64286,0.17857 9.625,7.84375 9.625,7.84375 0,0 0.375,-18.04464 -18.375,-27.6875 5.53571,-2.67857 12.84375,-1.40625 12.84375,-1.40625 0,0 -2.30357,-8.04018 -22.125,-10.71875 1.78571,-3.39286 10,-5 10,-5 0,0 -13.23214,-3.38839 -17.875,1.96875 z"
       id="path3133"
       inkscape:connector-curvature="0"
       sodipodi:nodetypes="cccsccccccscscccccccccccc" />
    <path
       style="fill:url(#linearGradient4643);stroke:none;fill-opacity:1"
       d="m 361.8125,370.53125 c -5.22252,-0.0851 -10.60268,0.29911 -16.09375,1.28125 -43.51297,7.7828 -77.19319,48.67095 -79.5625,58.46875 0.48584,-1.36719 2.87499,-6.84375 9.90625,-6.84375 8.03571,0 17.34375,14.8125 17.34375,14.8125 0,0 -12.16964,-12.6741 -18.0625,-13.03125 -5.89285,-0.35714 -17.29465,11.44197 -13.1875,48.40625 4.10714,36.96429 11.78125,51.78125 11.78125,51.78125 0,0 16.24553,21.24554 26.78125,24.28125 10.53571,3.03571 50.16072,-1.08036 83.375,-13.9375 3.98582,-1.5429 8.04354,-3.15664 12.09375,-4.84375 -1.37384,-9.157 -4.34482,-17.25097 -10.8125,-32.5625 21.22156,-24.8705 39.89945,-33.64515 71.65625,-34.125 1.594,-0.024 3.18882,-0.0425 4.78125,-0.0312 -7.15667,-19.01438 -20.12213,-51.24894 -26.625,-59.3125 -0.60866,-0.75473 -1.39053,-1.61993 -2.25,-2.53125 -1.31088,2.90289 -2.88486,5.46957 -5.03125,7.46875 -4.10154,2.13691 -7.31423,-2.88985 -11.6875,-3.625 -16.88285,-1.847 -22.1349,-20.83627 -30.46875,-22.8125 -0.89547,-3.09206 -1.68684,-6.36943 -2.375,-9.78125 -6.78889,-1.79312 -14.00827,-2.93941 -21.5625,-3.0625 z M 404,381.46875 c 1.02952,3.22204 2.18646,6.40705 3.5,9.53125 2.07861,0.2793 4.28685,-1.97754 6.125,-4.125 -2.97872,-1.87264 -6.20013,-3.6798 -9.625,-5.40625 z"
       id="path3078"
       inkscape:connector-curvature="0" />
    <path
       sodipodi:type="arc"
       style="fill:#000000;fill-opacity:1;stroke:none"
       id="path4124"
       sodipodi:cx="331.51944"
       sodipodi:cy="518.18091"
       sodipodi:rx="23.044106"
       sodipodi:ry="7.3867407"
       d="m 354.56355,518.18091 c 0,4.07958 -10.3172,7.38674 -23.04411,7.38674 -12.72691,0 -23.04411,-3.30716 -23.04411,-7.38674 0,-4.07959 10.3172,-7.38674 23.04411,-7.38674 12.72691,0 23.04411,3.30715 23.04411,7.38674 z"
       transform="translate(1.2626907,-0.50507627)" />
    <path
       sodipodi:type="arc"
       style="fill:#000000;stroke:none"
       id="path4006"
       sodipodi:cx="387.58929"
       sodipodi:cy="499.77289"
       sodipodi:rx="23.482143"
       sodipodi:ry="12.767858"
       d="m 411.07144,499.77289 c 0,7.05149 -10.51332,12.76786 -23.48215,12.76786 -12.96883,0 -23.48214,-5.71637 -23.48214,-12.76786 0,-7.05149 10.51331,-12.76786 23.48214,-12.76786 12.96883,0 23.48215,5.71637 23.48215,12.76786 z"
       transform="matrix(0.84245336,-0.53876928,0.53876928,0.84245336,-211.05603,290.9516)" />
    <path
       style="fill:#ffff99;stroke:none"
       d="m 458.8125,466.1875 c -17.96967,0.11837 -57.02998,3.55361 -82.03125,29.3125 -9.40291,9.68785 -14.99621,15.62874 -20.79473,20.7086 -8.6655,-3.51611 -19.73027,-4.78957 -35.51523,-3.76016 -8.5477,0.55744 -15.98793,1.30452 -22.37754,6.58281 -10.24475,-1.8217 -20.45403,-2.07851 -27.375,1.5 -10.40345,5.37914 -14.90625,30.28125 -14.90625,30.28125 0,0 6.06915,-10.3547 9.60469,-8.58693 C 253.80044,556.87278 263.90625,570 263.90625,570 l 2.03125,-4.53125 c 4.04061,7.82868 13.125,12.875 13.125,12.875 0,0 -1.51856,-3.2795 -2.78125,-6.5625 34.59772,18.43528 78.02347,-1.51348 88.125,-3.28125 16.16244,9.09137 20.47525,26.27364 35.375,27.03125 14.89975,0.75762 31.56488,2.51888 40.65625,-14.90625 9.09137,-17.42513 6.2887,-28.27601 14.875,-38.125 8.5863,-9.84898 18.96875,-12.88911 18.96875,-27.03125 2.27284,5.05076 2,10.59375 2,10.59375 0,0 7.07773,-5.29441 5.5625,-25.75 3.78807,4.54569 5.5625,7.0625 5.5625,7.0625 0,0 5.05092,-15.63832 -9.34375,-26.75 l 11.875,-2.03125 c 0,0 -16.92623,-12.11247 -33.59375,-4.03125 3.283,-5.55584 12.125,-8.09375 12.125,-8.09375 0,0 -3.66636,-0.32071 -9.65625,-0.28125 z"
       id="path3063"
       inkscape:connector-curvature="0"
       sodipodi:nodetypes="sscscscccccccsssccccccccs" />
    <path
       style="fill:#000000;stroke:none"
       d="m 332.46645,494.12663 c 0,0 5.80839,-7.44987 15.5311,-13.63706 12.34489,-7.85584 23.73859,-5.3033 23.73859,-5.3033 0,0 -15.1523,2.27284 -21.97083,7.07107 -6.81852,4.79822 -13.51078,11.86929 -13.51078,11.86929 0,0 1.13642,4.9245 3.91434,7.95495 2.77792,3.03046 8.5863,8.08122 8.5863,8.08122 0,0 -7.47399,-3.64383 -10.48034,-7.70241 -2.52537,-3.40926 -5.80838,-8.33376 -5.80838,-8.33376 z"
       id="path3080"
       inkscape:connector-curvature="0"
       sodipodi:nodetypes="cscscscsc" />
    <path
       style="fill:#000000;stroke:none"
       d="m 327.66823,470.00924 c 0,0 30.05204,-24.4962 32.95623,-24.62247 2.90419,-0.12627 4.79822,6.56599 4.79822,6.56599 0,0 -0.3788,-9.21764 -2.52538,-9.59645 -2.14657,-0.3788 -13.3103,6.63045 -19.31916,11.74303 -6.617,5.63002 -12.08821,10.90154 -15.90991,15.9099 z"
       id="path3082"
       inkscape:connector-curvature="0"
       sodipodi:nodetypes="cscssc" />
    <path
       style="fill:#000000;stroke:none"
       d="m 324.63777,447.40708 c 0,0 10.48034,-16.54125 23.48605,-26.51651 13.00572,-9.97525 21.71829,-14.77348 27.40039,-11.99556 5.68211,2.77792 6.31345,8.9651 6.43972,25.38008 -1.26269,-8.83883 -2.14657,-22.60216 -8.08122,-23.73858 -5.93464,-1.13642 -23.61231,9.84899 -30.68338,17.29886 -7.07107,7.44988 -18.56156,19.57171 -18.56156,19.57171 z"
       id="path3084"
       inkscape:connector-curvature="0"
       sodipodi:nodetypes="csscssc" />
    <path
       style="fill:url(#linearGradient3902);fill-opacity:1;stroke:none"
       d="m 262.63966,468.74655 c 0,0 -2.0203,-37.24937 10.22779,-39.77475 12.2481,-2.52538 25.75889,19.69797 27.7792,25.38008 2.0203,5.68211 5.3033,20.8344 -0.37881,25.25381 -5.68211,4.41942 -27.27412,5.55584 -30.80965,0.50508 -3.53553,-5.05076 -6.81853,-11.36422 -6.81853,-11.36422 z"
       id="path3886"
       inkscape:connector-curvature="0" />
    <path
       style="fill:url(#linearGradient3865);fill-opacity:1;stroke:none"
       d="m 236.15625,313.875 c -3.2825,0.0928 -6.2707,0.83106 -8.875,2.09375 -8.33376,4.04061 -17.4375,12.875 -17.4375,12.875 0,0 9.36389,-1.26444 16.6875,3.28125 7.3236,4.54568 8.34375,8.09375 8.34375,8.09375 0,0 -6.32313,-9.11993 -27.03125,-9.625 -20.70813,-0.50508 -34.34962,26.28362 -36.875,35.375 -2.52538,9.09137 -9.34454,53.02602 -12.375,62.875 -3.03046,9.84899 -19.19004,28.29298 -18.9375,33.34375 0.25254,5.05076 1.25999,10.34629 9.59375,10.09375 8.33376,-0.25254 42.92718,-16.66528 53.28125,-31.3125 10.35406,-14.64721 31.0625,-41.40625 31.0625,-41.40625 0,0 -9.34771,-16.67989 -24.5,-17.4375 -15.15229,-0.75762 -20.95685,7.33772 -25.25,14.15625 C 179.55061,403.09978 173,416.96875 173,416.96875 c 0,0 6.30028,-33.56583 29.28125,-36.34375 22.98097,-2.77792 33.59534,17.14514 39.65625,24.46875 5.14218,6.21346 17.81851,22.1917 22.125,27.625 0.0258,-0.0604 0.0365,-0.12719 0.0625,-0.1875 -0.007,-6.88452 5.50235,-12.36008 9.40625,-17.71875 8.16607,-9.58683 17.66154,-18.52197 28.1875,-25.9375 -7.43561,-15.24769 -28.72425,-57.53174 -40.09375,-65.59375 -9.5491,-6.77118 -18.24724,-9.61039 -25.46875,-9.40625 z"
       id="path3088"
       inkscape:connector-curvature="0" />
    <path
       style="fill:url(#linearGradient3983);fill-opacity:1;stroke:none"
       d="m 385.12066,381.87343 c 0,0 -6.81853,-69.95306 0.50507,-91.41881 7.32361,-21.46574 28.03174,-37.88072 38.13326,-36.11295 10.10153,1.76777 24.74874,18.43528 24.74874,18.43528 0,0 -5.3033,-10.35405 -9.84899,-13.63705 3.53553,-4.29315 18.68783,-8.83884 30.05204,-4.29315 11.36422,4.54568 24.74874,28.78934 29.7995,39.14341 5.05076,10.35406 15.15229,24.74874 27.02158,30.80965 11.86929,6.06092 16.41498,10.85914 16.92006,16.16244 0.50507,5.3033 -9.84899,13.63706 -19.69798,13.38452 -9.84898,-0.25254 -51.0127,-4.04061 -71.97337,-18.68782 -20.96066,-14.64721 -44.69925,-41.92133 -44.69925,-41.92133 0,0 -13.63706,34.85026 -8.83883,66.16499 4.79822,31.31473 12.37437,38.3858 12.37437,38.3858 l -0.50508,-5.3033 c 0,0 7.57615,-2.02031 16.66752,-22.4759 9.09137,-20.45559 15.15229,-38.63833 15.15229,-38.63833 l 16.16244,11.11168 c 0,0 -18.94036,28.53681 -22.98097,48.73986 -4.04061,20.20305 -7.32361,21.2132 -7.32361,21.2132 0,0 -16.66752,0.25254 -28.28427,-9.09137 -11.61675,-9.34391 -13.38452,-21.97082 -13.38452,-21.97082 z"
       id="path3090"
       inkscape:connector-curvature="0"
       sodipodi:nodetypes="cssccsssssscsccsccscsc" />
    <path
       style="fill:url(#linearGradient3809);fill-opacity:1;stroke:none"
       d="m 406.90625,297.6875 c 10.27778,11.25498 21.03739,22.13611 32.71875,31.90625 -7.09294,18.72736 -12.94012,38.43175 -24.0625,55 -2.02309,2.3124 -5.18366,6.79307 -8.0625,6.40625 -10.27379,-24.43577 -11.82853,-52.21797 -5.15625,-77.8125 1.30046,-5.19584 2.74959,-10.89769 4.5625,-15.5 z"
       id="path3092"
       inkscape:connector-curvature="0" />
    <path
       style="fill:#000000;stroke:none"
       d="m 334.3125,350.71875 c -5.23376,-0.11776 -10.25704,1.34069 -15.1875,2.9375 7.57009,1.52947 15.86325,5.22021 20.25,11.25 -11.38088,-1.27053 -24.1004,1.22511 -33.51585,15.26393 6.39533,-1.93978 10.95402,-3.03628 17.2971,-0.17018 -7.11134,6.09814 -12.36213,15.33676 -9.875,24.96875 0.5802,3.76345 2.0802,7.2898 3.21875,10.90625 3.41184,-10.86856 13.92535,-18.5127 22.37946,-18.81696 7.69992,-0.54505 14.42698,-9.0915 20.75893,-13.10715 7.65868,-6.90811 6.33004,-16.20519 -0.10714,-22.60714 -6.21338,-7.46703 -15.63885,-11.06131 -25.21875,-10.625 z"
       id="path3107"
       inkscape:connector-curvature="0"
       sodipodi:nodetypes="ccccccccccc" />
    <path
       style="fill:url(#linearGradient3857);fill-opacity:1;stroke:none"
       d="m 344.82143,394.68361 c 0,0 -10.17857,0.17857 -17.32143,4.28571 -7.14286,4.10715 -10.71429,11.42858 -10.71429,11.42858 0,0 -5,-12.5 0.89286,-20.89286 5.89286,-8.39286 9.28572,-9.82143 9.28572,-9.82143 0,0 -5.35714,-4.28571 -16.07143,-2.85714 6.25,-6.07143 11.96428,-9.28572 20.17857,-9.82143 8.21429,-0.53572 10,0.17857 10,0.17857 l 4.28571,5 c 0,0 -0.89285,-5.71429 -6.78571,-11.25 -5.89286,-5.53571 -12.32143,-7.32143 -12.32143,-7.32143 0,0 15.35714,-3.75 26.07143,3.92857 10.71429,7.67857 11.78571,16.78572 11.78571,16.78572 0,0 1.07143,7.32143 -4.10714,11.25 -5.17857,3.92857 -15.17857,9.10714 -15.17857,9.10714 z"
       id="path3105"
       inkscape:connector-curvature="0"
       sodipodi:nodetypes="cscsccsccscscsc" />
    <path
       style="fill:#000000;stroke:none"
       d="m 416,510.25 c -5.92472,-0.0715 -12.86226,2.34857 -14.59375,6.375 -8.41942,9.37085 -29.78154,16.81868 -52.18977,20.07097 -22.40823,3.25229 -45.86258,2.30905 -58.46648,-5.10222 -3.80014,0.34943 -4.72182,4.9987 -5.5625,6.96875 -1.37188,5.0139 -1.28783,10.04855 -0.125,14.8125 -0.26093,-0.10398 -0.5692,-0.21205 -0.78125,-0.3125 -3.39285,-1.60715 -5.71875,-4.8125 -5.71875,-4.8125 l 3.21875,-6.25 c 0,0 -3.74108,1.80357 -6.0625,6.625 -2.32143,4.82143 -0.71875,9.8125 -0.71875,9.8125 0,0 0.72768,-4.82142 2.15625,-7.5 0,0 2.14285,1.59375 3.75,2.84375 1.7528,1.36329 3.69177,2.36605 5.15625,3.03125 4.08122,11.20487 14.22057,20.41537 25.75,23.59375 4.73978,1.54787 9.80143,2.21831 14.84375,2.28125 -0.36463,-2.30902 -0.44121,-3.74791 -1.125,-6.5625 6.63765,3.25683 15.69806,4.14079 20.59375,3.1875 4.8957,-0.95329 11.51011,-3.21685 16.8125,-6.28125 4.31558,-2.49408 7.87888,-5.12442 11.09375,-7.84375 2.43414,4.04998 14.23878,19.78785 20.15625,22.375 18.58709,8.12638 27.68657,-1.71571 32.15625,-9.53125 4.58284,-8.01341 0.56543,-36.99207 -8.28125,-63.625 5.08189,-0.20435 9.14324,2.31687 10.28125,2.5625 0.18158,-1.25941 -3.58435,-5.6131 -9.875,-6.53125 -0.78633,-0.11477 -1.62236,-0.17729 -2.46875,-0.1875 z"
       id="path3113"
       inkscape:connector-curvature="0"
       sodipodi:nodetypes="scsccccccsccsccccsscssccss" />
    <path
       style="fill:url(#linearGradient3791);fill-opacity:1;stroke:none"
       d="m 290.35714,531.6479 c 0,0 -8.03571,11.07142 -1.78571,26.07142 6.25,15 21.96428,22.32144 35.53571,22.85715 l -1.42857,-6.07143 -5.35714,-6.96429 c 0,0 8.59836,11.20504 26.07143,10 31.07143,-2.14285 65.35714,-52.5 67.5,-63.75 l -7.14286,1.42857 c -45,15.17857 -80.71429,16.60715 -94.28571,17.32143 -13.57143,0.71429 -19.10715,-0.89285 -19.10715,-0.89285 z"
       id="path3111"
       inkscape:connector-curvature="0"
       sodipodi:nodetypes="cscccsccsc" />
    <path
       sodipodi:type="arc"
       style="fill:url(#linearGradient4012);fill-opacity:1;stroke:none"
       id="path4004"
       sodipodi:cx="334.86557"
       sodipodi:cy="551.95789"
       sodipodi:rx="41.163715"
       sodipodi:ry="29.92577"
       d="m 376.02929,551.95789 c 0,16.52754 -18.42963,29.92577 -41.16372,29.92577 -22.73409,0 -41.16372,-13.39823 -41.16372,-29.92577 0,-16.52755 18.42963,-29.92577 41.16372,-29.92577 22.73409,0 41.16372,13.39822 41.16372,29.92577 z"
       transform="translate(-5.3033008,-8.0812203)" />
    <path
       style="fill:#000000;stroke:none"
       d="m 278.90625,444.71875 c -9.02045,2.22386 -9.8269,13.48683 -10.25,21.15625 -0.21016,10.59109 -2.30858,28.75601 13.6875,58.78125 -0.71453,0.61794 -3.3512,2.56599 -3.59375,4.59375 2.59913,-1.62165 4.30526,-2.03276 6.6875,-2.96875 2.14124,-0.8413 4.2582,-1.72399 6.375,-2.625 3.23587,8.94909 10.05077,16.59734 17.6875,22.09375 5.18846,2.9607 8.92235,-3.6005 12.375,-6.34375 6.42271,-7.18268 13.99276,-14.04421 17.65625,-23.125 -6.55596,-5.25419 -15.31617,-7.16408 -23.625,-6.6875 -3.67634,0.13797 -7.3256,0.90494 -10.75,2.21875 -0.45715,-19.26209 -1.58738,-39.30976 -12.5625,-55.65625 -3.39141,-4.58633 -7.24816,-11.30681 -13.6875,-11.4375 z"
       id="path3074"
       inkscape:connector-curvature="0" />
    <path
       style="fill:url(#linearGradient3963);fill-opacity:1;stroke:none"
       d="m 413.375,514.03125 c -9.34186,22.11113 -23.79838,37.45141 -37.71875,49.9375 5.72105,8.14595 11.50707,17.06238 20.1875,22.125 4.01478,2.04873 8.60192,2.84241 12.96875,2.34375 -4.43764,-5.68313 -5.45867,-13.41102 -4.875,-20.53125 0.81819,-5.55353 0.13343,-14.1436 6.4375,-16.59375 -0.33834,-5.92896 3.92335,-11.62655 10.125,-11.53125 0.8136,-0.085 1.60676,-0.0296 2.40625,0.0625 -1.74304,-8.58617 -3.87787,-16.59293 -6.875,-25.46875 -0.61454,-0.0764 -0.94408,-0.17625 -2.65625,-0.34375 z"
       id="path3120"
       inkscape:connector-curvature="0" />
    <path
       style="fill:#ff4d4d;fill-opacity:1;stroke:none"
       d="m 421.28125,541.75 c -1.75198,0.0158 -4.00968,0.42163 -6.15625,2 -4.29315,3.15672 -2.46875,17.8125 -2.46875,17.8125 0,0 -2.09248,-5.18892 -2.21875,-8.15625 -2.33598,0.69448 -4.15181,5.54521 -4.59375,16.59375 -0.40331,10.08276 2.87141,15.48167 5.3125,18.0625 4.98918,-1.13657 9.46869,-4.0868 12.1875,-8.9375 5.33,-8.44011 2.21156,-19.46104 1.46875,-28.84375 -0.45965,-2.8967 -0.94496,-5.66217 -1.46875,-8.375 -0.51741,-0.0878 -1.22954,-0.16375 -2.0625,-0.15625 z"
       id="path3986"
       inkscape:connector-curvature="0" />
    <path
       style="fill:#eeeeee;stroke:none"
       d="m 360.96875,574.125 c -4.89994,2.51564 -10.54161,4.34979 -14.84375,5.1875 -2.17663,0.42383 -5.19333,0.47458 -8.4375,0.125 l 5.625,10.21875 -8.5,-10.65625 c -3.19374,-0.56785 -6.45729,-1.48939 -9.28125,-2.875 0.68379,2.81459 0.76037,4.25348 1.125,6.5625 -0.0103,-1.3e-4 -0.0209,1.3e-4 -0.0312,0 l 0.0937,0.34375 12.125,11.71875 c 0,0 9.20178,1.26904 14,-0.625 4.79823,-1.89403 9.8125,-4.46875 9.8125,-4.46875 l -1.6875,-15.53125 z"
       id="path4001"
       inkscape:connector-curvature="0" />
    <path
       style="fill:#ff9bff;stroke:none"
       d="m 293.44932,522.53717 c 0,0 6.81852,-9.59645 21.2132,-10.85914 14.39467,-1.26269 22.47589,5.3033 22.47589,5.3033 -2.27284,6.31345 -20.45559,26.01143 -24.24366,27.52666 -3.78807,1.51523 -18.18274,-15.40483 -19.44543,-21.97082 z"
       id="path3068"
       inkscape:connector-curvature="0"
       sodipodi:nodetypes="cscsc" />
    <path
       style="fill:#eeeeee;stroke:none"
       d="m 279.40625,446.6875 c -0.21245,0.004 -0.39645,0.0464 -0.59375,0.0937 -6.31345,1.51523 -10.01224,11.99073 -7.34375,36.875 2.78649,25.98475 14.65625,40.15625 14.65625,40.15625 l 5.59375,-2.40625 c 1.35595,-1.66308 2.89275,-3.18889 4.5625,-4.53125 -2.57807,-2.29965 -4.8799,-7.56197 -5.78125,-13.90625 -1.26227,-8.88462 0.67064,-16.52963 4.34375,-17.0625 2.6592,-0.38578 5.50449,3.07411 7.34375,8.375 -0.18481,-2.1926 -0.40698,-4.53872 -0.65625,-7.09375 -1.95718,-20.06099 -15.5389,-40.61372 -22.125,-40.5 z"
       id="path3072"
       inkscape:connector-curvature="0" />
    <path
       transform="matrix(0.37171798,-0.05392596,0.09316882,0.65578127,138.95582,188.96288)"
       d="m 313.92858,502.00504 c 0,10.74982 -6.35596,19.46428 -14.19643,19.46428 -7.84047,0 -14.19643,-8.71446 -14.19643,-19.46428 0,-10.74983 6.35596,-19.46429 14.19643,-19.46429 7.84047,0 14.19643,8.71446 14.19643,19.46429 z"
       sodipodi:ry="19.464285"
       sodipodi:rx="14.196428"
       sodipodi:cy="502.00504"
       sodipodi:cx="299.73215"
       id="path3974"
       style="fill:url(#linearGradient3849);fill-opacity:1;stroke:none"
       sodipodi:type="arc" />
    <path
       transform="matrix(0.18957562,-0.02750216,0.04751596,0.33444748,217.00343,343.42543)"
       d="m 313.92858,502.00504 c 0,10.74982 -6.35596,19.46428 -14.19643,19.46428 -7.84047,0 -14.19643,-8.71446 -14.19643,-19.46428 0,-10.74983 6.35596,-19.46429 14.19643,-19.46429 7.84047,0 14.19643,8.71446 14.19643,19.46429 z"
       sodipodi:ry="19.464285"
       sodipodi:rx="14.196428"
       sodipodi:cy="502.00504"
       sodipodi:cx="299.73215"
       id="path3978"
       style="fill:#000000;stroke:none"
       sodipodi:type="arc" />
    <path
       sodipodi:type="arc"
       style="fill:#eeeeee;stroke:none"
       id="path3976"
       sodipodi:cx="299.73215"
       sodipodi:cy="502.00504"
       sodipodi:rx="14.196428"
       sodipodi:ry="19.464285"
       d="m 313.92858,502.00504 c 0,10.74982 -6.35596,19.46428 -14.19643,19.46428 -7.84047,0 -14.19643,-8.71446 -14.19643,-19.46428 0,-10.74983 6.35596,-19.46429 14.19643,-19.46429 7.84047,0 14.19643,8.71446 14.19643,19.46429 z"
       transform="matrix(0.18957562,-0.02750216,0.04751596,0.33444748,214.23557,337.354)" />
    <path
       style="fill:url(#linearGradient3841);fill-opacity:1;stroke:none"
       d="m 447.4375,469.9375 c -11.41094,0.15886 -25.26685,3.32529 -39.25,9.53125 -29.83071,13.23938 -48.97364,35.35202 -42.75,49.375 2.74326,6.18106 9.9863,9.75028 19.75,10.6875 3.55502,-9.61946 12.35412,-20.11444 23.90625,-27.375 17.4087,-10.94143 34.46174,-10.40153 38.09375,1.1875 0.7364,2.3497 0.87783,4.96814 0.46875,7.75 19.70244,-12.84156 30.75529,-29.08174 25.8125,-40.21875 -1.74105,-3.9229 -5.30669,-6.77785 -10.15625,-8.59375 -2.29589,0.42847 -4.63588,1.15016 -6.96875,2.28125 0.78375,-1.32634 1.90355,-2.44862 3.125,-3.4375 -3.557,-0.83759 -7.60408,-1.24913 -12.03125,-1.1875 z"
       id="path3832"
       inkscape:connector-curvature="0" />
    <path
       style="fill:url(#linearGradient3874);fill-opacity:1;stroke:none"
       d="m 364.75,371.25 c 0.58637,4.37134 -0.90681,8.8827 -5.125,12.6875 -6.33195,4.01565 -13.05008,12.57995 -20.75,13.125 -5.63989,0.20298 -12.18446,3.67323 -16.9375,9.1875 0.80112,6.31887 4.15625,11.625 4.15625,11.625 0,0 2.15206,-7.85459 8.40625,-13.21875 6.2542,-5.36415 16.21875,-7.4375 16.21875,-7.4375 0,0 8.86134,-6.95795 13.21875,-11.78125 4.35741,-4.82331 1.9375,-11.8125 1.9375,-11.8125 0,0 -0.34431,-0.96594 -1.125,-2.375 z"
       id="path3867"
       inkscape:connector-curvature="0"
       sodipodi:nodetypes="cccccscscc" />
    <path
       style="fill:url(#linearGradient3884);fill-opacity:1;stroke:none"
       d="m 317.81924,466.85252 c -3.03045,-8.5863 31.18846,-43.31029 39.26968,-47.85598 8.08122,-4.54569 13.63706,-7.44987 16.92006,-5.42957 3.28299,2.02031 5.55584,12.62691 5.93464,18.68782 0.37881,6.06092 -4.54568,13.63706 -4.54568,13.63706 0,0 -5.05077,-5.55584 -11.36422,-5.05076 -6.31345,0.50508 -19.44544,7.07107 -25.12754,13.51079 -5.68211,6.43972 -15.27856,17.5514 -15.27856,17.5514 z"
       id="path3876"
       inkscape:connector-curvature="0" />
    <path
       style="fill:url(#linearGradient3941);fill-opacity:1;stroke:none"
       d="m 235.71875,317.90625 c -6.04119,0.31156 -11.1559,3.82434 -15.65625,7.5 8.57532,1.99244 18.81521,8.17577 19.3125,17.875 -1.03282,4.72681 -6.50348,1.58071 -8.09375,-1.0625 -11.60964,-9.70848 -31.1828,-10.9209 -41.875,0.90625 -13.49044,12.39789 -16.85205,31.14076 -19.375,48.46875 -0.1487,0.73602 -0.26582,1.47895 -0.40625,2.21875 2.40672,0.49004 4.85807,0.91441 7.34375,1.28125 7.763,-12.59189 20.40781,-21.76724 36.03125,-18.1875 9.53776,1.81815 17.23067,7.51095 23.5625,14.53125 20.52674,-5.86122 37.23637,-16.26647 46.96875,-29.25 -6.65082,-12.58735 -13.94005,-24.77921 -23.71875,-35.15625 -6.92274,-5.24696 -15.25175,-9.41081 -24.09375,-9.125 z"
       id="path3920"
       inkscape:connector-curvature="0"
       sodipodi:nodetypes="ccccccccccccc" />
    <path
       style="fill:url(#linearGradient3955);fill-opacity:1;stroke:none"
       d="m 315.71367,514.5836 c -6.56664,0.38093 -14.14174,2.86359 -18,8.125 3.42368,6.41827 7.80507,12.36706 13.90625,16.40625 7.33438,-6.22963 14.49319,-13.786 19.4375,-21.8125 -4.77952,-2.21094 -10.09699,-3.07212 -15.34375,-2.71875 z"
       id="path3943"
       inkscape:connector-curvature="0" />
    <path
       style="fill:url(#linearGradient3975);fill-opacity:1;stroke:none"
       d="m 279.3125,448.71875 c -6.85032,3.15578 -6.13958,12.58628 -6.71875,18.96875 -0.0546,18.75767 3.34762,38.03187 14.1875,53.65625 2.32779,-0.85191 8.4306,-3.60912 5.40625,-6.5 -4.1823,-8.69702 -6.3764,-20.36151 -1,-28.96875 1.93974,-2.78997 6.25526,-2.26448 8.15625,-0.3125 -2.2791,-13.19978 -7.43049,-27.23162 -17.90625,-36.09375 -0.6539,-0.34191 -1.34714,-0.85013 -2.125,-0.75 z"
       id="path3965"
       inkscape:connector-curvature="0" />
    <path
       style="fill:url(#linearGradient3992);fill-opacity:1;stroke:none"
       d="m 206.375,382.09375 c -13.13853,0.29009 -18.50642,7.79513 -22.53125,14.1875 -15.13531,18.63892 2.69067,38.59525 18.9375,44.34375 10.42585,-14.71282 30.8125,-41.0625 30.8125,-41.0625 0,0 -9.34771,-16.67989 -24.5,-17.4375 -0.94702,-0.0473 -1.84285,-0.0506 -2.71875,-0.0312 z"
       id="path3985"
       inkscape:connector-curvature="0"
       sodipodi:nodetypes="scccss" />
    <path
       style="fill:url(#linearGradient4002);fill-opacity:1;stroke:none"
       d="m 327.28942,471.14567 c 0.63135,-0.50508 16.16244,-17.04633 23.86486,-21.33948 7.70241,-4.29315 9.34391,-6.56599 10.85914,-5.55584 1.51523,1.01016 3.53553,5.55584 3.6618,9.34392 0.12627,3.78807 0.63134,16.79378 0.63134,16.79378 l -36.74429,13.25825 z"
       id="path3994"
       inkscape:connector-curvature="0" />
    <path
       style="font-size:medium;font-style:normal;font-variant:normal;font-weight:normal;font-stretch:normal;text-indent:0;text-align:start;text-decoration:none;line-height:normal;letter-spacing:normal;word-spacing:normal;text-transform:none;direction:ltr;block-progression:tb;writing-mode:lr-tb;text-anchor:start;baseline-shift:baseline;color:#000000;fill:#ffffff;fill-opacity:1;stroke:none;stroke-width:10;marker:none;visibility:visible;display:inline;overflow:visible;enable-background:accumulate;font-family:Sans;-inkscape-font-specification:Sans"
       d="m 166.21875,667.84375 c 0,3.13213 2.68037,5.8125 5.8125,5.8125 l 399.40625,0 c 3.13213,0 5.8125,-2.68037 5.8125,-5.8125 l 0,-355.96875 c 0,-3.13213 -2.68037,-5.8125 -5.8125,-5.8125 l -4.1875,10 0,347.59375 -391.03125,0"
       id="rect4601"
       inkscape:connector-curvature="0"
       sodipodi:nodetypes="csssscccc" />
  </g>
</svg>
