<?xml version="1.0" encoding="UTF-8" standalone="no"?>
<!-- Created with Inkscape (http://www.inkscape.org/) -->

<svg
   xmlns:dc="http://purl.org/dc/elements/1.1/"
   xmlns:cc="http://creativecommons.org/ns#"
   xmlns:rdf="http://www.w3.org/1999/02/22-rdf-syntax-ns#"
   xmlns:svg="http://www.w3.org/2000/svg"
   xmlns="http://www.w3.org/2000/svg"
   xmlns:xlink="http://www.w3.org/1999/xlink"
   xmlns:sodipodi="http://sodipodi.sourceforge.net/DTD/sodipodi-0.dtd"
   xmlns:inkscape="http://www.inkscape.org/namespaces/inkscape"
   version="1.1"
   width="176.28497"
   height="271.68332"
   id="svg2"
   inkscape:version="0.48.4 r9939"
   sodipodi:docname="AvatarChien01.svg">
  <sodipodi:namedview
     pagecolor="#ffffff"
     bordercolor="#666666"
     borderopacity="1"
     objecttolerance="10"
     gridtolerance="10"
     guidetolerance="10"
     inkscape:pageopacity="0"
     inkscape:pageshadow="2"
     inkscape:window-width="1871"
     inkscape:window-height="1056"
     id="namedview3067"
     showgrid="false"
     inkscape:zoom="4.5651139"
     inkscape:cx="108.18003"
     inkscape:cy="168.38445"
     inkscape:window-x="49"
     inkscape:window-y="24"
     inkscape:window-maximized="1"
     inkscape:current-layer="layer1" />
  <defs
     id="defs4">
    <linearGradient
       id="linearGradient4208">
      <stop
         id="stop4210"
         style="stop-color:#a7e6ea;stop-opacity:1"
         offset="0" />
      <stop
         id="stop4212"
         style="stop-color:#ffffff;stop-opacity:1"
         offset="1" />
    </linearGradient>
    <linearGradient
       id="linearGradient4162">
      <stop
         id="stop4164"
         style="stop-color:#ffcc00;stop-opacity:1"
         offset="0" />
      <stop
         id="stop4172"
         style="stop-color:#ffffff;stop-opacity:1"
         offset="0.25" />
      <stop
         id="stop4170"
         style="stop-color:#ffcc00;stop-opacity:1"
         offset="0.5" />
      <stop
         id="stop4166"
         style="stop-color:#ff8200;stop-opacity:1"
         offset="1" />
    </linearGradient>
    <linearGradient
       id="linearGradient4154">
      <stop
         id="stop4156"
         style="stop-color:#ffcc00;stop-opacity:1"
         offset="0" />
      <stop
         id="stop4158"
         style="stop-color:#ff7700;stop-opacity:1"
         offset="1" />
    </linearGradient>
    <linearGradient
       id="linearGradient4144">
      <stop
         id="stop4146"
         style="stop-color:#fc1818;stop-opacity:1"
         offset="0" />
      <stop
         id="stop4152"
         style="stop-color:#feb4b4;stop-opacity:1"
         offset="0.76217729" />
      <stop
         id="stop4148"
         style="stop-color:#fc1818;stop-opacity:1"
         offset="1" />
    </linearGradient>
    <linearGradient
       id="linearGradient4136">
      <stop
         id="stop4138"
         style="stop-color:#fc1818;stop-opacity:1"
         offset="0" />
      <stop
         id="stop4140"
         style="stop-color:#810202;stop-opacity:1"
         offset="1" />
    </linearGradient>
    <linearGradient
       id="linearGradient4082">
      <stop
         id="stop4084"
         style="stop-color:#005522;stop-opacity:1"
         offset="0" />
      <stop
         id="stop4086"
         style="stop-color:#000000;stop-opacity:1"
         offset="1" />
    </linearGradient>
    <linearGradient
       id="linearGradient4054">
      <stop
         id="stop4056"
         style="stop-color:#f0ae4e;stop-opacity:1"
         offset="0" />
      <stop
         id="stop4058"
         style="stop-color:#e3dab6;stop-opacity:1"
         offset="1" />
    </linearGradient>
    <linearGradient
       id="linearGradient4035">
      <stop
         id="stop4037"
         style="stop-color:#f0ae4e;stop-opacity:1"
         offset="0" />
      <stop
         id="stop4039"
         style="stop-color:#a74f0e;stop-opacity:1"
         offset="1" />
    </linearGradient>
    <linearGradient
       id="linearGradient4027">
      <stop
         id="stop4029"
         style="stop-color:#000080;stop-opacity:1"
         offset="0" />
      <stop
         id="stop4031"
         style="stop-color:#000000;stop-opacity:1"
         offset="1" />
    </linearGradient>
    <linearGradient
       x1="216.11264"
       y1="295.8042"
       x2="209.94754"
       y2="274.28635"
       id="linearGradient4033"
       xlink:href="#linearGradient4027"
       gradientUnits="userSpaceOnUse" />
    <linearGradient
       x1="227.62865"
       y1="342.34885"
       x2="222.74556"
       y2="321.64072"
       id="linearGradient4041"
       xlink:href="#linearGradient4035"
       gradientUnits="userSpaceOnUse" />
    <linearGradient
       x1="205.07024"
       y1="274.35718"
       x2="214.49629"
       y2="297.57147"
       id="linearGradient4060"
       xlink:href="#linearGradient4054"
       gradientUnits="userSpaceOnUse" />
    <linearGradient
       x1="156.73749"
       y1="213.06038"
       x2="136.86478"
       y2="206.63181"
       id="linearGradient4072"
       xlink:href="#linearGradient4054"
       gradientUnits="userSpaceOnUse" />
    <linearGradient
       x1="231.45583"
       y1="191.19096"
       x2="250.93234"
       y2="176.01239"
       id="linearGradient4080"
       xlink:href="#linearGradient4054"
       gradientUnits="userSpaceOnUse" />
    <linearGradient
       x1="192.70467"
       y1="259.45557"
       x2="189.76506"
       y2="249.66972"
       id="linearGradient4088"
       xlink:href="#linearGradient4082"
       gradientUnits="userSpaceOnUse" />
    <linearGradient
       x1="191.95366"
       y1="258.99518"
       x2="189.9904"
       y2="250.32631"
       id="linearGradient4090"
       xlink:href="#linearGradient4082"
       gradientUnits="userSpaceOnUse" />
    <linearGradient
       x1="223.97557"
       y1="199.2653"
       x2="230.05441"
       y2="188.65871"
       id="linearGradient4118"
       xlink:href="#linearGradient4035"
       gradientUnits="userSpaceOnUse" />
    <linearGradient
       x1="169.8401"
       y1="214.55243"
       x2="160.71352"
       y2="207.7339"
       id="linearGradient4126"
       xlink:href="#linearGradient4035"
       gradientUnits="userSpaceOnUse" />
    <linearGradient
       x1="195.9778"
       y1="206.97849"
       x2="192.55357"
       y2="165.81476"
       id="linearGradient4134"
       xlink:href="#linearGradient4054"
       gradientUnits="userSpaceOnUse" />
    <linearGradient
       x1="226.9241"
       y1="361.49554"
       x2="227.46875"
       y2="347.56696"
       id="linearGradient4142"
       xlink:href="#linearGradient4136"
       gradientUnits="userSpaceOnUse" />
    <linearGradient
       x1="229.10715"
       y1="365.8443"
       x2="213.48215"
       y2="365.66574"
       id="linearGradient4150"
       xlink:href="#linearGradient4144"
       gradientUnits="userSpaceOnUse" />
    <linearGradient
       x1="221.55141"
       y1="376.0553"
       x2="223.60805"
       y2="380.16245"
       id="linearGradient4160"
       xlink:href="#linearGradient4154"
       gradientUnits="userSpaceOnUse" />
    <linearGradient
       x1="227.66382"
       y1="391.38611"
       x2="219.21913"
       y2="382.99326"
       id="linearGradient4168"
       xlink:href="#linearGradient4162"
       gradientUnits="userSpaceOnUse" />
    <filter
       color-interpolation-filters="sRGB"
       id="filter4186">
      <feGaussianBlur
         id="feGaussianBlur4188"
         stdDeviation="3.0088381" />
    </filter>
    <linearGradient
       x1="205.65817"
       y1="238.70319"
       x2="216.86786"
       y2="235.11382"
       id="linearGradient4204"
       xlink:href="#linearGradient4208"
       gradientUnits="userSpaceOnUse" />
    <linearGradient
       x1="176.78572"
       y1="246.46933"
       x2="186.42857"
       y2="244.50504"
       id="linearGradient4206"
       xlink:href="#linearGradient4208"
       gradientUnits="userSpaceOnUse" />
  </defs>
  <metadata
     id="metadata7">
    <rdf:RDF>
      <cc:Work
         rdf:about="">
        <dc:format>image/svg+xml</dc:format>
        <dc:type
           rdf:resource="http://purl.org/dc/dcmitype/StillImage" />
        <dc:title />
      </cc:Work>
    </rdf:RDF>
  </metadata>
  <g
     transform="translate(-120,-135.21207)"
     id="layer1">
    <rect
       width="168.21428"
       height="168.21428"
       ry="0"
       x="122.5"
       y="207.71933"
       id="rect4174"
       style="fill:#49c5ff;fill-opacity:1;stroke:#ffffff;stroke-width:5;stroke-linejoin:round;stroke-miterlimit:4;stroke-opacity:1;stroke-dasharray:none" />
    <path
       d="m 216.47768,142.4375 -5.59375,4.96875 c -13.8029,9.91579 -15.92593,28.56791 -14.21875,44.3125 -4.10833,-2.16585 -8.91234,-2.74579 -13.375,-1.28125 3.79159,3.71777 7.84716,8.58711 10.72256,13.0092 -1.74966,-1.19581 -3.89991,-1.42913 -6.47351,0.11104 -2.1962,-8.52546 -12.14692,-23.85566 -20.56155,-24.87024 -15.90161,-1.91731 -22.8385,14.44191 -22.28125,23.09375 -0.0785,11.43678 -0.97117,22.73695 -1.90625,34.0625 -0.16462,7.2827 6.88408,13.68255 13.8125,14.28125 9.0194,-0.97056 11.59277,-11.74717 13.09375,-19.15625 0.53037,-3.0081 0.90239,-6.03683 1.1875,-9.09375 3.57116,1.80367 6.25176,4.86087 5.84375,9.21875 2.53409,16.65432 5.90151,34.35115 1.125,50.8125 -3.50019,4.7254 -1.94195,11.15847 1.96875,14.8125 -0.74984,9.95466 1.31764,21.0061 7.78125,28.84375 7.71042,6.59775 19.34071,5.45832 27.4375,0.125 2.00664,-1.05414 4.00599,-2.10761 6.03125,-3.125 4.09579,5.04341 7.26205,10.85232 8.09375,17.1875 -3.9878,2.07338 -7.26738,6.1059 -7.75,10.375 -0.0513,-0.11412 -0.10669,-0.22932 -0.15625,-0.34375 -0.0937,2.15625 -0.1875,4.3125 -0.28125,6.46875 0.58432,5.52851 -2.19075,12.3798 0.46875,17.09375 1.98566,1.98045 4.37006,3.41811 6.84375,4.6875 -4.64045,5.98431 -6.02798,16.15168 1.21875,20.625 8.7506,4.32972 17.35588,-6.10039 16.3125,-14.46875 -0.055,-2.02639 -0.72347,-4.06119 -1.84375,-5.75 3.98878,-1.07176 8.57473,-2.17447 10.6875,-5.15625 0.39438,-6.65694 0.79673,-13.3116 1.1875,-19.96875 1.5629,-5.61038 -2.65412,-10.79173 -7.53125,-13.46875 0.0117,-8.60083 -0.21832,-17.19398 0.375,-25.78125 9.89916,-1.71355 22.87903,-1.57598 27.75,-12.0625 5.04872,-10.54261 -2.74827,-20.89784 -8.1875,-29.4375 -3.37969,-2.55128 2.31168,-4.62401 1.40625,-8.03125 -0.31331,-8.40957 -8.08563,-13.83817 -14.5625,-17.6875 -8.43782,-10.88785 -13.29438,-24.71645 -15.09375,-38.21875 0.37612,-4.0554 4.18612,-7.38575 5.96875,-11 1.31962,2.9293 2.74496,5.80002 4.46875,8.5 6.6954,6.69749 16.4814,10.85612 25.96875,10.59375 9.57042,-2.09953 14.0425,-15.52284 6.5625,-22.4375 -4.28903,-4.8048 -10.29649,-7.68621 -13.40625,-13.71875 -7.00759,-8.68819 -12.09523,-23.20175 -25.59375,-22.5625 -7.04944,-0.0886 -12.17671,5.62078 -13.65625,12.125 -2.75437,8.52776 -4.01429,17.42513 -4.875,26.34375 -2.93554,-1.655 -5.44577,-4.1089 -9.21875,-4.71875 1.42253,-3.60607 4.14099,-6.44263 6.625,-9.34375 -4.32687,-0.2986 -9.29473,2.15493 -11.5,5.09375 -2.54478,-15.11868 -0.43016,-30.77915 5.125,-45.0625 z"
       transform="matrix(1,0,-0.03417951,1,9.2644838,0)"
       id="path4176"
       style="fill:#000000;fill-opacity:0.2745098;stroke:none;filter:url(#filter4186)" />
    <path
       d="m 205.40625,142.4375 -5.59375,4.96875 c -13.8029,9.91579 -15.92593,28.56791 -14.21875,44.3125 -4.10833,-2.16585 -8.91234,-2.74579 -13.375,-1.28125 3.79159,3.71777 7.84716,8.58711 10.72256,13.0092 -1.74966,-1.19581 -3.89991,-1.42913 -6.47351,0.11104 -2.1962,-8.52546 -12.14692,-23.85566 -20.56155,-24.87024 -15.90161,-1.91731 -22.8385,14.44191 -22.28125,23.09375 -0.0785,11.43678 -0.97117,22.73695 -1.90625,34.0625 -0.16462,7.2827 6.88408,13.68255 13.8125,14.28125 9.0194,-0.97056 11.59277,-11.74717 13.09375,-19.15625 0.53037,-3.0081 0.90239,-6.03683 1.1875,-9.09375 3.57116,1.80367 6.25176,4.86087 5.84375,9.21875 2.53409,16.65432 5.90151,34.35115 1.125,50.8125 -3.50019,4.7254 -1.94195,11.15847 1.96875,14.8125 -0.74984,9.95466 1.31764,21.0061 7.78125,28.84375 7.71042,6.59775 19.34071,5.45832 27.4375,0.125 2.00664,-1.05414 4.00599,-2.10761 6.03125,-3.125 4.09579,5.04341 7.26205,10.85232 8.09375,17.1875 -3.9878,2.07338 -7.26738,6.1059 -7.75,10.375 -0.0513,-0.11412 -0.10669,-0.22932 -0.15625,-0.34375 -0.0937,2.15625 -0.1875,4.3125 -0.28125,6.46875 0.58432,5.52851 -2.19075,12.3798 0.46875,17.09375 1.98566,1.98045 4.37006,3.41811 6.84375,4.6875 -4.64045,5.98431 -6.02798,16.15168 1.21875,20.625 8.7506,4.32972 17.35588,-6.10039 16.3125,-14.46875 -0.055,-2.02639 -0.72347,-4.06119 -1.84375,-5.75 3.98878,-1.07176 8.57473,-2.17447 10.6875,-5.15625 0.39438,-6.65694 0.79673,-13.3116 1.1875,-19.96875 1.5629,-5.61038 -2.65412,-10.79173 -7.53125,-13.46875 0.0117,-8.60083 -0.21832,-17.19398 0.375,-25.78125 9.89916,-1.71355 22.87903,-1.57598 27.75,-12.0625 5.04872,-10.54261 -2.74827,-20.89784 -8.1875,-29.4375 -3.37969,-2.55128 2.31168,-4.62401 1.40625,-8.03125 -0.31331,-8.40957 -8.08563,-13.83817 -14.5625,-17.6875 -8.43782,-10.88785 -13.29438,-24.71645 -15.09375,-38.21875 0.37612,-4.0554 4.18612,-7.38575 5.96875,-11 1.31962,2.9293 2.74496,5.80002 4.46875,8.5 6.6954,6.69749 16.4814,10.85612 25.96875,10.59375 9.57042,-2.09953 14.0425,-15.52284 6.5625,-22.4375 -4.28903,-4.8048 -10.29649,-7.68621 -13.40625,-13.71875 -7.00759,-8.68819 -12.09523,-23.20175 -25.59375,-22.5625 -7.04944,-0.0886 -12.17671,5.62078 -13.65625,12.125 -2.75437,8.52776 -4.01429,17.42513 -4.875,26.34375 -2.93554,-1.655 -5.44577,-4.1089 -9.21875,-4.71875 1.42253,-3.60607 4.14099,-6.44263 6.625,-9.34375 -4.32687,-0.2986 -9.29473,2.15493 -11.5,5.09375 -2.54478,-15.11868 -0.43016,-30.77915 5.125,-45.0625 z"
       id="path3861"
       style="fill:#000000;stroke:#000000;stroke-width:3;stroke-miterlimit:4;stroke-dasharray:none;stroke-linejoin:round" />
    <path
       d="m 201.15625,148.90625 c -2.67857,2.5 -17.15625,10.61607 -13.40625,44.1875 3.30357,1.16071 6.0625,6.5625 6.0625,6.5625 0,0 -10.29911,-9.1875 -17.53125,-7.9375 6.33929,6.25 10.46875,13.75 10.46875,13.75 l -2.40625,-0.5 L 186,208.25 c 0,0 -3.41418,-3.954 -8.84375,-2.3125 -5.42957,1.6415 -7.1875,10.53125 -7.1875,10.53125 l 0.375,-7.09375 c 0,0 -5.64732,-11.39286 -9.21875,-13.625 l -0.25,24.5 c 0,0 4.55235,2.41338 5.5625,4.8125 1.01015,2.39911 4.90752,29.02141 4.78125,36.21875 -0.12627,7.19734 -0.89737,16.28204 -1.78125,19.3125 -0.88388,3.03045 -3.13008,5.43703 -2.625,8.59375 0.50508,3.15673 2.78125,5.21875 2.78125,5.21875 0.66964,-3.16964 1.71875,-4.78125 1.71875,-4.78125 0,0 -2.49286,-3.20353 -0.0937,-4.71875 2.39911,-1.51523 3.28252,0.89102 3.15625,2.40625 -0.12627,1.51523 -4.41132,6.92513 -3.90625,14.375 0.50508,7.44988 3.40657,20.96955 9.59375,24 6.18719,3.03046 10.86437,2.88642 15.03125,1.75 4.16688,-1.13642 21.58899,-10.98097 28.28125,-12.875 6.69226,-1.89404 29.04933,-3.91084 33.46875,-6.5625 4.41941,-2.65165 8.06124,-6.04251 8.1875,-14.25 0.12627,-8.20749 -15.51221,-28.79347 -17.40625,-30.6875 -1.89403,-1.89404 0.39229,-3.82331 3.03125,-2.65625 1.39535,0.61709 -0.46875,2.625 -0.46875,2.625 l 4.25,5.84375 c 0,0 4.79696,-3.17766 0.125,-10.375 -4.67195,-7.19734 -7.71193,-6.56075 -11.5,-9.84375 -3.78808,-3.28299 -10.0882,-15.15308 -13.75,-27.90625 -3.6618,-12.75318 -2.03125,-14.53125 -2.03125,-14.53125 L 233.96875,195 l -6.9375,-16.9375 -5.3125,22.25 -6.3125,-1.03125 c 0,0 -6.04298,-3.89403 -11.09375,-2 -5.05076,1.89404 -6.96875,7.9375 -6.96875,7.9375 0,0 -0.23928,-4.5252 2.59375,-7.40625 2.43504,-2.47631 8.125,-2.90625 8.125,-2.90625 -2.5,-1.69642 -5.40625,-1.1875 -5.40625,-1.1875 -0.0893,-3.125 4.03125,-8.4375 4.03125,-8.4375 0,0 -4.41964,0.72321 -7.1875,8.3125 -0.625,-2.14286 -5.66518,-22.54464 1.65625,-44.6875 z m 4.625,52.96875 c 0.52858,0.007 1.05197,0.11684 1.5625,0.25 9.79729,4.85392 13.85836,16.31429 18.5,25.53125 2.98645,8.00272 7.22378,16.58303 7.40625,24.9375 -4.82459,7.16122 -13.63421,10.18381 -22,8.625 -9.32074,-12.06331 -12.39515,-27.69441 -12.34375,-42.71875 0.44539,-5.57562 -0.46478,-14.68583 6.34375,-16.59375 0.17645,-0.0233 0.35506,-0.0335 0.53125,-0.0312 z m -27.46875,7.46875 c 0.9465,-0.008 1.92276,0.22191 2.78125,0.71875 9.13902,6.76917 13.35023,18.28185 16.6875,28.78125 1.39389,8.54039 5.29789,17.54295 3.09375,26.1875 -5.07043,5.8596 -14.26451,7.89906 -21.6875,5.8125 -7.32113,-14.23912 -9.03046,-30.73131 -7.84375,-46.625 0.82456,-5.13219 0.79697,-13.38793 6.96875,-14.875 z m 49.53125,55.03125 c 3.47998,-0.0754 7.8736,0.21548 9,3.96875 0.85926,8.07029 0.65229,17.24115 -3.875,24.15625 -9.71043,5.91214 -21.58531,7.93493 -32.75,9.90625 -7.29536,2.06735 -13.19857,-3.7404 -16.21875,-9.65625 -3.38173,-4.76583 -2.99565,-11.76761 2.34375,-14.96875 11.8393,-7.6453 26.06854,-11.68583 40.0625,-13.375 0.44695,-0.0174 0.94036,-0.0205 1.4375,-0.0312 z"
       id="path2996"
       style="fill:url(#linearGradient4134);fill-opacity:1;stroke:none" />
    <path
       d="m 180.53571,269.05861 c 0,0 -5.625,-10.71429 -6.96428,-24.82143 -1.33929,-14.10714 -0.35714,-31.07143 4.28571,-32.76786 4.64286,-1.69643 15.26786,15.26786 18.57143,30.26786 3.30357,15 4.01786,21.16071 2.23214,23.03571 -1.78571,1.875 -7.05357,4.10715 -10.98214,4.73215 -3.92857,0.625 -7.14286,-0.44643 -7.14286,-0.44643 z"
       id="path2998"
       style="fill:#ffffff;stroke:none" />
    <path
       d="m 212.32143,259.32647 c 0,0 7.67857,0.80357 11.875,-1.42858 4.19643,-2.23214 7.41071,-6.42857 7.41071,-6.42857 -3.03571,-14.55357 -13.66071,-40.44643 -23.125,-46.60714 -9.46428,-6.16072 -7.58928,18.66071 -7.05357,24.01786 0.53572,5.35714 2.32143,18.92857 10.89286,30.44643 z"
       id="path3000"
       style="fill:#ffffff;stroke:none" />
    <path
       d="m 231.57747,291.08597 c 3.01252,-2.98403 4.54569,-17.80394 3.283,-22.34963 -1.26269,-4.54568 -16.41498,-2.0203 -29.7995,2.52539 -13.38452,4.54568 -19.95052,8.46002 -21.21321,13.00571 -1.26269,4.54569 5.96384,15.13984 10.48033,16.16244 6.69227,1.51523 33.99174,-6.11707 37.24938,-9.34391 z"
       id="path3002"
       style="fill:url(#linearGradient4033);fill-opacity:1;stroke:none" />
    <path
       d="m 178.4375,213.4375 c -4.51589,7.33686 -3.14797,16.94005 -3.25,25.3125 0.48246,9.86957 2.39556,20.14241 7.03125,28.6875 5.22647,0.76948 11.71354,-0.76221 15.21875,-4.5625 -0.0636,-11.53508 -2.95645,-23.30088 -7.50411,-33.94317 -2.86382,-5.26602 -5.7957,-12.96807 -11.49589,-15.49433 z"
       id="path4190"
       style="fill:url(#linearGradient4206);fill-opacity:1;stroke:none" />
    <path
       d="m 215.92011,201.43493 c 0,0 2.27284,-35.22907 10.85914,-39.64849 8.58629,-4.41941 16.16244,-0.12627 20.70812,6.43973 4.54569,6.56599 13.25826,19.95051 17.04633,22.22335 3.78807,2.27285 8.71256,7.32361 9.21764,11.99556 0.50508,4.67196 -4.04061,13.38452 -11.61675,12.37437 -7.57615,-1.01015 -20.45559,-5.93464 -23.35978,-13.38452 -2.90419,-7.44987 -12.87945,-29.04188 -12.87945,-29.04188 0,0 -3.40926,12.6269 -4.16688,18.05647 -0.75761,5.42957 -1.01015,13.13199 -1.01015,13.13199 z"
       id="path3004"
       style="fill:url(#linearGradient4080);fill-opacity:1;stroke:none" />
    <path
       d="m 174.70541,204.4168 c 0.50507,-0.50507 -10.68189,-22.67984 -19.64699,-23.81627 -8.96511,-1.13642 -17.42514,8.08122 -18.68783,13.76333 -1.26269,5.68211 -1.01015,25.88516 -1.64149,30.68339 -0.63135,4.79822 -2.02031,12.75317 0.12627,15.78363 2.14657,3.03046 9.72271,11.86929 16.16244,4.29315 6.43972,-7.57615 7.19733,-25.38008 7.57614,-37.75445 0.37881,-12.37437 0.25254,-16.54125 0.25254,-16.54125 6.50527,5.5688 8.82535,9.31128 12.83983,17.15705 0.88678,-1.58901 1.80702,-2.38913 3.01909,-3.56858 z"
       id="path3006"
       style="fill:url(#linearGradient4072);fill-opacity:1;stroke:none" />
    <path
       d="m 235.625,314.28125 c -8.50577,0.65989 -16.3471,3.72032 -23.90625,7.40625 2.73775,3.59847 6.30921,8.78816 7.375,12.625 1.78572,6.42857 0.71875,16.8125 0.71875,16.8125 0,0 6.27232,5.15178 11.09375,3.1875 C 235.72768,352.34821 235,349.875 235,349.875 c 0,0 0.54464,-17.68304 0.1875,-21.96875 -0.20602,-2.47221 0.12238,-8.65644 0.4375,-13.625 z"
       id="path3008"
       style="fill:url(#linearGradient4041);fill-opacity:1;stroke:none" />
    <path
       d="m 237.125,342.28125 c -0.11148,4.78533 -0.21875,8.90625 -0.21875,8.90625 0,0 0.9085,2.83215 -5.25,5.09375 C 225.49777,358.54283 217.5,352.625 217.5,352.625 c 0,0 0.54789,-4.78238 0.375,-10.15625 -3.42333,1.99818 -5.59375,5.02182 -5.59375,8.40625 0,6.01676 6.89928,10.90625 15.40625,10.90625 8.50697,0 15.40625,-4.88949 15.40625,-10.90625 0,-3.49414 -2.35238,-6.60018 -5.96875,-8.59375 z"
       id="path3010"
       style="fill:url(#linearGradient4142);fill-opacity:1;stroke:none" />
    <path
       d="m 211.91518,356.33036 -0.65625,15.0625 c 0,0 2.34118,2.64051 6.25,4.46875 -0.0517,-3.73718 1.65919,-7.52023 5,-8.5 4.04624,-0.84847 6.50742,5.19161 2.96875,6.8125 -0.0268,0.0538 -0.0399,0.10297 -0.0625,0.15625 2.43733,-0.0866 4.52163,0.87038 6.09375,2.40625 5.87468,-1.33065 10.09375,-3.75 10.09375,-3.75 l 0.90625,-15.1875 c -2.52216,3.23033 -6.49843,5.3863 -9.875,5.84375 -6.94298,1.44557 -16.54765,0.0791 -20.71875,-7.3125 z"
       id="path3780"
       style="fill:url(#linearGradient4150);fill-opacity:1;stroke:none" />
    <path
       d="m 224.58037,379.20537 c 0,0 -1.54679,-1.86247 -1.35739,-4.26158 0.1894,-2.39911 1.7362,-2.77792 1.7362,-2.77792 0,0 0.53664,-1.35739 -0.31567,-2.24127 -0.85232,-0.88389 -2.77792,-0.50508 -2.77792,-0.50508 0,0 -2.39283,2.8805 -2.36755,6.50286 0.0217,3.10764 1.75264,6.34329 4.8298,6.31345 0.50507,-1.10486 0.25253,-3.03046 0.25253,-3.03046 z"
       id="path3782"
       style="fill:url(#linearGradient4160);fill-opacity:1;stroke:none" />
    <path
       d="m 225.53572,376.30804 c -0.10614,0 -0.20665,0.0265 -0.3125,0.0312 0.28646,0.78608 0.71259,1.5734 1,2.375 0.0169,0.0216 0.0464,0.0398 0.0625,0.0625 0.4014,0.56842 0.52965,1.49406 0.3125,2.53125 -0.10171,0.48582 -0.28161,0.93363 -0.5,1.34375 -0.55745,1.04683 -1.41738,1.78125 -2.25,1.78125 -0.43455,0 -0.7993,-0.1943 -1.0625,-0.53125 -1.31478,-0.21615 -2.66222,-0.96206 -3.4375,-2.125 -0.39911,-0.46456 -0.71708,-1.00231 -1,-1.5625 -1.46485,1.84239 -2.51563,4.21368 -2.875,6.78125 -0.8264,5.90432 2.34824,10.71875 7.09375,10.71875 4.74551,0 9.26735,-4.81443 10.09375,-10.71875 0.8264,-5.90432 -2.37949,-10.6875 -7.125,-10.6875 z"
       id="path3786"
       style="fill:url(#linearGradient4168);fill-opacity:1;stroke:none" />
    <path
       d="m 216.42518,283.69922 a 16.28871,6.6291261 0 1 1 -32.57742,0 16.28871,6.6291261 0 1 1 32.57742,0 z"
       transform="matrix(0.79844961,-0.24621303,0,0.79844961,39.687203,103.5121)"
       id="path3827"
       style="fill:#ffffff;stroke:none" />
    <path
       d="m 239.5625,263.75 c -3.43313,0.0365 -6.95885,0.24615 -10.5625,0.625 3.23791,0.035 6.8385,0.61917 7.84375,3.96875 0.85926,8.07029 0.65229,17.24115 -3.875,24.15625 -9.71043,5.91214 -21.58531,7.93493 -32.75,9.90625 -7.29536,2.06735 -13.19857,-3.7404 -16.21875,-9.65625 -3.38173,-4.76583 -2.99565,-11.76761 2.34375,-14.96875 3.38604,-2.18656 6.9719,-4.06133 10.6875,-5.6875 -8.97475,3.47833 -16.92137,7.82992 -23.46875,12.6875 0.64453,0.56487 0.88288,1.68673 0.8125,2.53125 -0.12627,1.51523 -4.41132,6.92513 -3.90625,14.375 0.50508,7.44988 3.40657,20.96955 9.59375,24 6.18719,3.03046 10.86437,2.88642 15.03125,1.75 4.16688,-1.13642 21.58899,-10.98097 28.28125,-12.875 6.69226,-1.89404 29.04933,-3.91084 33.46875,-6.5625 4.41941,-2.65165 8.06124,-6.04251 8.1875,-14.25 0.11622,-7.55399 -12.977,-25.41724 -16.5625,-29.71875 -2.87863,-0.22765 -5.85184,-0.3137 -8.90625,-0.28125 z"
       id="path4052"
       style="fill:url(#linearGradient4060);fill-opacity:1;stroke:none" />
    <path
       d="m 195.71706,253.89973 a 4.987628,8.901969 0 1 1 -9.97526,0 4.987628,8.901969 0 1 1 9.97526,0 z"
       transform="matrix(1.1115612,0,0.21111861,1.1823445,-72.782743,-45.761511)"
       id="path3849"
       style="fill:#000000;stroke:none" />
    <path
       d="m 195.71706,253.89973 a 4.987628,8.901969 0 1 1 -9.97526,0 4.987628,8.901969 0 1 1 9.97526,0 z"
       transform="matrix(0.89694308,0,0.17035624,0.95405972,-21.499202,12.199938)"
       id="path3829"
       style="fill:url(#linearGradient4090);fill-opacity:1;stroke:none" />
    <path
       d="m 205.53125,205.9375 c -3.81219,4.81934 -2.25273,12.18862 -2.46875,18.125 0.6905,11.67871 3.28611,24.16721 10.65625,33.34375 5.95494,0.88607 12.852,-1.5507 15.625,-6.9375 -4.28532,-15.2726 -9.60976,-31.49816 -20.84375,-43.125 -0.88936,-0.59584 -1.81804,-1.57214 -2.96875,-1.40625 z"
       id="path4192"
       style="fill:url(#linearGradient4204);fill-opacity:1;stroke:none" />
    <path
       d="m 195.71706,253.89973 a 4.987628,8.901969 0 1 1 -9.97526,0 4.987628,8.901969 0 1 1 9.97526,0 z"
       transform="matrix(1.2279158,0,0.23321782,1.2279158,-71.166335,-66.974901)"
       id="path3843"
       style="fill:#000000;stroke:none" />
    <path
       d="m 195.71706,253.89973 a 4.987628,8.901969 0 1 1 -9.97526,0 4.987628,8.901969 0 1 1 9.97526,0 z"
       transform="matrix(1,0,0.18992982,1,-16.705274,-9.1071429)"
       id="path3831"
       style="fill:url(#linearGradient4088);fill-opacity:1;stroke:none" />
    <path
       d="m 195.71706,253.89973 a 4.987628,8.901969 0 1 1 -9.97526,0 4.987628,8.901969 0 1 1 9.97526,0 z"
       transform="matrix(0.47368276,0,0.08996648,0.47368276,109.32744,124.8818)"
       id="path3835"
       style="fill:#000000;stroke:none" />
    <path
       d="m 195.71706,253.89973 a 4.987628,8.901969 0 1 1 -9.97526,0 4.987628,8.901969 0 1 1 9.97526,0 z"
       transform="matrix(0.47368276,0,0.08996648,0.47368276,79.863154,134.79251)"
       id="path3837"
       style="fill:#000000;stroke:none" />
    <path
       d="m 195.71706,253.89973 a 4.987628,8.901969 0 1 1 -9.97526,0 4.987628,8.901969 0 1 1 9.97526,0 z"
       transform="matrix(0.47368276,0,0.08996648,0.47368276,77.720297,131.31037)"
       id="path3839"
       style="fill:#ffffff;stroke:none" />
    <path
       d="m 195.71706,253.89973 a 4.987628,8.901969 0 1 1 -9.97526,0 4.987628,8.901969 0 1 1 9.97526,0 z"
       transform="matrix(0.47368276,0,0.08996648,0.47368276,106.64887,121.66751)"
       id="path3841"
       style="fill:#ffffff;stroke:none" />
    <path
       d="m 181.59375,305.59375 c -0.8876,0 -1.59375,0.64852 -1.59375,1.4375 0,0.78898 0.70615,1.4375 1.59375,1.4375 0.8876,0 1.625,-0.64852 1.625,-1.4375 0,-0.78898 -0.7374,-1.4375 -1.625,-1.4375 z m 10.875,4.1875 c -0.8876,0 -1.625,0.61727 -1.625,1.40625 0,0.78898 0.7374,1.4375 1.625,1.4375 0.8876,0 1.59375,-0.64852 1.59375,-1.4375 0,-0.78898 -0.70615,-1.40625 -1.59375,-1.40625 z m -7.125,4.46875 c -0.8876,0 -1.625,0.64852 -1.625,1.4375 0,0.78898 0.7374,1.4375 1.625,1.4375 0.8876,0 1.59375,-0.64852 1.59375,-1.4375 0,-0.78898 -0.70615,-1.4375 -1.59375,-1.4375 z"
       id="path3942"
       style="fill:#000000;stroke:none" />
    <path
       d="m 252.50187,284.41982 c 0.83747,-0.29409 1.71861,0.0838 1.98002,0.82823 0.26142,0.74441 -0.18996,1.59027 -1.02742,1.88437 -0.83746,0.29409 -1.74809,-0.0735 -2.00951,-0.81788 -0.26142,-0.74441 0.21945,-1.60062 1.05691,-1.89472 z m -8.87322,7.55425 c 0.83746,-0.2941 1.73773,0.044 1.99915,0.78839 0.26142,0.74441 -0.21945,1.60063 -1.05691,1.89472 -0.83746,0.2941 -1.7186,-0.0838 -1.98002,-0.82823 -0.26142,-0.74441 0.20032,-1.56079 1.03778,-1.85488 z m 8.20319,1.85554 c 0.83746,-0.29409 1.74808,0.0735 2.0095,0.81788 0.26142,0.74441 -0.21945,1.60063 -1.05691,1.89472 -0.83746,0.2941 -1.7186,-0.0838 -1.98002,-0.82823 -0.26142,-0.74441 0.18997,-1.59027 1.02743,-1.88437 z"
       id="path3955"
       style="fill:#000000;stroke:none" />
    <path
       d="m 227.03125,178.0625 -5.3125,22.25 -1.53125,-0.25 c 1.83251,3.46644 4.11898,6.26112 6.75,8.03125 0.0426,-1.46466 0.34375,-1.875 0.34375,-1.875 L 233.96875,195 l -6.9375,-16.9375 z"
       id="path4110"
       style="fill:url(#linearGradient4118);fill-opacity:1;stroke:none" />
    <path
       d="m 161.125,195.75 -0.25,24.5 c 0,0 4.55235,2.41338 5.5625,4.8125 0.0761,0.18083 0.17526,0.53137 0.28125,0.96875 1.78786,-3.31846 3.11371,-7.29571 3.84375,-11.6875 -0.39422,1.22629 -0.59375,2.125 -0.59375,2.125 l 0.375,-7.09375 c 0,0 -5.64732,-11.39286 -9.21875,-13.625 z"
       id="path4100"
       style="fill:url(#linearGradient4126);fill-opacity:1;stroke:none" />
  </g>
</svg>
