<svg id="Layer_1" data-name="Layer 1" xmlns="http://www.w3.org/2000/svg" xmlns:xlink="http://www.w3.org/1999/xlink" viewBox="0 0 347 339.91"><defs><style>.cls-1,.cls-2{fill:#231f20;}.cls-2{stroke:#c04f9d;}.cls-15,.cls-2,.cls-4{stroke-miterlimit:10;}.cls-3{fill:#dba87b;}.cls-4,.cls-9{fill:#fcd2ac;}.cls-4{stroke:#dba87b;stroke-width:4px;}.cls-5{fill:url(#linear-gradient);}.cls-6{fill:url(#linear-gradient-2);}.cls-7{fill:url(#linear-gradient-3);}.cls-8{fill:url(#linear-gradient-4);}.cls-10{fill:#fff;}.cls-11{fill:#d7d8e0;}.cls-12{fill:#a34f9e;}.cls-13{fill:#511f5f;}.cls-14{fill:#f38ab8;}.cls-15{stroke:#3a53a4;fill:url(#linear-gradient-5);}.cls-16{fill:#d7eff3;}.cls-17{fill:#c36bab;}.cls-18{fill:#c04f9d;}</style><linearGradient id="linear-gradient" x1="273.33" y1="358.06" x2="277.18" y2="358.06" gradientTransform="translate(-180.09 56.44) rotate(-20.24)" gradientUnits="userSpaceOnUse"><stop offset="0.07" stop-color="#86888b"/><stop offset="0.26" stop-color="#fff"/><stop offset="0.49" stop-color="#6d6e71"/><stop offset="0.72" stop-color="#a7a9ac"/><stop offset="1" stop-color="#939598"/></linearGradient><linearGradient id="linear-gradient-2" x1="299.69" y1="350.2" x2="303.06" y2="350.2" gradientTransform="translate(-77.54 -69.46)" xlink:href="#linear-gradient"/><linearGradient id="linear-gradient-3" x1="237.91" y1="361.51" x2="240.8" y2="361.51" xlink:href="#linear-gradient"/><linearGradient id="linear-gradient-4" x1="251.79" y1="364.42" x2="255.44" y2="364.42" xlink:href="#linear-gradient"/><linearGradient id="linear-gradient-5" x1="148.4" y1="184.76" x2="192.04" y2="184.76" gradientUnits="userSpaceOnUse"><stop offset="0" stop-color="#ec008c"/><stop offset="0.55" stop-color="#fff"/><stop offset="1" stop-color="#ec008c"/></linearGradient></defs><title>Goth Gal</title><circle class="cls-1" cx="177.05" cy="133.57" r="68.73"/><path class="cls-2" d="M323.14,362c-1.36-13.76-5.92-26.1-12-37.87-2.42-4.69-4.92-9.36-7.17-14.16-18.59-9.22-39.71-18.26-39.71-18.26l-97,15.92s-36.48,21.58-45.36,30.92-32.64,54.64-32.64,54.64l220.14.69C311,383.63,324.17,372.46,323.14,362Z" transform="translate(-9.24 -56.01)"/><path class="cls-3" d="M118.09,368.48c7-8.53,12.68-18.19,18.36-27.93,3.91-6.7,7.72-13.54,11.05-20.66-10.12,6.5-21.21,14.09-25.6,18.69-8.88,9.33-30.79,50-30.79,50l7.44.15A173.65,173.65,0,0,0,118.09,368.48Z" transform="translate(-9.24 -56.01)"/><path class="cls-4" d="M147.94,232.9,193.58,197s-9.24,58.66,14.25,76.33,54.6,19.27,54.6,19.27S250.55,356,209.53,372.09,151,369.43,151,369.43s25.3-62.7,11.51-88.77S147.94,232.9,147.94,232.9Z" transform="translate(-9.24 -56.01)"/><path class="cls-3" d="M209.33,351.66c-18-18.92-34-48.8-26.21-77.83a64.27,64.27,0,0,1,11.63-23.22c-5.91-23.56-1.18-53.59-1.18-53.59L147.94,232.9s.77,21.7,14.57,47.77S151,369.43,151,369.43s17.52,18.79,58.54,2.66a57.53,57.53,0,0,0,14.25-8.21A82.09,82.09,0,0,1,209.33,351.66Z" transform="translate(-9.24 -56.01)"/><path class="cls-1" d="M166.55,304.95s10.4,5.77,19.41-.57,24.59-31.48,24.59-31.48l11.61,5.71S202,310.69,186.69,316.87s-24.61,2-24.61,2l2.72-20.35Z" transform="translate(-9.24 -56.01)"/><path class="cls-5" d="M203.82,296.4a2.3,2.3,0,0,1-1.12,2.81,1.82,1.82,0,0,1-2.42-1.3,2.3,2.3,0,0,1,1.12-2.81A1.82,1.82,0,0,1,203.82,296.4Z" transform="translate(-9.24 -56.01)"/><circle class="cls-6" cx="223.83" cy="280.74" r="1.69" transform="translate(-92.54 38.76) rotate(-20.24)"/><path class="cls-7" d="M170.88,312.24a1.73,1.73,0,0,1-.84,2.11,1.37,1.37,0,0,1-1.82-1,1.73,1.73,0,0,1,.84-2.11A1.37,1.37,0,0,1,170.88,312.24Z" transform="translate(-9.24 -56.01)"/><path class="cls-8" d="M185.62,309.89a2.18,2.18,0,0,1-1.06,2.66,1.73,1.73,0,0,1-2.29-1.23,2.18,2.18,0,0,1,1.06-2.66A1.73,1.73,0,0,1,185.62,309.89Z" transform="translate(-9.24 -56.01)"/><path class="cls-1" d="M104.21,86.91S82,39.65,60.3,62,59.22,162.17,42.16,176.29,9.24,171.8,9.24,171.8l15.53,51.12s20,2.24,29-10.38S65.48,190,65.48,190L52,220.85s-14.77,9.14-13.74,8.6,20.36,16.43,26.57,7.19,41.75-64,44.17-80.36,0-46.37,0-46.37" transform="translate(-9.24 -56.01)"/><path class="cls-9" d="M82.86,190.48s8.25,14,8.85,27.64-7.44,23.33-6.39,28,14.62,33.8,26.94,34.38,64.4-9.67,84.47-25.29,43.91-90,42.6-110S224.42,85.77,154.8,82.73,78.48,168,82.86,190.48Z" transform="translate(-9.24 -56.01)"/><path class="cls-3" d="M82.86,190.48a63.73,63.73,0,0,1,3,5.73c.91,1.91,2,4.3,3,7.19a56.76,56.76,0,0,1,2.73,10.21,36.37,36.37,0,0,1-.09,13.15,50.4,50.4,0,0,1-2,7.23c-.83,2.45-1.88,4.92-2.76,7.47a11.84,11.84,0,0,0-.79,3.8,5.09,5.09,0,0,0,.14.87c.1.36.2.62.32,1,.24.65.5,1.31.79,2,1.13,2.65,2.46,5.32,3.92,8A81.71,81.71,0,0,0,102,272.79a30.66,30.66,0,0,0,3.6,3.38,16,16,0,0,0,4.16,2.47l.55.21.56.14a5.45,5.45,0,0,0,1.13.19l.28,0h.93l1.34,0c.9,0,1.74-.13,2.62-.18s1.74-.14,2.64-.27a213.59,213.59,0,0,0,22-4c7.5-1.74,15.14-3.82,22.81-6.34a144.85,144.85,0,0,0,22.7-9.36,53.52,53.52,0,0,0,10.2-6.95c.67-.73,1.38-1.37,2-2.17s1.36-1.55,2-2.41c1.28-1.66,2.48-3.4,3.63-5.19a124.08,124.08,0,0,0,6.35-11.25c2-3.88,3.84-7.84,5.58-11.88,3.5-8.07,6.65-16.4,9.48-24.86s5.36-17.07,7.43-25.75c1-4.34,1.95-8.71,2.61-13.08.34-2.18.59-4.37.72-6.52l.07-1.61c0-.53,0-1,0-1.57v-.55l0-.21-.07-.84q-.06-.85-.16-1.63a58.61,58.61,0,0,0-8.44-24.25,61.57,61.57,0,0,0-17.75-18.13,80.29,80.29,0,0,0-11.05-6.12,99.39,99.39,0,0,0-11.73-4.37,134.61,134.61,0,0,0-24.08-4.63l-3-.32-3-.21-3-.2-.37,0h-1.06l-1.49,0-3,0a28.09,28.09,0,0,0-2.87.15,47.08,47.08,0,0,0-5.64.59,56.21,56.21,0,0,0-20.63,7.26,59.43,59.43,0,0,0-15.5,13.5A81.4,81.4,0,0,0,94.4,121.9a112.06,112.06,0,0,0-6.29,16.15,128.9,128.9,0,0,0-3.61,14.87c-.87,4.65-1.45,9-1.81,12.88a121.83,121.83,0,0,0-.5,18.24c0,1.05.12,2,.21,2.78s.14,1.48.23,2Zm0,0-.3-1.63c-.11-.54-.19-1.21-.3-2s-.22-1.73-.3-2.78a113.84,113.84,0,0,1-.06-18.32c.26-3.94.73-8.3,1.49-13a130.2,130.2,0,0,1,3.27-15.09,113.77,113.77,0,0,1,6-16.56,81.11,81.11,0,0,1,10.16-16.75A61.84,61.84,0,0,1,118.73,90a59,59,0,0,1,21.51-7.94,50,50,0,0,1,6-.71,51.33,51.33,0,0,1,6-.21h2.68l.38,0,3,.16,3,.16,3.06.28a131.89,131.89,0,0,1,24.76,4.52,102.94,102.94,0,0,1,12.22,4.45A83.94,83.94,0,0,1,213,97.08a64.09,64.09,0,0,1,19,19.17,62.46,62.46,0,0,1,9.08,25.9q.12.89.17,1.72l.07.84,0,.21c0,.14,0,.17,0,.26v.45c0,.6,0,1.21,0,1.8l-.07,1.76c-.14,2.33-.4,4.62-.74,6.89-.68,4.53-1.61,9-2.65,13.42-2.13,8.83-4.7,17.53-7.59,26.08s-6.09,17-9.67,25.15q-2.67,6.15-5.72,12.08a127.75,127.75,0,0,1-6.63,11.53c-1.22,1.85-2.48,3.67-3.86,5.42-.65.9-1.43,1.72-2.14,2.57s-1.6,1.67-2.4,2.49c-.41.37-.81.7-1.22,1.06l-.61.52-.22.18-.17.12-.34.24-2.73,1.88a26.8,26.8,0,0,1-2.79,1.71l-2.83,1.6a140.6,140.6,0,0,1-23.34,9.37c-7.82,2.44-15.57,4.42-23.18,6.06A216.13,216.13,0,0,1,120,281.29c-.91.11-1.83.19-2.77.24s-1.87.15-2.77.14H112.1l-.38,0a7.7,7.7,0,0,1-1.48-.27l-.72-.19-.68-.26a18.28,18.28,0,0,1-4.75-2.9,32.91,32.91,0,0,1-3.8-3.68,64.15,64.15,0,0,1-6-8.07c-1.77-2.75-3.35-5.52-4.77-8.29s-2.7-5.5-3.79-8.25q-.41-1-.77-2.08c-.11-.35-.25-.76-.33-1.09a6.74,6.74,0,0,1-.16-1.24,13.07,13.07,0,0,1,1-4.33c1-2.62,2.07-5,2.95-7.41a49.21,49.21,0,0,0,2.09-7,35.41,35.41,0,0,0,.4-12.81,60.5,60.5,0,0,0-2.41-10.17c-.95-2.9-1.92-5.32-2.76-7.25A63.68,63.68,0,0,0,82.86,190.48Z" transform="translate(-9.24 -56.01)"/><path class="cls-3" d="M107.92,257.16c-9-11.9-13.1-28.06-5.32-41.69,6.48-11.34,17.85-16.82,30.12-19.76,11.89-2.84,23.57-4.68,35.77-2.92,20,2.89,39.22,14.09,51.17,30.56,12.89-28.13,23.16-65.54,22.28-78.9C240.63,124.4,227,85.11,157.41,82.08s-76.32,85.3-71.93,107.74c0,0,8.25,14,8.85,27.64s-7.44,23.33-6.39,28,14.62,33.8,26.94,34.38a74.39,74.39,0,0,0,12.37-1C119.74,272.79,113.74,264.82,107.92,257.16Z" transform="translate(-9.24 -56.01)"/><path class="cls-3" d="M104,252.11c.3-.48.63-.93,1-1.38.12-.24.23-.49.36-.71,0-1.32,0-2.63-.06-4-.29-13.9-4.32-27.27-3.76-41.3.47-11.9,3.38-23.49,6.87-34.83q2.62-8.51,5.33-17A20,20,0,0,1,110,141.13c-.19-12.68,7.49-24,16.22-32.67,10.69-10.56,24.07-20,38.14-25.49l.19-.07c-3.12-.31-6.36-.56-9.74-.7-69.62-3-76.32,85.3-71.93,107.74,0,0,8.25,14,8.85,27.64s-7.44,23.33-6.39,28c.92,4,11.43,26.89,22.3,32.92C101.24,271.46,98.56,260.58,104,252.11Z" transform="translate(-9.24 -56.01)"/><path class="cls-10" d="M148.43,195.54s11-5.67,18.67-4.83,26,11.83,26,11.83l-8,20.18s-13.19,9.15-17.36,8.65-17.17-7-17.17-7-2.5-13.05-3.17-19.53S148.43,195.54,148.43,195.54Z" transform="translate(-9.24 -56.01)"/><path class="cls-11" d="M150.57,218.12c1-.11,1.92-.19,2.89-.25a14.72,14.72,0,0,1,7-4.81A29.32,29.32,0,0,1,175,212.4c4.29.73,10.55,2,13,6.09l6.27-15.86s-18.33-11-26-11.83-18.67,4.83-18.67,4.83-1.67,2.83-1,9.31C148.92,208.44,149.82,213.87,150.57,218.12Z" transform="translate(-9.24 -56.01)"/><ellipse class="cls-12" cx="164.03" cy="151.31" rx="13.5" ry="20.33"/><path class="cls-13" d="M172,208.61a14.92,14.92,0,0,1,14.14,5,29.84,29.84,0,0,0,.66-6.26c0-11.23-6-20.33-13.5-20.33s-13.5,9.1-13.5,20.33a28.71,28.71,0,0,0,1.62,9.65A13.56,13.56,0,0,1,172,208.61Z" transform="translate(-9.24 -56.01)"/><path class="cls-1" d="M180.58,204.32a15.83,15.83,0,0,1,6.13,4.65c0-.54.06-1.09.06-1.65,0-11.23-6-20.33-13.5-20.33s-13.5,9.1-13.5,20.33a30.05,30.05,0,0,0,.46,5.2C163.14,203.79,172.26,200.7,180.58,204.32Z" transform="translate(-9.24 -56.01)"/><path class="cls-10" d="M173.27,204a5.4,5.4,0,0,0-5-4.24c-4.25-.26-2.5,8.24,0,11.49a33.53,33.53,0,0,0,5,5.25s7.63-8.83,7.31-12.17-.06-4.58-3.31-5.58S173.27,204,173.27,204Z" transform="translate(-9.24 -56.01)"/><ellipse class="cls-10" cx="166.03" cy="191.99" rx="6.12" ry="3.95" transform="translate(-95.32 106.59) rotate(-42.5)"/><ellipse class="cls-10" cx="171.05" cy="195.92" rx="2.01" ry="1.29" transform="translate(-91.29 80.08) rotate(-35.58)"/><ellipse class="cls-14" cx="178.51" cy="218.76" rx="2.75" ry="1.9" transform="translate(-103.19 88.69) rotate(-35.58)"/><circle class="cls-14" cx="174.99" cy="222.81" r="1.05" transform="translate(-52.33 -14.05) rotate(-12.19)"/><path class="cls-15" d="M148.43,195.54c2.2-.15,4.6-1.79,6.67-2.48,1.62-.54,3.3-.9,5-1.3a38.71,38.71,0,0,1,12.17-1.33c6.39.52,15.09,2.94,19.8,8-.3-14.18-7.64-25.75-18.12-27.18-11.23-1.53-22.1,9.11-25.52,24.3Z" transform="translate(-9.24 -56.01)"/><path class="cls-1" d="M206.18,193.45s-9.5,2.13-11.95,2.47-6.43-4.6-13.64-7a17.84,17.84,0,0,0-7.24-.8,26.39,26.39,0,0,0-2.8-.24,31.49,31.49,0,0,0-11,1.77,23.67,23.67,0,0,0-9.64,4.85c-.94.65-1.46,1.07-1.46,1.07s.27-.17.76-.46c-.58.55-.9.91-.9.91s11.47-4.87,20-3.91,23.56,11.65,23.56,11.65-2.74,14.27-6.71,19-13.69,8-18.69,7.15-14.83-4.33-14.83-4.33,8.67,6.74,14.67,7c2.53.11,6.43-1.3,10.09-3,0,0,7.57-1.88,9.19-1.92s4.75,2.55,4.75,2.55l-2.37-3.37,5.18.83-6.74-4.06,8.41-18.74,7.17-2.56s-1.24-.73-3.31-1.84C202.26,198.39,206.18,193.45,206.18,193.45Z" transform="translate(-9.24 -56.01)"/><path class="cls-10" d="M112,193.47s-3.94-5.67-6.69-4.83S96,200.47,96,200.47l2.86,20.18s4.73,9.15,6.22,8.65,6.15-7,6.15-7,.9-13.05,1.13-19.53A43.41,43.41,0,0,0,112,193.47Z" transform="translate(-9.24 -56.01)"/><path class="cls-11" d="M111.24,216a7,7,0,0,0-1-.25,10.43,10.43,0,0,0-2.52-4.81,4.23,4.23,0,0,0-5.18-.65c-1.54.73-3.78,2-4.66,6.09L95.6,200.55s6.57-11,9.32-11.83,6.69,4.83,6.69,4.83a43.41,43.41,0,0,1,.36,9.31C111.83,206.37,111.51,211.8,111.24,216Z" transform="translate(-9.24 -56.01)"/><ellipse class="cls-12" cx="98.71" cy="151.34" rx="6.12" ry="20.33"/><path class="cls-13" d="M107.35,208.64c2.39-1,5,1,6.42,5,.19-2,.3-4.08.3-6.26,0-11.23-2.74-20.33-6.12-20.33s-6.12,9.1-6.12,20.33a60.84,60.84,0,0,0,.73,9.65C103.35,212.85,104.86,209.67,107.35,208.64Z" transform="translate(-9.24 -56.01)"/><path class="cls-1" d="M111.26,204.35A12.11,12.11,0,0,1,114,209c0-.54,0-1.09,0-1.65,0-11.23-2.74-20.33-6.12-20.33s-6.12,9.1-6.12,20.33c0,1.8.08,3.53.21,5.2C103.35,203.82,107.49,200.72,111.26,204.35Z" transform="translate(-9.24 -56.01)"/><path class="cls-10" d="M107.95,204s-.34-4-2.27-4.24-1.13,8.24,0,11.49a35.14,35.14,0,0,0,2.27,5.25s3.46-8.83,3.32-12.17,0-4.58-1.5-5.58S107.95,204,107.95,204Z" transform="translate(-9.24 -56.01)"/><path class="cls-10" d="M106.71,187.88c.67,1.61.29,4.76-.84,7s-2.59,2.84-3.26,1.23-.29-4.76.84-7S106,186.27,106.71,187.88Z" transform="translate(-9.24 -56.01)"/><path class="cls-10" d="M106.2,197.11a3,3,0,0,1,.4-2.22c.41-.64.89-.7,1.08-.12a3,3,0,0,1-.4,2.22C106.87,197.64,106.39,197.7,106.2,197.11Z" transform="translate(-9.24 -56.01)"/><path class="cls-14" d="M109.31,220.39a4.27,4.27,0,0,1,.51-3.14c.56-.88,1.24-.91,1.52-.06a4.27,4.27,0,0,1-.51,3.14C110.26,221.22,109.58,221.24,109.31,220.39Z" transform="translate(-9.24 -56.01)"/><path class="cls-16" d="M108.83,223.86c-.26.12-.51-.24-.57-.81s.11-1.13.37-1.25.51.24.57.81S109.08,223.74,108.83,223.86Z" transform="translate(-9.24 -56.01)"/><path class="cls-1" d="M112,193.47c-.79-.15-1.65-1.79-2.39-2.48a12.71,12.71,0,0,0-1.78-1.3c-1.44-1-2.88-1.66-4.36-1.33-2.29.52-5.41,2.94-7.09,8,.11-14.18,2.74-25.75,6.49-27.18,4-1.53,7.92,9.11,9.14,24.3Z" transform="translate(-9.24 -56.01)"/><path class="cls-1" d="M91.32,191.38s3.4,2.13,4.28,2.47,2.3-4.6,4.89-7a2.7,2.7,0,0,1,2.59-.8,3.67,3.67,0,0,1,1-.24,5.31,5.31,0,0,1,3.95,1.77,11.43,11.43,0,0,1,3.45,4.85c.34.65.52,1.07.52,1.07s-.1-.17-.27-.46c.21.55.32.91.32.91s-4.11-4.87-7.15-3.91-8.44,11.65-8.44,11.65,1,14.27,2.4,19,4.9,8,6.7,7.15,5.31-4.33,5.31-4.33-3.11,6.74-5.25,7c-.91.11-2.3-1.3-3.62-3a18.86,18.86,0,0,0-3.29-1.92c-.58,0-1.7,2.55-1.7,2.55l.85-3.37-1.85.83,2.41-4.06-3-18.74-2.57-2.56s.45-.73,1.18-1.84A37.7,37.7,0,0,1,91.32,191.38Z" transform="translate(-9.24 -56.01)"/><path class="cls-9" d="M114.07,217s4.8,1.11,3.13,5.86-13-4.36-12.54,1.05,4.06,14,4.06,14" transform="translate(-9.24 -56.01)"/><path class="cls-3" d="M114.07,217a4.53,4.53,0,0,1,1.61.36,4.41,4.41,0,0,1,1.66,1.13A4.13,4.13,0,0,1,118.4,221a4.26,4.26,0,0,1,0,.78,4,4,0,0,1-.1.79l-.08.4,0,.1v.05h0l0,.1v0l-.06.17a2.91,2.91,0,0,1-.57.95,3.43,3.43,0,0,1-2,1,6.61,6.61,0,0,1-1.95,0,20.6,20.6,0,0,1-3.45-.83c-1.09-.33-2.18-.72-3.14-.91a3.28,3.28,0,0,0-1-.1s.14-.08.18-.17,0,0,0,0,0,.06,0,.15v.22l0,.42c0,.28,0,.58.07.81.05.49.12,1,.21,1.52.16,1,.34,2,.54,3l.57,2.71.88,4.1c.21,1,.31,1.58.31,1.58s-.35-.48-.87-1.37a37.68,37.68,0,0,1-2-3.77c-.37-.8-.75-1.68-1.09-2.63a30.16,30.16,0,0,1-1-3.06c-.15-.54-.27-1.11-.39-1.72-.07-.31-.09-.57-.14-.86l-.06-.42c0-.24,0-.42,0-.63a4,4,0,0,1,.08-.7,3.16,3.16,0,0,1,.31-.82,2.65,2.65,0,0,1,1.52-1.18,5.22,5.22,0,0,1,2.44,0,27.25,27.25,0,0,1,3.45,1.09,28.94,28.94,0,0,0,3,1,5.68,5.68,0,0,0,1.23.17,1.22,1.22,0,0,0,.71-.16c.07-.08.08,0,.23-.26l.09-.16v0l0,.08h0v0l0-.07.11-.28a2.55,2.55,0,0,0,.19-.55,2.72,2.72,0,0,0,.12-.53,3.14,3.14,0,0,0-.27-1.88,4.33,4.33,0,0,0-1-1.29A6.23,6.23,0,0,0,114.07,217Z" transform="translate(-9.24 -56.01)"/><path class="cls-1" d="M157.53,160.93s14.67-7,25-5.67,20.33,8.67,21.33,11,5.67,9.33,0,8-6.22-18-23.28-15.33S157.53,160.93,157.53,160.93Z" transform="translate(-9.24 -56.01)"/><path class="cls-1" d="M93.87,158.26s6.59-12.33,10.8-10.33,16.54,16.83,16.54,16.83-9.49-11.76-16.69-11.83A12.86,12.86,0,0,0,93.87,158.26Z" transform="translate(-9.24 -56.01)"/><path class="cls-3" d="M100.77,227.5l3.65,3,2.65,8.54s-5.37,2.5-6.62,0S100.77,227.5,100.77,227.5Z" transform="translate(-9.24 -56.01)"/><ellipse class="cls-10" cx="78.21" cy="115.54" rx="5.74" ry="1.61" transform="translate(-70.19 69.48) rotate(-60)"/><path class="cls-4" d="M212.2,211s16.5-13.18,24-6.44,2.75,23.25-4.25,29.5-28.5,14.41-34.75,9.58" transform="translate(-9.24 -56.01)"/><path class="cls-1" d="M135.23,156.23,81.81,237.93l13.79-63.5L60.23,245.12s-30.5-87.73,7-136.73S175,67.89,175,67.89l24.24,17.5s49.5,15,49.5,24-21,95.21-21,95.21l-21.56,5.6-9.44,45,6.5-98.93-74.5,34.48Z" transform="translate(-9.24 -56.01)"/><path class="cls-17" d="M61,243.6s-29.28-68.29-3.85-117.67S131.35,70.5,131.35,70.5L92.56,91.89S64.23,139.22,63.9,157.05s10.62,59.51,10.62,59.51Z" transform="translate(-9.24 -56.01)"/><path class="cls-13" d="M66.6,209a85.11,85.11,0,0,1-5.33-13.77c-3.07-6.07-6.66-11.88-9-18.31-5.93-16.56,4-30.36,9.34-45.39,2.57-7.21,4.9-14.64,8.85-21.25a56.34,56.34,0,0,1,16.28-17c2-1.39,4.06-2.7,6.19-4a47.67,47.67,0,0,1,13.82-6.79c2.8-1.15,5.65-2.2,8.52-3.15l16-8.84s-48.79,6.05-74.21,55.43S61,243.6,61,243.6l10.68-21.35C69.26,218.22,67.95,213.59,66.6,209Z" transform="translate(-9.24 -56.01)"/><path class="cls-13" d="M80,114.59a32.21,32.21,0,0,0-2.09,4.09Q79,116.6,80,114.59Z" transform="translate(-9.24 -56.01)"/><polygon class="cls-17" points="86.36 118.42 97.84 101.04 72.58 181.91 86.36 118.42"/><path class="cls-1" d="M218.6,95.39s32.13-47.27,63.63-24.88,1.57,100.14,26.28,114.26,47.72-4.49,47.72-4.49l-22.5,51.12s-29,2.24-42-10.38-17-22.58-17-22.58l19.59,30.89s21.41,9.14,19.91,8.6-29.5,16.43-38.5,7.19-60.5-64-64-80.36,0-46.37,0-46.37" transform="translate(-9.24 -56.01)"/><path class="cls-17" d="M227.23,98.39c.5-1.5,24-34.5,38.5-21.5S289,175.14,298.6,187s36.13,10.06,36.13,10.06l15.29-2.7s-5.29,10.93-17.29,10.22-32,1.76-42-14-19-110.29-31.5-108.51S227.23,98.39,227.23,98.39Z" transform="translate(-9.24 -56.01)"/><path class="cls-10" d="M224.86,135.93a18.12,18.12,0,0,0-2.68-9.49,18.25,18.25,0,1,0-31.55.74,18.15,18.15,0,0,0-2.24,8.75h3.88a2.47,2.47,0,0,0,2.53,1.4,2.53,2.53,0,0,0,2.45-1.4h.1a2.52,2.52,0,0,0,5,0h.06c.13,2.37,1.26,4.23,2.6,4.21s2.38-1.88,2.46-4.21h0c.12,2.4,1.25,4.29,2.61,4.27s2.4-1.91,2.46-4.27h0a2.52,2.52,0,0,0,5,0h.12a2.77,2.77,0,0,0,2.48,1,2.9,2.9,0,0,0,2.4-1Z" transform="translate(-9.24 -56.01)"/><path class="cls-11" d="M204.8,127a22.05,22.05,0,0,1-6-6.1c-3.64-5.41-5.11-11.07-3.5-16.85l-.48-.62a18.17,18.17,0,0,0-4.21,23.75,18.15,18.15,0,0,0-2.24,8.75h3.88a2.47,2.47,0,0,0,2.53,1.4,2.53,2.53,0,0,0,2.45-1.4h.1a2.61,2.61,0,0,0,2.56,2.35A2.48,2.48,0,0,0,202,137,10.19,10.19,0,0,1,204.8,127Z" transform="translate(-9.24 -56.01)"/><path class="cls-1" d="M205.44,121.35c-3.38,3.74-8.61,4.53-11.7,1.74s-2.85-8.07.52-11.82" transform="translate(-9.24 -56.01)"/><path class="cls-1" d="M219.67,110.75c3.74,3.38,4.53,8.61,1.74,11.7s-8.07,2.85-11.82-.52" transform="translate(-9.24 -56.01)"/><path class="cls-1" d="M207.53,124l-.05.07c-.05-.06-.1-.12-.16-.17l-3.41,3.79a2.64,2.64,0,0,0,3.7,0l0,0a2.6,2.6,0,0,0,3.67-.27Z" transform="translate(-9.24 -56.01)"/><path class="cls-4" d="M281.83,301.46s-8,37.12-9.22,47.79,4.61,44.67,4.61,44.67h53.24s-12.88-56.32-17.73-67.49S281.83,301.46,281.83,301.46Z" transform="translate(-9.24 -56.01)"/><path class="cls-3" d="M301.07,378.47a256.66,256.66,0,0,1-11.84-28.19,105.48,105.48,0,0,1-5.8-30,82.06,82.06,0,0,1,1.28-17.17c-1.78-1-2.88-1.6-2.88-1.6s-8,37.12-9.22,47.79,4.61,44.67,4.61,44.67h32.19A142.72,142.72,0,0,1,301.07,378.47Z" transform="translate(-9.24 -56.01)"/><path class="cls-18" d="M147.94,367.7s24.64,8.06,30.24,7.56,63.33-25.5,63.33-25.5-36.49,42.5-65.85,35S147.94,367.7,147.94,367.7Z" transform="translate(-9.24 -56.01)"/><path class="cls-13" d="M223.18,365.84c-.35,2.09-1.7,3.91-4.07,3.91-4.62,0-5.39-6.92-2.32-9.25-16.3,6.84-35,14.47-38.09,14.75-5.6.5-30.24-7.56-30.24-7.56s-1.64,9.56,27.73,17.06c16.16,4.13,34.47-6.88,47.67-17.62Z" transform="translate(-9.24 -56.01)"/><path class="cls-3" d="M231.25,212.54s-3-5.42-6.39-3.61-14.76,9.63-14.68,12.85,3.78,8.69,3.78,8.69l-7.56,8.93,12.2-8L216.34,221s10.88-10.18,10.9-8.47,2,11.44,2,11.44Z" transform="translate(-9.24 -56.01)"/><path class="cls-1" d="M216.34,238.21s2.86,8.45,1.08,8.79-4.72-1.89-4.72-1.89.05,8.15,3.55,6.8,4.8-2.89,4.74-7.13S216.34,238.21,216.34,238.21Z" transform="translate(-9.24 -56.01)"/><path class="cls-1" d="M223.83,237.93c.42-.93,2.88,2.07,3.4,4.57s-3.4,0-3.4,0,1.38,5.27,3.4,4.89,1.52-7.27,1.52-7.27l-4.92-6.31L221,236.75l1.15,1.46Z" transform="translate(-9.24 -56.01)"/><path class="cls-1" d="M133.32,255.2s-18.43-13-23-13.52-4.23,6.91-4.23,6.91l1.71,3.81L106.13,256s.86,5.48,5.36,6.44,12.17-9.54,14.5-8.58S133.32,255.2,133.32,255.2Z" transform="translate(-9.24 -56.01)"/></svg>