<?xml version="1.0" encoding="UTF-8" standalone="no"?>
<!-- Created with Inkscape (http://www.inkscape.org/) -->

<svg
   xmlns:dc="http://purl.org/dc/elements/1.1/"
   xmlns:cc="http://creativecommons.org/ns#"
   xmlns:rdf="http://www.w3.org/1999/02/22-rdf-syntax-ns#"
   xmlns:svg="http://www.w3.org/2000/svg"
   xmlns="http://www.w3.org/2000/svg"
   xmlns:xlink="http://www.w3.org/1999/xlink"
   xmlns:sodipodi="http://sodipodi.sourceforge.net/DTD/sodipodi-0.dtd"
   xmlns:inkscape="http://www.inkscape.org/namespaces/inkscape"
   width="201.87135"
   height="200.27591"
   id="svg5662"
   version="1.1"
   inkscape:version="0.48.4 r9939"
   sodipodi:docname="AvatarTroll01.svg">
  <defs
     id="defs5664">
    <linearGradient
       gradientTransform="translate(-110.91115,-23.006491)"
       inkscape:collect="always"
       xlink:href="#linearGradient5378"
       id="linearGradient5384"
       x1="297.65753"
       y1="245.9433"
       x2="305.40118"
       y2="225.48772"
       gradientUnits="userSpaceOnUse" />
    <linearGradient
       id="linearGradient5378">
      <stop
         style="stop-color:#999999;stop-opacity:1;"
         offset="0"
         id="stop5380" />
      <stop
         style="stop-color:#acccd0;stop-opacity:1;"
         offset="1"
         id="stop5382" />
    </linearGradient>
    <linearGradient
       gradientTransform="translate(-110.91115,-23.006491)"
       inkscape:collect="always"
       xlink:href="#linearGradient5432"
       id="linearGradient5446"
       x1="351.94861"
       y1="220.86563"
       x2="346.27612"
       y2="222.00204"
       gradientUnits="userSpaceOnUse" />
    <linearGradient
       id="linearGradient5432">
      <stop
         style="stop-color:#ffeeaa;stop-opacity:1;"
         offset="0"
         id="stop5434" />
      <stop
         style="stop-color:#fac800;stop-opacity:1;"
         offset="1"
         id="stop5436" />
    </linearGradient>
    <linearGradient
       gradientTransform="translate(-110.91115,-23.006491)"
       inkscape:collect="always"
       xlink:href="#linearGradient5432"
       id="linearGradient5438"
       x1="262.75967"
       y1="219.85953"
       x2="268.79465"
       y2="221.64525"
       gradientUnits="userSpaceOnUse" />
    <linearGradient
       id="linearGradient5551">
      <stop
         style="stop-color:#ffeeaa;stop-opacity:1;"
         offset="0"
         id="stop5553" />
      <stop
         style="stop-color:#fac800;stop-opacity:1;"
         offset="1"
         id="stop5555" />
    </linearGradient>
    <linearGradient
       gradientTransform="translate(-110.91115,-23.006491)"
       inkscape:collect="always"
       xlink:href="#linearGradient5365"
       id="linearGradient5462"
       x1="365.84375"
       y1="193.13393"
       x2="361.85016"
       y2="185.45535"
       gradientUnits="userSpaceOnUse" />
    <linearGradient
       id="linearGradient5365">
      <stop
         style="stop-color:#999999;stop-opacity:1;"
         offset="0"
         id="stop5367" />
      <stop
         style="stop-color:#636c7e;stop-opacity:1;"
         offset="1"
         id="stop5369" />
    </linearGradient>
    <linearGradient
       gradientTransform="translate(-110.91115,-23.006491)"
       inkscape:collect="always"
       xlink:href="#linearGradient5378"
       id="linearGradient5470"
       x1="353.42859"
       y1="178.30766"
       x2="375.3847"
       y2="170.45052"
       gradientUnits="userSpaceOnUse" />
    <linearGradient
       id="linearGradient5562">
      <stop
         style="stop-color:#999999;stop-opacity:1;"
         offset="0"
         id="stop5564" />
      <stop
         style="stop-color:#acccd0;stop-opacity:1;"
         offset="1"
         id="stop5566" />
    </linearGradient>
    <linearGradient
       gradientTransform="translate(-110.91115,-23.006491)"
       inkscape:collect="always"
       xlink:href="#linearGradient5365"
       id="linearGradient5454"
       x1="248.48566"
       y1="182.3259"
       x2="254.95091"
       y2="174.1116"
       gradientUnits="userSpaceOnUse" />
    <linearGradient
       id="linearGradient5569">
      <stop
         style="stop-color:#999999;stop-opacity:1;"
         offset="0"
         id="stop5571" />
      <stop
         style="stop-color:#636c7e;stop-opacity:1;"
         offset="1"
         id="stop5573" />
    </linearGradient>
    <linearGradient
       gradientTransform="translate(-110.91115,-23.006491)"
       inkscape:collect="always"
       xlink:href="#linearGradient5378"
       id="linearGradient5478"
       x1="258.91519"
       y1="169.34425"
       x2="244.37947"
       y2="159.87997"
       gradientUnits="userSpaceOnUse" />
    <linearGradient
       id="linearGradient5576">
      <stop
         style="stop-color:#999999;stop-opacity:1;"
         offset="0"
         id="stop5578" />
      <stop
         style="stop-color:#acccd0;stop-opacity:1;"
         offset="1"
         id="stop5580" />
    </linearGradient>
    <linearGradient
       gradientTransform="translate(-110.91115,-23.006491)"
       inkscape:collect="always"
       xlink:href="#linearGradient5365"
       id="linearGradient5408"
       x1="387.26788"
       y1="247.33208"
       x2="359.43484"
       y2="233.04636"
       gradientUnits="userSpaceOnUse" />
    <linearGradient
       id="linearGradient5583">
      <stop
         style="stop-color:#999999;stop-opacity:1;"
         offset="0"
         id="stop5585" />
      <stop
         style="stop-color:#636c7e;stop-opacity:1;"
         offset="1"
         id="stop5587" />
    </linearGradient>
    <linearGradient
       gradientTransform="translate(-110.91115,-23.006491)"
       inkscape:collect="always"
       xlink:href="#linearGradient5365"
       id="linearGradient5400"
       x1="239.70146"
       y1="254.29607"
       x2="247.29684"
       y2="254.1698"
       gradientUnits="userSpaceOnUse" />
    <linearGradient
       id="linearGradient5590">
      <stop
         style="stop-color:#999999;stop-opacity:1;"
         offset="0"
         id="stop5592" />
      <stop
         style="stop-color:#636c7e;stop-opacity:1;"
         offset="1"
         id="stop5594" />
    </linearGradient>
    <linearGradient
       gradientTransform="translate(-110.91115,-23.006491)"
       inkscape:collect="always"
       xlink:href="#linearGradient5365"
       id="linearGradient5392"
       x1="266.64383"
       y1="265.68112"
       x2="292.93063"
       y2="261.38797"
       gradientUnits="userSpaceOnUse" />
    <linearGradient
       id="linearGradient5597">
      <stop
         style="stop-color:#999999;stop-opacity:1;"
         offset="0"
         id="stop5599" />
      <stop
         style="stop-color:#636c7e;stop-opacity:1;"
         offset="1"
         id="stop5601" />
    </linearGradient>
    <linearGradient
       gradientTransform="translate(-110.91115,-23.006491)"
       inkscape:collect="always"
       xlink:href="#linearGradient5480"
       id="linearGradient5486"
       x1="305.85663"
       y1="185.8125"
       x2="306.01541"
       y2="179.65179"
       gradientUnits="userSpaceOnUse" />
    <linearGradient
       id="linearGradient5480">
      <stop
         style="stop-color:#303030;stop-opacity:1;"
         offset="0"
         id="stop5482" />
      <stop
         style="stop-color:#000000;stop-opacity:1;"
         offset="1"
         id="stop5484" />
    </linearGradient>
    <linearGradient
       gradientTransform="translate(-110.91115,-23.006491)"
       inkscape:collect="always"
       xlink:href="#linearGradient5365"
       id="linearGradient5371"
       x1="221.19383"
       y1="230.87238"
       x2="233.81557"
       y2="219.76071"
       gradientUnits="userSpaceOnUse" />
    <linearGradient
       id="linearGradient5608">
      <stop
         style="stop-color:#999999;stop-opacity:1;"
         offset="0"
         id="stop5610" />
      <stop
         style="stop-color:#636c7e;stop-opacity:1;"
         offset="1"
         id="stop5612" />
    </linearGradient>
    <linearGradient
       gradientTransform="translate(-110.91115,-23.006491)"
       inkscape:collect="always"
       xlink:href="#linearGradient5515"
       id="linearGradient5521"
       x1="309.41321"
       y1="123.39336"
       x2="311.25137"
       y2="107.14336"
       gradientUnits="userSpaceOnUse" />
    <linearGradient
       id="linearGradient5515">
      <stop
         style="stop-color:#4d4d4d;stop-opacity:1;"
         offset="0"
         id="stop5517" />
      <stop
         style="stop-color:#797979;stop-opacity:1;"
         offset="1"
         id="stop5519" />
    </linearGradient>
    <linearGradient
       gradientTransform="translate(-110.91115,-23.006491)"
       inkscape:collect="always"
       xlink:href="#linearGradient5507"
       id="linearGradient5513"
       x1="310.13647"
       y1="109.75214"
       x2="309.58969"
       y2="136.53786"
       gradientUnits="userSpaceOnUse" />
    <linearGradient
       id="linearGradient5507">
      <stop
         style="stop-color:#232323;stop-opacity:1;"
         offset="0"
         id="stop5509" />
      <stop
         style="stop-color:#000000;stop-opacity:1;"
         offset="1"
         id="stop5511" />
    </linearGradient>
    <linearGradient
       gradientTransform="translate(-110.91115,-23.006491)"
       inkscape:collect="always"
       xlink:href="#linearGradient5494"
       id="linearGradient5500"
       x1="305.17169"
       y1="190.95717"
       x2="306.5827"
       y2="178.96159"
       gradientUnits="userSpaceOnUse" />
    <linearGradient
       id="linearGradient5494">
      <stop
         style="stop-color:#ffffff;stop-opacity:1;"
         offset="0"
         id="stop5496" />
      <stop
         style="stop-color:#ffa1ad;stop-opacity:1;"
         offset="1"
         id="stop5498" />
    </linearGradient>
    <linearGradient
       gradientTransform="translate(-110.91115,-23.006491)"
       inkscape:collect="always"
       xlink:href="#linearGradient5378"
       id="linearGradient5425"
       x1="283.55756"
       y1="183.22914"
       x2="277.90195"
       y2="165.05666"
       gradientUnits="userSpaceOnUse" />
    <linearGradient
       id="linearGradient5627">
      <stop
         style="stop-color:#999999;stop-opacity:1;"
         offset="0"
         id="stop5629" />
      <stop
         style="stop-color:#acccd0;stop-opacity:1;"
         offset="1"
         id="stop5631" />
    </linearGradient>
    <filter
       color-interpolation-filters="sRGB"
       inkscape:collect="always"
       id="filter5528">
      <feGaussianBlur
         inkscape:collect="always"
         stdDeviation="2.3632235"
         id="feGaussianBlur5530" />
    </filter>
    <linearGradient
       inkscape:collect="always"
       xlink:href="#linearGradient5627"
       id="linearGradient6486"
       x1="192.52171"
       y1="185.73637"
       x2="195.0025"
       y2="166.16466"
       gradientUnits="userSpaceOnUse" />
    <linearGradient
       inkscape:collect="always"
       xlink:href="#linearGradient5608"
       id="linearGradient6494"
       x1="157.45032"
       y1="177.86559"
       x2="164.86974"
       y2="175.34019"
       gradientUnits="userSpaceOnUse" />
    <linearGradient
       inkscape:collect="always"
       xlink:href="#linearGradient5608"
       id="linearGradient6502"
       x1="227.02107"
       y1="181.99144"
       x2="219.67081"
       y2="178.20337"
       gradientUnits="userSpaceOnUse" />
    <linearGradient
       inkscape:collect="always"
       xlink:href="#linearGradient5608"
       id="linearGradient6517"
       x1="106.13025"
       y1="128.76562"
       x2="106.51869"
       y2="138.76562"
       gradientUnits="userSpaceOnUse" />
  </defs>
  <sodipodi:namedview
     id="base"
     pagecolor="#ffffff"
     bordercolor="#666666"
     borderopacity="1.0"
     inkscape:pageopacity="0.0"
     inkscape:pageshadow="2"
     inkscape:zoom="2.8"
     inkscape:cx="156.85256"
     inkscape:cy="37.598946"
     inkscape:document-units="px"
     inkscape:current-layer="layer1"
     showgrid="false"
     fit-margin-top="0"
     fit-margin-left="0"
     fit-margin-right="0"
     fit-margin-bottom="0"
     inkscape:window-width="1871"
     inkscape:window-height="1056"
     inkscape:window-x="49"
     inkscape:window-y="24"
     inkscape:window-maximized="1" />
  <metadata
     id="metadata5667">
    <rdf:RDF>
      <cc:Work
         rdf:about="">
        <dc:format>image/svg+xml</dc:format>
        <dc:type
           rdf:resource="http://purl.org/dc/dcmitype/StillImage" />
        <dc:title></dc:title>
      </cc:Work>
    </rdf:RDF>
  </metadata>
  <g
     inkscape:label="Calque 1"
     inkscape:groupmode="layer"
     id="layer1"
     transform="translate(-89.983157,-59.249378)">
    <rect
       style="fill:#609494;fill-opacity:1;stroke:#ffffff;stroke-width:5;stroke-linejoin:round;stroke-miterlimit:4;stroke-opacity:1;stroke-dasharray:none"
       id="rect4681"
       width="171.22086"
       height="171.22086"
       x="106.00554"
       y="61.749378" />
    <path
       style="fill:#1c2a2a;fill-opacity:0.51372549;stroke:none;filter:url(#filter5528)"
       d="m 303.59375,112.09375 c -14.5165,0.4752 -25.45288,12.80401 -34.6875,26.34375 -5.339,-10.17263 -14.59488,-14.69111 -24.03125,-13.75 -3.40738,-0.11781 -10.51385,3.19587 -7.46875,8.84375 3.6986,2.68285 8.81448,2.34946 12.34375,5.40625 l -0.25,0.75 c -3.16706,7.94361 -1.54673,16.87002 0.75,24.875 -5.06603,6.22262 -10.00319,12.60691 -13.21875,20.375 l -2.25,1.40625 c -6.07994,4.03774 -12.43695,8.96174 -17.875,15.03125 l 0,54.59375 170.8125,0 c 0.13518,-0.11336 0.27226,-0.22741 0.40625,-0.34375 l 0,-53.34375 c -5.4469,-5.2274 -11.73288,-9.37588 -17.3125,-14.1875 -1.14713,-2.37525 -2.5796,-4.53073 -4.28125,-6.3125 -0.95935,-0.95346 -1.89112,-1.94763 -2.8125,-2.96875 4.56453,-8.09836 7.42297,-18.32586 5.28125,-28.0625 4.13915,-2.36497 9.59926,-0.25287 13.46875,-3.4375 1.83326,-6.61923 -5.31215,-9.34062 -9.09375,-10 -2.28806,-0.56531 -4.67272,-0.57756 -7,-0.5 -7.04336,-0.0148 -13.39432,5.02998 -17.8125,11.875 -0.0237,-0.13694 -0.0711,-0.26877 -0.0937,-0.40625 -6.66788,-22.82007 -26.49287,-36.4109 -44.875,-36.1875 z m 27.65625,114.375 c 0.1351,0.0522 0.27112,0.10411 0.40625,0.15625 -0.0204,0.037 -0.0125,0.0883 -0.0312,0.125 -0.12576,-0.0942 -0.24839,-0.18873 -0.375,-0.28125 z"
       id="rect5525"
       inkscape:connector-curvature="0"
       transform="matrix(0.96403423,0,0,1,-100.03094,-23.006491)" />
    <path
       inkscape:connector-curvature="0"
       style="fill:#000000;stroke:#000000;stroke-width:3;stroke-linecap:butt;stroke-linejoin:round;stroke-miterlimit:4;stroke-opacity:1;stroke-dasharray:none"
       d="m 192.68261,123.14976 c -14.55086,0.36826 -25.49353,9.91388 -34.75,20.40625 -5.35164,-7.8831 -14.63506,-11.38555 -24.09375,-10.65625 -3.41546,-0.0913 -10.5523,2.46702 -7.5,6.84375 3.70736,2.07902 8.83738,1.81869 12.375,4.1875 l -0.25,0.59375 c -3.17455,6.15576 -1.55216,13.07794 0.75,19.28125 -5.07802,4.82212 -10.02682,9.76151 -13.25,15.78125 l -2.25,1.09375 c -13.95513,7.16489 -29.363973,17.96508 -31.843753,34.65625 -1.61031,9.44852 1.67704,21.79507 12.281253,24.0625 8.32575,1.94122 16.5923,-1.76722 24.875,-2.65625 0.0513,0.0224 0.1048,0.0433 0.15625,0.0625 -0.9132,0.90429 -1.78553,1.839 -2.625,2.78125 -2.74103,5.3195 4.73301,8.77608 8.59375,7.96875 -0.36461,4.26125 4.77317,5.67304 8.15625,5.375 6.91205,8.31746 19.26455,4.65263 27.875,1.5625 8.52926,-3.21824 16.20723,-8.56775 25.21875,-10.625 9.96704,1.10458 19.73529,3.867 29.59375,4.96875 2.37506,-0.0853 4.46676,-2.07488 4.71875,-4.40625 2.45212,4.21119 3.66899,-3.24186 3.53125,-5.65625 -0.0783,-1.33793 -0.33726,-2.65973 -0.78125,-3.90625 3.12041,1.25794 7.1023,1.72605 10,2.75 12.23275,4.10863 26.75429,3.21249 36.78125,-5.40625 9.04979,-5.31628 12.84734,-17.38309 7.96875,-26.84375 -5.39178,-11.47677 -17.98939,-16.56562 -28.15625,-23.34375 -1.14985,-1.84066 -2.57557,-3.49424 -4.28125,-4.875 -0.96161,-0.73886 -1.88894,-1.5212 -2.8125,-2.3125 4.57533,-6.27568 7.42804,-14.20477 5.28125,-21.75 4.14895,-1.83269 9.62135,-0.18838 13.5,-2.65625 1.8376,-5.12946 -5.33445,-7.23902 -9.125,-7.75 -2.29347,-0.43807 -4.6672,-0.43511 -7,-0.375 -7.06002,-0.0115 -13.41512,3.88307 -17.84375,9.1875 -0.0238,-0.10612 -0.0709,-0.20596 -0.0937,-0.3125 -6.68366,-17.68401 -26.57436,-28.20436 -45,-28.03125 z m 27.71875,88.625 c 0.13542,0.0404 0.2708,0.0846 0.40625,0.125 -0.0204,0.0286 -0.0126,0.0653 -0.0312,0.0937 -0.12605,-0.073 -0.24809,-0.14705 -0.375,-0.21875 z"
       id="path4683" />
    <path
       style="fill:#999999;stroke:none"
       d="m 194.64641,125.13645 c -20.55114,-0.34583 -32.57742,16.92005 -41.92133,27.77919 -9.34391,10.85914 -26.26396,23.23351 -27.27412,33.84011 -1.01015,10.60661 -2.27284,27.52666 11.8693,28.53681 14.14213,1.01016 38.38579,-12.12183 56.316,-11.36421 17.93021,0.75761 48.48732,15.9099 59.34646,8.83883 10.85914,-7.07107 10.85914,-24.24366 3.53553,-32.07234 -7.3236,-7.82868 -15.40482,-10.6066 -20.20305,-27.27412 -4.79822,-16.66752 -24.88398,-28.00182 -41.66879,-28.28427 z"
       id="path4537"
       inkscape:connector-curvature="0"
       sodipodi:nodetypes="sssssssss" />
    <path
       inkscape:connector-curvature="0"
       style="fill:url(#linearGradient5425);fill-opacity:1;stroke:none"
       d="m 192.87011,127.14976 c -18.20467,0.51646 -29.79969,16.64336 -40.53125,29.21875 -8.23172,9.59108 -20.3789,17.12088 -24.71875,29.375 -0.55532,8.40713 -2.82528,19.6898 4.40625,25.78125 8.28463,4.5309 18.41327,-0.42522 26.90625,-2.34375 15.51061,-4.90566 32.19818,-10.38031 48.40625,-5 13.78964,2.7691 27.23639,9.54639 41.53125,8.09375 11.9866,-3.76969 13.91279,-21.59747 6.1875,-30.25 -8.34876,-7.32385 -17.43378,-15.13926 -20.1875,-26.5 -4.80471,-17.8858 -24.37096,-28.43656 -42,-28.375 z m 5.03125,5.21875 c 1.02954,0.0128 1.46463,4.17035 1.875,6.78125 -0.94676,4.34157 3.79445,14.46717 -3.875,11.96875 -4.73316,-0.97653 0.54851,-10.23443 -0.1875,-14.53125 0.95495,-3.09457 1.64822,-4.22547 2.1875,-4.21875 z m -8.4375,18.6875 c 4.67248,-0.0734 9.29615,0.62583 13.875,1.15625 11.7743,0.77285 22.39147,5.92383 32.3125,11.75 8.41841,3.88914 2.82702,5.80282 -3.78125,3.65625 -2.7782,5.8463 -7.45693,11.96199 -14.34375,12.75 4.40577,3.54333 10.15542,6.13185 13.46875,11.125 -7.24081,-0.0659 -13.38791,-4.29545 -19.53125,-7.5625 -7.25756,-3.53035 -12.10603,-10.46698 -15.875,-17.09375 -5.17446,5.41321 -10.49998,11.60512 -17.71875,14.78125 -7.56529,2.7324 -15.4948,7.72229 -23.78125,5.96875 4.23386,-4.67681 10.75861,-5.34446 16,-8.5625 -6.9525,-0.5602 -12.71561,-6.35093 -14.28125,-13 -0.61568,-2.10091 -13.02189,3.13882 -8.375,-1.375 11.45747,-8.45761 25.84626,-12.36602 40.03125,-13.5 0.66938,-0.0441 1.3325,-0.0833 2,-0.0937 z"
       id="path5414" />
    <path
       style="fill:url(#linearGradient6494);stroke:none;fill-opacity:1"
       d="m 157.32691,162.65563 -5.9375,1.53125 5.0625,13.375 c 0.41518,2.84409 1.83415,5.52771 4.0625,7.9375 3.92039,-1.56471 12.27819,-5.11009 18.75,-9.4375 -2.20114,0.67667 -4.48703,1.044 -6.875,1 -8.25626,0.52959 -14.61065,-6.57928 -15.0625,-14.40625 z"
       id="path6466" />
    <path
       style="fill:url(#linearGradient6486);stroke:none;fill-opacity:1"
       d="m 195.29566,164.78063 c -2.72865,0.25077 -4.97643,7.4551 -16.15625,13.90625 -5.33511,3.07854 -14.20241,5.78953 -18.4375,7 6.29301,6.63842 18.732,11.15625 33.0625,11.15625 12.51998,0 23.61065,-3.45187 30.40625,-8.75 -4.51179,-1.92441 -15.82302,-7.09586 -20.5625,-12.84375 -5.93465,-7.19734 -5.02951,-10.34248 -8.3125,-10.46875 z"
       id="path6464" />
    <path
       style="fill:url(#linearGradient6502);stroke:none;fill-opacity:1"
       d="m 230.76441,165.34313 c -2.44935,5.42472 -6.06221,11.03716 -12,12.84375 -3.98258,0.76629 -7.68489,-0.20629 -11.0625,-2.0625 0.50305,0.39513 1.02641,0.77554 1.59375,1.15625 7.86608,5.27856 13.21647,9.0417 15.28125,10.5 3.92162,-3.18034 6.30641,-7.00101 6.59375,-11.125 l 4.03125,-10.40625 -4.4375,-0.90625 z"
       id="path5926" />
    <path
       style="fill:#000000;stroke:none"
       d="m 189.25404,153.09619 c -4.63734,0.098 -9.19354,0.79521 -13.46875,1.75 -0.0518,0.0116 -0.10453,0.0196 -0.15625,0.0312 -5.68885,1.05328 -11.22273,2.75637 -16.375,5.34375 -0.0717,0.036 -0.14723,0.0574 -0.21875,0.0937 -5.20836,2.22838 -8.46875,4.09375 -8.46875,4.09375 l 6.75,-1.75 c 0.45185,7.82697 6.80624,14.93584 15.0625,14.40625 2.38797,0.044 4.67386,-0.32333 6.875,-1 -8.75273,5.85256 -20.96875,10.3125 -20.96875,10.3125 0,0 13.65124,-3.53717 20.84375,-7.6875 11.17982,-6.45115 13.4276,-13.65548 16.15625,-13.90625 3.28299,0.12627 2.37785,3.27141 8.3125,10.46875 5.93464,7.19734 22.75,13.78125 22.75,13.78125 0,0 -7.46605,-5.31027 -17.0625,-11.75 -0.56734,-0.38071 -1.0907,-0.76112 -1.59375,-1.15625 3.37761,1.85621 7.07992,2.82879 11.0625,2.0625 5.93779,-1.80659 9.55065,-7.41903 12,-12.84375 l 5.3125,1.09375 c 0,0 -2.38973,-1.34413 -6.125,-3.09375 -8.70092,-5.96756 -19.23076,-8.58338 -29.8125,-9.46875 -2.27046,-0.34544 -4.57557,-0.59702 -6.875,-0.71875 -1.34161,-0.071 -2.66548,-0.0907 -4,-0.0625 z"
       id="path4541"
       inkscape:connector-curvature="0"
       sodipodi:nodetypes="scccccccccscscsccccccss" />
    <path
       style="fill:url(#linearGradient5500);fill-opacity:1;stroke:none"
       d="m 193.12904,155.50244 c 0.74469,5.14062 -5.06363,12.98015 -11.3125,11.96875 -5.09754,-0.79017 -5.14003,-6.729 -2.25,-11.1875 -12.96803,1.82096 -20.15625,6.09375 -20.15625,6.09375 0.63135,6.81853 4.17338,13.25635 14.90625,12.625 4.08503,-0.24029 8.16299,-2.13875 11.65625,-4.40625 5.35911,-5.13634 6.52773,-8.36279 9.8125,-8.46875 2.25163,-0.0726 3.20469,2.83403 5.4375,6.53125 2.98278,2.91019 7.00856,6.02807 11.71875,7.5 10.10152,3.15673 15.8125,-11.25 15.8125,-11.25 0,0 -5.55162,-4.61918 -18.09375,-7.40625 2.43739,5.03143 0.65946,11.41917 -5.53125,10.5 -6.04829,-0.86307 -9.49683,-7.86373 -8.28125,-12.375 -0.35959,-0.0215 -0.69626,-0.0445 -1.0625,-0.0625 -0.90528,-0.0445 -1.78071,-0.0498 -2.65625,-0.0625 z"
       id="path4539"
       inkscape:connector-curvature="0" />
    <path
       style="fill:#000000;stroke:none"
       d="m 192.18416,173.75004 c 0,0 -4.16687,4.54569 -3.40926,5.61897 0.75761,1.07329 2.71478,0.44194 3.09359,-0.44194 0.37881,-0.88388 -0.25254,-2.90419 -0.25254,-2.90419 z"
       id="path4566"
       inkscape:connector-curvature="0" />
    <path
       inkscape:connector-curvature="0"
       style="fill:#000000;stroke:none"
       d="m 144.96386,177.46226 c -0.58448,0.045 -0.77923,6.83299 -1.125,7.28125 -0.84723,6.19221 -0.5887,12.86539 2.25,18.5 -1.0103,0.43004 -1.99894,0.84574 -2.90625,1.28125 -4.46429,2.14285 -9.17436,4.2052 -6.25,6.78125 2.34399,2.0648 7.875,-2.30803 9.125,-4.09375 1.25,-1.78571 30.17411,-10.90179 48.03125,-10.1875 17.85714,0.71428 41.41518,4.84375 44.09375,7.34375 2.67857,2.5 4.12947,4.26339 7.34375,3.90625 3.21429,-0.35715 5.31983,-1.581 3.5625,-4.28125 -0.42259,-0.64934 -2.14712,-1.46327 -4.75,-2.34375 2.73542,-6.062 1.18772,-13.14068 0.5,-19.53125 l -3,6.96875 c -2.06558,4.64755 -6.84287,6.89589 -11.25,9.125 -10.51685,-2.02987 -24.04567,-3.64864 -36.6875,-3.5 -12.31153,0.14475 -22.5711,1.42118 -31.03125,3.28125 -7.97081,-4.05947 -15.49837,-9.99458 -17.4375,-19.3125 -0.18398,-0.86859 -0.33387,-1.22913 -0.46875,-1.21875 z"
       id="path4570" />
    <path
       inkscape:connector-curvature="0"
       id="path4568"
       d="m 196.25898,174.25512 c 0,0 4.16687,4.54569 3.40926,5.61897 -0.75761,1.07329 -2.71478,0.44194 -3.09359,-0.44194 -0.37881,-0.88388 0.25254,-2.90419 0.25254,-2.90419 z"
       style="fill:#000000;stroke:none" />
    <path
       style="fill:#000000;stroke:none"
       d="m 197.67687,136.87947 -1.6415,12.2481 2.14658,0.12627 z"
       id="path4572"
       inkscape:connector-curvature="0" />
    <path
       inkscape:connector-curvature="0"
       style="fill:url(#linearGradient5513);fill-opacity:1;stroke:none"
       d="m 201.18261,81.556009 c -2.34835,-0.023 -4.60013,2.01181 -6.15625,2.625 -3.869,-4.21449 -11.0277,-2.15227 -13.1875,2.4375 -6.70578,-1.22717 -9.99899,8.60613 -4.4375,12.09375 3.12659,2.994831 8.41458,1.984901 11.40625,0.78125 1.6823,3.477661 6.46287,3.630031 9.21875,2.312501 2.56258,2.85135 7.24332,3.17201 10.28125,0.875 4.01479,3.23477 10.29382,0.0965 11.03125,-4.531251 6.2278,0.167 7.55547,-8.98898 2.4375,-11.71875 -3.43907,-2.78678 -8.613,-2.11731 -12.15625,-1.15625 -1.85183,-2.40565 -4.90505,-3.89981 -7.96875,-3.6875 -0.15726,-0.0209 -0.31219,-0.0297 -0.46875,-0.0312 z m -1.4375,24.687501 c -0.57087,0.0196 -1.1447,0.0582 -1.625,0.0937 -1.5428,0.1143 -4.402,0.6275 -4.3125,1.65625 0.13768,1.58336 2.0625,1.59375 2.0625,1.59375 0,0 2.60005,1.09871 2.53125,2.0625 -0.0688,0.96379 -2.1875,1.65625 -2.1875,1.65625 0,0 2.1186,1.08649 2.1875,1.84375 0.0688,0.75727 -1.65625,2.5 -1.65625,2.5 0,0 3.02399,-1.72417 3.78125,-2.34375 0.75726,-0.61958 -1.21875,-1.78125 -1.21875,-1.78125 0,0 2.96245,-0.6295 3.03125,-1.9375 0.0688,-1.30799 -1.71875,-1.78125 -1.71875,-1.78125 0,0 3.77583,-0.56655 3.15625,-2.21875 -0.46468,-1.23916 -2.31863,-1.40249 -4.03125,-1.34375 z"
       id="path5502" />
    <path
       style="fill:url(#linearGradient5521);fill-opacity:1;stroke:none"
       d="m 195.15149,88.139629 c -0.45098,-1.50118 -1.51429,-2.80849 -2.89213,-3.55579 -1.37785,-0.74731 -3.05353,-0.92555 -4.55775,-0.48482 -1.14153,0.33447 -2.17868,1.01656 -2.938,1.9322 -0.75931,0.91565 -1.2377,2.06111 -1.35514,3.24482 -1.23539,-0.80954 -2.88567,-0.94339 -4.23538,-0.34352 -1.3497,0.59987 -2.35621,1.91452 -2.58315,3.37398 -0.18919,1.21667 0.14713,2.48875 0.83222,3.51184 0.68509,1.0231 1.70146,1.80315 2.82958,2.29653 1.83572,0.80285 3.98927,0.84872 5.85751,0.12478 1.86825,-0.72395 3.42858,-2.20895 4.24401,-4.03912 -0.54342,1.0685 -0.62763,2.36115 -0.22743,3.49113 0.4002,1.12997 1.27922,2.08148 2.37401,2.569781 1.00085,0.4464 2.16941,0.50359 3.20907,0.15704 1.03965,-0.34655 1.94019,-1.093441 2.47303,-2.051071 0.54163,1.52352 1.75193,2.795681 3.24658,3.412521 1.49465,0.61684 3.24991,0.56855 4.70838,-0.12953 0.84434,-0.40413 1.58803,-1.01659 2.14657,-1.767771 0.83012,1.182401 2.20061,1.968751 3.64032,2.088731 1.43971,0.11998 2.92145,-0.42869 3.93583,-1.45738 0.88037,-0.892791 1.40138,-2.130421 1.42459,-3.384051 0.0232,-1.25363 -0.45162,-2.50971 -1.29833,-3.43447 0.19622,0.59168 0.55023,1.13024 1.01559,1.54502 0.46536,0.41477 1.04093,0.70475 1.65121,0.83189 0.61027,0.12714 1.25376,0.0911 1.84604,-0.1033 0.59228,-0.19444 1.1319,-0.54682 1.54808,-1.01093 0.59036,-0.65835 0.92177,-1.53261 0.96655,-2.41576 0.0448,-0.88315 -0.18932,-1.77149 -0.61925,-2.54421 -0.85988,-1.54546 -2.45224,-2.57818 -4.13537,-3.12124 -3.06484,-0.98886 -6.58029,-0.45914 -9.21764,1.38896 -0.75326,-1.87265 -2.29423,-3.41362 -4.16688,-4.16688 -1.80385,-0.72558 -3.89203,-0.71365 -5.68746,0.0325 -1.79544,0.74615 -3.277,2.21775 -4.03526,4.00811"
       id="path4574"
       inkscape:connector-curvature="0" />
    <path
       style="fill:url(#linearGradient5371);fill-opacity:1;stroke:none"
       d="m 124.59779,182.50244 c -10.08023,4.82878 -28.949813,16.9142 -30.718753,33.03125 -2.27285,20.70813 10.624843,23.98905 19.968753,21.96875 2.62117,-0.56674 7.6187,-1.45172 13.5,-2.40625 -2.27552,-5.35174 5.06671,-10.23908 10.09375,-9.5625 2.97922,-0.1581 5.9381,0.27539 8.90625,0.46875 2.1234,-0.62375 4.31431,-1.02292 6.5625,-1.125 l 0.9375,-0.0312 c 9.75903,0.73029 17.84279,6.08951 26.15625,11 5.02695,2.68282 11.65578,5.63167 22.21875,6.96875 19.95051,2.52538 23.97716,6.32186 26.25,2.28125 2.27284,-4.04061 -12.36644,-14.41212 -19.4375,-16.9375 -7.07107,-2.52538 -17.65625,-2.25 -17.65625,-2.25 0,0 18.4137,-2.53475 27,4.03125 8.58629,6.56599 13.375,12.625 13.375,12.625 0,0 1.52285,-3.54552 -0.75,-8.34375 -2.27284,-4.79822 -8.83169,-9.82424 -22.46875,-14.875 8.33376,-1.76777 20.96875,7.5625 20.96875,7.5625 0,0 0.25857,-6.83185 -6.8125,-11.125 -6.90957,-4.19509 -8.58391,-7.42147 -32.6875,-9.6875 -9.23214,0.50512 -18.43209,3.21069 -27.1875,6.0625 -10.36688,2.55401 -22.24528,8.35173 -32.59375,3 -1.27012,-0.90703 -2.33054,-1.93368 -3.21875,-3.0625 -3.91449,0.80982 -8.08973,1.61391 -12.28125,2.3125 0.96236,-1.13218 5.71005,-2.4769 10.9375,-4.3125 -4.09427,-7.20151 -2.7394,-17.27825 -1.9375,-25.21875 0.25638,-0.81569 0.55542,-1.59758 0.875,-2.375 z"
       id="path4581"
       inkscape:connector-curvature="0" />
    <path
       style="fill:url(#linearGradient5486);fill-opacity:1;stroke:none"
       d="m 190.69154,155.47119 c -3.12994,0.0216 -6.05519,0.23486 -8.75,0.53125 -0.86562,0.97122 -1.54951,2.15176 -1.9375,3.40625 -1.04605,3.38222 0.50495,6.125 3.46875,6.125 2.9638,0 6.20395,-2.74278 7.25,-6.125 0.46159,-1.49248 0.4168,-2.87478 -0.0312,-3.9375 z m 8.5,0.3125 c -0.60579,1.08305 -0.77009,2.5282 -0.375,4.125 0.83684,3.38222 3.9112,6.125 6.875,6.125 2.9638,0 4.68059,-2.74278 3.84375,-6.125 -0.26406,-1.06723 -0.7704,-2.0367 -1.40625,-2.90625 -2.69427,-0.5059 -5.66323,-0.94564 -8.9375,-1.21875 z"
       id="path4588"
       inkscape:connector-curvature="0" />
    <path
       style="fill:#ffffff;fill-opacity:1;stroke:none"
       d="m 186.00404,155.62744 c -0.88476,0.0581 -1.74999,0.13871 -2.59375,0.21875 -0.74464,0.47927 -1.38997,1.25219 -1.65625,2.125 -0.4438,1.45468 0.2936,2.625 1.625,2.625 1.3314,0 2.77495,-1.17032 3.21875,-2.625 0.30916,-1.01336 0.0397,-1.90325 -0.59375,-2.34375 z"
       id="path4611"
       inkscape:connector-curvature="0" />
    <path
       style="fill:#ffffff;fill-opacity:1;stroke:none"
       d="m 200.69154,155.93994 c -0.53344,0.47927 -0.8371,1.25219 -0.71875,2.125 0.19724,1.45468 1.44985,2.625 2.78125,2.625 1.3314,0 2.25974,-1.17032 2.0625,-2.625 -0.0905,-0.66715 -0.40659,-1.2859 -0.84375,-1.75 -1.0535,-0.14791 -2.15351,-0.26059 -3.28125,-0.375 z"
       id="path4613"
       inkscape:connector-curvature="0" />
    <path
       style="fill:url(#linearGradient5392);fill-opacity:1;stroke:none"
       d="m 190.85834,243.45056 c -9.84899,-3.28299 -22.72843,-13.88959 -33.0825,-16.16243 -10.35406,-2.27285 -20.45558,4.92449 -23.2335,7.57614 -2.77792,2.65165 -8.71257,5.55584 -5.80838,8.71256 2.90419,3.15673 7.44987,1.89404 10.98541,-0.12626 3.53553,-2.02031 16.28871,-6.43973 16.28871,-6.43973 l -18.68782,10.10153 c 0,0 -2.02031,4.29315 7.44987,3.78807 9.47018,-0.50508 20.07678,-4.41942 20.07678,-4.41942 l -18.30901,6.81853 c 0,0 3.40926,4.41942 15.40482,1.89404 11.99556,-2.52538 21.16924,-9.26738 28.91562,-11.74303 z"
       id="path4621"
       inkscape:connector-curvature="0"
       sodipodi:nodetypes="cssssccsccsc" />
    <path
       style="fill:url(#linearGradient5400);fill-opacity:1;stroke:none"
       d="m 138.53529,227.50244 c -2.78146,0.0227 -5.4622,0.39423 -6.875,1.5 -3.76748,2.94875 -3.38433,5.75211 -1.375,6.0625 0.17775,0.0275 0.47669,0.006 0.8125,-0.0312 3.24968,-2.9482 6.88903,-5.55054 10.84375,-7.375 -1.10947,-0.0789 -2.25539,-0.16566 -3.40625,-0.15625 z"
       id="path4623"
       inkscape:connector-curvature="0" />
    <path
       style="fill:url(#linearGradient5408);fill-opacity:1;stroke:none"
       d="m 261.69154,185.25244 c 2.97983,7.15037 2.53719,15.98444 -1.3125,22.53125 l 10.53125,2.71875 -12.15625,-0.34375 c -2.05393,2.57276 -4.75891,4.60384 -8.09375,5.78125 -9.26545,1.63111 -18.35255,-0.63616 -27.34375,-3.28125 l -0.53125,0.59375 c 2.8951,1.9883 5.42933,4.41936 7.15625,7.46875 1.58893,2.80633 2.20145,8.21957 1,9.6875 0.51202,0.62755 0.97545,1.29682 1.375,2 7.14057,2.139 14.61144,4.19463 19.90625,5.09375 13.38452,2.27284 22.49143,-3.00159 29.5625,-9.0625 7.07107,-6.06092 8.57549,-14.41154 3.78125,-24 -2.82972,-5.65943 -9.91391,-10.54926 -23.875,-19.1875 z"
       id="path4640"
       inkscape:connector-curvature="0" />
    <path
       style="fill:url(#linearGradient5478);fill-opacity:1;stroke:none"
       d="m 134.87904,134.84619 c -5.11549,0.1923 -7.52902,1.98884 -7.40625,3.09375 0.17857,1.60715 9.64731,1.22767 13.21875,5.15625 2.96259,3.25885 6.13574,6.39553 7.15625,12.25 0.52643,-0.56782 1.06082,-1.13826 1.5625,-1.71875 2.29355,-2.74797 4.64425,-5.60761 7.09375,-8.4375 -2.49817,-3.72875 -6.72903,-8.00434 -12.9375,-9.40625 -3.45982,-0.78125 -6.36228,-1.02491 -8.6875,-0.9375 z"
       id="path4652"
       inkscape:connector-curvature="0" />
    <path
       style="fill:url(#linearGradient5454);fill-opacity:1;stroke:none"
       d="m 140.31654,145.28369 c -1.21783,2.66228 -2.14765,6.20214 -1.40625,10.15625 0.51229,2.73224 1.23534,4.9843 1.96875,6.84375 1.74453,-1.64813 3.46578,-3.31728 5.125,-5 -0.58316,-3.61937 -1.18979,-7.24629 -4.1875,-9.9375 -0.42141,-0.81565 -0.93813,-1.47809 -1.5,-2.0625 z"
       id="path4654"
       inkscape:connector-curvature="0" />
    <path
       style="fill:url(#linearGradient5470);fill-opacity:1;stroke:none"
       d="m 256.69154,144.28369 c -0.65608,0.0105 -1.35449,0.0183 -2.0625,0.0625 -7.94827,0.49662 -13.55314,5.91138 -16.21875,9.59375 1.54102,5.12124 4.18558,9.7204 7.53125,13.8125 0.18048,-0.33892 0.32657,-0.80154 0.4375,-1.40625 1.4824,-8.08138 5.8362,-11.06607 9.90625,-14.3125 4.15067,-3.31072 13.44316,-1.44169 13.875,-3 0.40486,-1.46091 -3.62761,-4.90776 -13.46875,-4.75 z"
       id="path4661"
       inkscape:connector-curvature="0" />
    <path
       style="fill:url(#linearGradient5462);fill-opacity:1;stroke:none"
       d="m 256.31654,154.25244 c -0.64764,0.48764 -1.26676,1.04298 -1.8125,1.78125 -4.74995,3.05725 -5.16581,8.67141 -7.25,13.25 1.30902,1.47605 2.69157,2.887 4.15625,4.21875 1.42223,-1.93802 3.21271,-4.89658 4.6875,-9 1.36069,-3.78592 0.99778,-7.42795 0.21875,-10.25 z"
       id="path4663"
       inkscape:connector-curvature="0" />
    <path
       style="fill:url(#linearGradient5438);fill-opacity:1;stroke:none"
       d="m 145.80761,184.99351 c -1.35661,10.22671 1.20922,15.81358 2.15625,17.46875 4.0935,0.022 7.96874,-1.16247 12.0625,-3.8125 -3.09797,-1.65461 -11.83585,-6.81837 -14.21875,-13.65625 z"
       id="path4756"
       inkscape:connector-curvature="0"
       sodipodi:nodetypes="cccc" />
    <path
       style="fill:url(#linearGradient5446);fill-opacity:1;stroke:none"
       d="m 243.68261,189.86851 c -1.75595,4.76008 -8.26162,8.17006 -9.96875,9 2.58265,2.2257 6.38039,3.4593 8.65625,2.15625 0.75234,-1.39391 2.17441,-5.01817 1.3125,-11.15625 z"
       id="path4758"
       inkscape:connector-curvature="0"
       sodipodi:nodetypes="cccc" />
    <path
       inkscape:connector-curvature="0"
       style="fill:url(#linearGradient5384);fill-opacity:1;stroke:none"
       d="m 189.99511,206.08726 c -9.23214,0.50512 -18.43209,3.21069 -27.1875,6.0625 -10.36688,2.55401 -22.24528,8.35173 -32.59375,3 -1.27012,-0.90703 -2.33054,-1.93368 -3.21875,-3.0625 -3.61182,0.74721 -7.44874,1.49717 -11.3125,2.15625 l -3.6875,23.5625 c 0.6282,-0.083 1.24016,-0.18199 1.84375,-0.3125 2.62117,-0.56674 7.6187,-1.45172 13.5,-2.40625 -2.27552,-5.35174 5.06671,-10.23908 10.09375,-9.5625 2.97922,-0.1581 5.9381,0.27539 8.90625,0.46875 2.1234,-0.62375 4.31431,-1.02292 6.5625,-1.125 l 0.9375,-0.0312 c 9.75903,0.73029 17.84279,6.08951 26.15625,11 5.02695,2.68282 11.65578,5.63167 22.21875,6.96875 19.95051,2.52538 23.97716,6.32186 26.25,2.28125 2.27284,-4.04061 -12.36644,-14.41212 -19.4375,-16.9375 -7.07107,-2.52538 -17.65625,-2.25 -17.65625,-2.25 0,0 18.4137,-2.53475 27,4.03125 8.58629,6.56599 13.375,12.625 13.375,12.625 0,0 1.52285,-3.54552 -0.75,-8.34375 -2.27284,-4.79822 -8.83169,-9.82424 -22.46875,-14.875 8.33376,-1.76777 20.96875,7.5625 20.96875,7.5625 0,0 0.25857,-6.83185 -6.8125,-11.125 -6.90957,-4.19509 -8.58391,-7.42147 -32.6875,-9.6875 z"
       id="path5373" />
  </g>
</svg>
