<?xml version="1.0" encoding="UTF-8" standalone="no"?>
<!-- Created with Inkscape (http://www.inkscape.org/) -->
<svg xmlns:inkscape="http://www.inkscape.org/namespaces/inkscape" xmlns:rdf="http://www.w3.org/1999/02/22-rdf-syntax-ns#" xmlns="http://www.w3.org/2000/svg" xmlns:cc="http://creativecommons.org/ns#" xmlns:dc="http://purl.org/dc/elements/1.1/" xmlns:sodipodi="http://sodipodi.sourceforge.net/DTD/sodipodi-0.dtd" id="svg2" sodipodi:docname="_svgclean2.svg" viewBox="0 0 43.545 47.5" version="1.1" inkscape:version="0.48.3.1 r9886">
  <sodipodi:namedview id="namedview30" bordercolor="#666666" inkscape:pageshadow="2" guidetolerance="10" pagecolor="#ffffff" gridtolerance="10" inkscape:window-maximized="0" inkscape:zoom="0.22425739" objecttolerance="10" borderopacity="1" inkscape:current-layer="svg2" inkscape:cx="372.04724" inkscape:cy="-478.68109" inkscape:window-y="0" inkscape:window-x="0" inkscape:window-width="743" showgrid="false" inkscape:pageopacity="0" inkscape:window-height="484"/>
  <g id="g7483" transform="translate(-221.93,-236.73)">
    <path id="path7485" style="color:#000000;stroke:#9acbcc;stroke-linecap:round;fill:#eef6f9" inkscape:connector-curvature="0" d="m222.43 237.23v46.5h35.25v-38.031l-9.75-8.4688h-25.5z"/>
    <path id="path7487" style="color:#000000;stroke-linejoin:round;stroke:#9acbcc;stroke-linecap:round;fill:#eef6f9" inkscape:connector-curvature="0" d="m247.93 237.23 9.7685 8.4839h-9.77v-8.48z"/>
  </g>
  <rect id="rect7491" style="color:#000000;fill-opacity:.57921;fill:#819e9e" rx="1" ry="1" height="1.936" width="11.433" y="7.0067" x="11.753"/>
  <rect id="rect7493" style="color:#000000;fill-opacity:.57921;fill:#819e9e" rx="1" ry="1" height="1.936" width="6.03" y="7.0067" x="3.7533"/>
  <rect id="rect7495" style="color:#000000;fill-opacity:.57921;fill:#819e9e" rx="1" ry="1" height="1.936" width="5.7727" y="11.007" x="3.7533"/>
  <rect id="rect7497" style="color:#000000;fill-opacity:.57921;fill:#819e9e" rx="1" ry="1" height="1.936" width="7.0591" y="15.007" x="3.7533"/>
  <rect id="rect7499" style="color:#000000;fill-opacity:.57921;fill:#819e9e" rx="1" ry="1" height="1.936" width="14.52" y="19.007" x="17.753"/>
  <rect id="rect7501" style="color:#000000;fill-opacity:.57921;fill:#819e9e" rx="1" ry="1" height="1.936" width="9.6319" y="23.007" x="3.7533"/>
  <rect id="rect7503" style="color:#000000;fill-opacity:.57921;fill:#819e9e" rx="1" ry="1" height="1.936" width="14.52" y="27.007" x="3.7533"/>
  <rect id="rect7507" style="color:#000000;fill-opacity:.57921;fill:#819e9e" rx="1" ry="1" height="1.936" width="7.5737" y="15.007" x="24.501"/>
  <rect id="rect7509" style="color:#000000;fill-opacity:.57921;fill:#819e9e" rx="1" ry="1" height="1.936" width="4.4863" y="19.007" x="3.7533"/>
  <rect id="rect7511" style="color:#000000;fill-opacity:.57921;fill:#819e9e" rx="1" ry="1" height="1.936" width="9.1173" y="15.007" x="12.957"/>
  <rect id="rect7513" style="color:#000000;fill-opacity:.57921;fill:#819e9e" rx="1" ry="1" height="1.936" width="4.4863" y="19.007" x="11.753"/>
  <rect id="rect7515" style="color:#000000;fill-opacity:.57921;fill:#819e9e" rx="1" ry="1" height="1.936" width="5.7727" y="11.007" x="11.753"/>
  <rect id="rect7517" style="color:#000000;fill-opacity:.57921;fill:#819e9e" rx="1" ry="1" height="1.936" width="5.7727" y="11.007" x="19.753"/>
  <rect id="rect7519" style="color:#000000;fill-opacity:.57921;fill:#819e9e" rx="1" ry="1" height="1.936" width="8.0882" y="23.007" x="23.297"/>
  <rect id="rect7521" style="color:#000000;fill-opacity:.57921;fill:#819e9e" rx="1" ry="1" height="1.936" width="6.03" y="23.007" x="15.297"/>
  <rect id="rect7523" style="color:#000000;fill-opacity:.57921;fill:#819e9e" rx="1" ry="1" height="1.936" width="8.0882" y="31.007" x="3.7533"/>
  <rect id="rect7525" style="color:#000000;fill-opacity:.57921;fill:#819e9e" rx="1" ry="1" height="1.936" width="14.52" y="35.007" x="3.7533"/>
  <rect id="rect7527" style="color:#000000;fill-opacity:.57921;fill:#819e9e" rx="1" ry="1" height="1.936" width="6.8018" y="39.007" x="3.7533"/>
  <rect id="rect7529" style="color:#000000;fill-opacity:.57921;fill:#819e9e" rx="1" ry="1" height="1.936" width="8.0882" y="31.007" x="13.753"/>
  <rect id="rect7531" style="color:#000000;fill-opacity:.57921;fill:#819e9e" rx="1" ry="1" height="1.936" width="6.8018" y="39.007" x="13.753"/>
  <path id="path7535" style="stroke-linejoin:round;stroke:#ffffff;stroke-width:4.21;fill:url(#linearGradient3994)" inkscape:connector-curvature="0" d="m24.1 35.373c-0.38377 0-0.69277 0.30896-0.69277 0.69274v3.4349c0 0.38379 0.309 0.69276 0.69277 0.69276h16.647c0.38377 0 0.6927-0.30897 0.6927-0.69276v-3.4349c0-0.38378-0.30893-0.69274-0.6927-0.69274h-16.647z"/>
  <path id="path7537" style="stroke-linejoin:round;stroke:#6b1a11;stroke-width:1.25;fill:#ff0000" inkscape:connector-curvature="0" d="m24.1 35.373c-0.38377 0-0.69277 0.30896-0.69277 0.69274v3.4349c0 0.38379 0.309 0.69276 0.69277 0.69276h16.647c0.38377 0 0.6927-0.30897 0.6927-0.69276v-3.4349c0-0.38378-0.30893-0.69274-0.6927-0.69274h-16.647z"/>
  <metadata id="metadata28">
    <rdf:RDF>
      <cc:Work>
        <dc:format>image/svg+xml</dc:format>
        <dc:type rdf:resource="http://purl.org/dc/dcmitype/StillImage"/>
        <cc:license rdf:resource="http://creativecommons.org/licenses/publicdomain/"/>
        <dc:publisher>
          <cc:Agent rdf:about="http://openclipart.org/">
            <dc:title>Openclipart</dc:title>
          </cc:Agent>
        </dc:publisher>
      </cc:Work>
      <cc:License rdf:about="http://creativecommons.org/licenses/publicdomain/">
        <cc:permits rdf:resource="http://creativecommons.org/ns#Reproduction"/>
        <cc:permits rdf:resource="http://creativecommons.org/ns#Distribution"/>
        <cc:permits rdf:resource="http://creativecommons.org/ns#DerivativeWorks"/>
      </cc:License>
    </rdf:RDF>
  </metadata>
</svg>
